<?xml version="1.0" encoding="utf-8"?>
<!-- Generator: Adobe Illustrator 26.0.0, SVG Export Plug-In . SVG Version: 6.00 Build 0)  -->
<svg version="1.1" id="Слой_1" xmlns="http://www.w3.org/2000/svg" xmlns:xlink="http://www.w3.org/1999/xlink" x="0px" y="0px"
	 viewBox="0 0 16 16" enable-background="new 0 0 16 16" xml:space="preserve">
<g>
	<path fill="#FFFFFF" d="M3.1,7.8C3,7.8,2.9,7.8,2.7,7.8l-0.4,0V7c0,0,0.1,0,0.1,0c0,0,0.1,0,0.2,0C2.7,7,2.9,7,3,7
		c0.1,0,0.2,0,0.3,0l0-0.2c-0.1,0-0.2,0-0.3,0s-0.2,0-0.3,0c-0.1,0-0.3,0-0.4,0.1C2.2,6.9,2.1,6.9,2.1,7S2,7.3,2,7.4
		c0,0.1,0,0.2,0,0.3c0,0.1,0.1,0.1,0.1,0.2c0.1,0,0.1,0.1,0.2,0.1c0.1,0,0.2,0,0.4,0l0.3,0v0.7c-0.1,0-0.2,0-0.2,0s-0.1,0-0.2,0
		c-0.1,0-0.2,0-0.3,0c-0.1,0-0.2,0-0.3-0.1l0,0.2C2.1,9,2.2,9,2.3,9c0.1,0,0.2,0,0.3,0C2.8,9,3,9,3.1,9c0.1,0,0.2-0.1,0.2-0.2
		c0-0.1,0.1-0.2,0.1-0.4s0-0.3-0.1-0.4C3.3,7.9,3.2,7.9,3.1,7.8z"/>
	<path fill="#FFFFFF" d="M5.4,7.3c0-0.1-0.1-0.3-0.1-0.3C5.3,6.9,5.2,6.8,5.1,6.8c-0.1,0-0.3,0-0.4,0c-0.2,0-0.3,0-0.4,0
		C4.1,6.8,4,6.9,4,7C3.9,7.1,3.9,7.2,3.8,7.3c0,0.1,0,0.3,0,0.6c0,0.2,0,0.4,0,0.6c0,0.1,0.1,0.3,0.1,0.3C4,8.9,4.1,8.9,4.2,9
		c0.1,0,0.3,0,0.4,0C4.8,9,5,9,5.1,9c0.1,0,0.2-0.1,0.3-0.2c0.1-0.1,0.1-0.2,0.1-0.3c0-0.1,0-0.3,0-0.6S5.5,7.5,5.4,7.3z M5.2,8.5
		c0,0.1,0,0.2-0.1,0.2c0,0-0.1,0.1-0.2,0.1H4.1V7.3c0-0.1,0-0.2,0.1-0.2C4.2,7,4.3,7,4.4,7h0.8L5.2,8.5L5.2,8.5z"/>
	<polygon fill="#FFFFFF" points="7.6,6.8 7.1,8.5 7.1,8.5 6.5,6.8 6.1,6.8 6,9 6.3,9 6.4,7.1 6.4,7.1 7,9 7.2,9 7.7,7.1 7.8,7.1 
		7.9,9 8.1,9 8,6.8 	"/>
	<path fill="#FFFFFF" d="M10.1,8.1C10.1,8,10,7.9,9.9,7.9v0C10,7.8,10,7.7,10.1,7.7c0-0.1,0-0.2,0-0.3c0-0.2,0-0.3-0.1-0.4
		C9.9,6.9,9.7,6.8,9.6,6.8H8.8V9h0.9c0.2,0,0.3-0.1,0.4-0.2s0.1-0.3,0.1-0.4C10.2,8.2,10.2,8.1,10.1,8.1z M9,7h0.5
		c0.1,0,0.2,0,0.2,0.1s0.1,0.2,0.1,0.3c0,0.1,0,0.2-0.1,0.3c0,0.1-0.1,0.1-0.2,0.1H9V7z M9.9,8.7c0,0.1-0.1,0.1-0.2,0.1H9V8h0.6
		c0.1,0,0.2,0,0.2,0.1c0,0.1,0.1,0.2,0.1,0.3C9.9,8.5,9.9,8.6,9.9,8.7z"/>
	<path fill="#FFFFFF" d="M11.8,8.1C11.9,8.1,12,8.1,12,8c0.1-0.1,0.1-0.3,0.1-0.5c0-0.2,0-0.3-0.1-0.4C12,7,12,6.9,11.9,6.9
		c-0.1,0-0.2-0.1-0.3-0.1h-0.8V9H11V8.2h0.5L11.9,9h0.3L11.8,8.1z M11.8,7.9c0,0-0.1,0-0.2,0H11V7h0.6c0.1,0,0.2,0,0.2,0
		c0,0,0.1,0.1,0.1,0.1v0.6C11.8,7.9,11.8,7.9,11.8,7.9z"/>
	<path fill="#FFFFFF" d="M13.5,6.8h-0.4L12.4,9h0.3l0.2-0.5h0.9L13.9,9h0.3L13.5,6.8z M12.9,8.2l0.3-1.2h0l0.3,1.2H12.9z"/>
</g>
<path fill="#FACA24" d="M15.7,12.3C15.8,12.3,15.8,12.3,15.7,12.3l0-0.1c0,0,0-0.1-0.1-0.1h-2.9c-0.5,0-1-0.4-1-1V9.6
	c0,0,0-0.1,0.1-0.1h1.6c0,0,0.1,0,0.1-0.1V9.4c0,0,0-0.1,0-0.1c-0.1,0-0.2-0.1-0.2-0.2c0-0.1,0.1-0.2,0.2-0.2c0,0,0,0,0-0.1v0
	c0,0,0-0.1,0-0.1c-0.1,0-0.2-0.1-0.2-0.2c0-0.1,0.1-0.2,0.2-0.2c0,0,0,0,0-0.1v0c0,0,0-0.1,0-0.1c-0.1,0-0.2-0.1-0.2-0.2
	c0-0.1,0.1-0.2,0.2-0.2c0,0,0,0,0-0.1v0c0,0,0-0.1,0-0.1c-0.1,0-0.2-0.1-0.2-0.2s0.1-0.2,0.2-0.2c0,0,0,0,0-0.1v0c0,0,0-0.1,0-0.1
	c-0.1,0-0.2-0.1-0.2-0.2s0.1-0.2,0.2-0.2c0,0,0,0,0-0.1v0c0,0,0-0.1-0.1-0.1H9V7H8.8V6.5H4.6v3H6v2.6H5c-1,0-1.9-0.9-1.9-1.9V3.9
	c0,0,0,0,0,0h2.5C5.9,3.9,6,4,6,4.3v1.1h2.8V4.8H9v0.5h2.8V0.9H9v0.5H8.8V0.9H2.6C1.3,0.9,0.2,2,0.2,3.3v8.1c0,2,1.6,3.7,3.6,3.7h2
	c1.5,0,2.8-1.1,3.1-2.6h0v-0.7H9v0.7h0c0.3,1.5,1.6,2.6,3.1,2.6h3.6c0,0,0.1,0,0.1-0.1V15c0,0,0-0.1,0-0.1c-0.1,0-0.2-0.1-0.2-0.2
	c0-0.1,0.1-0.2,0.2-0.2c0,0,0,0,0-0.1v0c0,0,0-0.1,0-0.1c-0.1,0-0.2-0.1-0.2-0.2c0-0.1,0.1-0.2,0.2-0.2c0,0,0,0,0-0.1v0
	c0,0,0-0.1,0-0.1c-0.1,0-0.2-0.1-0.2-0.2c0-0.1,0.1-0.2,0.2-0.2c0,0,0,0,0-0.1v0c0,0,0-0.1,0-0.1c-0.1,0-0.2-0.1-0.2-0.2
	c0-0.1,0.1-0.2,0.2-0.2c0,0,0,0,0-0.1v0c0,0,0-0.1,0-0.1c-0.1,0-0.2-0.1-0.2-0.2C15.6,12.4,15.6,12.3,15.7,12.3z M8.9,2H9v0.7H8.9V2
	z M8.9,3.4H9v0.7H8.9V3.4z M9,11.1H8.8v-0.7H9V11.1z M9,9.7H8.8V9H9V9.7z M9,8.3H8.8V7.6H9V8.3z"/>
</svg>
