<svg width="60" height="60" viewBox="0 0 60 60" fill="none" xmlns="http://www.w3.org/2000/svg">
<path d="M32.4998 0C32.9673 0 33.4214 0 33.889 0C35.1446 0.307231 36.0396 1.12206 36.9079 2.0304C38.3104 3.47305 39.7397 4.88899 41.169 6.30492C42.4914 7.614 42.8254 9.12344 42.1709 10.86C41.9972 11.3008 41.9438 11.7549 42.064 12.2225C42.4113 13.5182 43.6536 14.1059 45.0028 13.6117C46.5523 13.0507 48.0083 13.2243 49.2105 14.3731C51.0939 16.1764 52.9373 18.0332 54.754 19.9033C55.9696 21.1589 56.1432 23.0023 55.3284 24.5384C55.2482 24.6987 55.0612 24.8323 55.1013 25.046C55.1681 25.0594 55.2215 25.0728 55.275 25.0728C57.7996 25.1796 59.4025 26.836 59.4025 29.3473C59.4025 31.725 59.4159 34.1027 59.4025 36.4804C59.3892 38.2303 58.5877 39.5126 56.9848 40.234C56.1165 40.6347 55.5822 41.2492 55.5688 42.2243C55.5688 43.2128 56.0898 43.8272 56.9581 44.228C58.6011 44.976 59.4025 46.2851 59.4025 48.0884C59.4025 50.4528 59.4025 52.8037 59.4025 55.1681C59.4025 55.4352 59.4025 55.7158 59.3491 55.9696C58.9884 58.0935 57.3588 59.3892 55.0612 59.3892C38.1902 59.3892 21.3058 59.3892 4.43481 59.3892C4.26116 59.3892 4.08752 59.4025 3.91387 59.3892C2.24413 59.2823 1.04192 58.4675 0.333947 56.9447C0.200368 56.6508 0.106863 56.3302 0 56.0363C0 53.0976 0 50.1589 0 47.2201C0.400737 45.7107 1.30907 44.6688 2.76508 44.0543C3.49976 43.7337 3.84707 43.0391 3.83371 42.2109C3.82035 41.4095 3.47304 40.7282 2.76508 40.421C1.30907 39.8065 0.400737 38.7512 0 37.2418C0 34.3031 0 31.3643 0 28.4256C0.133579 28.3187 0.106876 28.1451 0.14695 27.9981C0.65455 26.275 2.17733 25.1128 3.96729 25.0728C4.54168 25.0594 5.12942 25.0327 5.70381 25.0728C6.22477 25.1128 6.59879 24.9392 6.97281 24.5652C14.4532 17.058 21.947 9.57761 29.4274 2.08383C30.3358 1.18885 31.2174 0.320589 32.4998 0ZM23.6835 55.9028C30.1354 55.9028 36.6006 55.9028 43.0525 55.9161C43.4933 55.9161 43.6937 55.8493 43.6937 55.3284C43.6803 46.5923 43.6803 37.8563 43.6937 29.1202C43.6937 28.6527 43.5467 28.5458 43.1059 28.5458C30.1888 28.5592 17.2717 28.5592 4.36802 28.5592C3.66006 28.5592 3.51313 28.7061 3.51313 29.4007C3.51313 31.6849 3.52648 33.9691 3.49976 36.24C3.49976 36.6808 3.64671 36.9346 4.04745 37.1349C6.17135 38.1635 7.3335 39.8733 7.3335 42.2376C7.3335 44.5753 6.18472 46.2851 4.08753 47.3136C3.62 47.5407 3.48642 47.8079 3.48642 48.2888C3.49978 50.4795 3.49976 52.6568 3.49976 54.8475C3.49976 55.836 3.57991 55.9161 4.54168 55.9161C10.9268 55.9028 17.3118 55.9028 23.6835 55.9028ZM45.4836 25.0594C46.8595 25.0594 48.2353 25.046 49.5979 25.0728C49.9318 25.0728 50.1723 24.9926 50.4127 24.7522C50.8936 24.2312 51.4145 23.737 51.9221 23.2294C52.4564 22.6951 52.4564 22.5348 51.9221 22.0004C50.3192 20.3975 48.7162 18.8079 47.1266 17.1916C46.7927 16.8577 46.5122 16.7909 46.058 16.9512C43.854 17.7126 41.8236 17.3252 40.1805 15.6688C38.5108 13.9991 38.1234 11.9687 38.8982 9.7379C39.0451 9.29709 38.9783 9.02993 38.6578 8.7227C37.0281 7.11976 35.4251 5.50345 33.8088 3.88715C33.2879 3.36619 33.1409 3.36619 32.62 3.88715C30.5896 5.90419 28.5859 7.93459 26.5421 9.95163C26.2482 10.2455 26.275 10.3924 26.5555 10.673C31.2708 15.3616 35.9728 20.0769 40.6614 24.7789C40.8885 25.006 41.1022 25.0995 41.4228 25.0995C42.772 25.0594 44.1211 25.0594 45.4836 25.0594ZM47.1934 42.1709C47.1934 46.5522 47.1934 50.947 47.1801 55.3284C47.1801 55.7558 47.2736 55.9295 47.7545 55.9161C50.1856 55.8894 52.6301 55.9028 55.0612 55.9028C55.7692 55.9028 55.9295 55.7558 55.9295 55.0612C55.9295 52.7637 55.9161 50.4661 55.9428 48.1552C55.9428 47.7277 55.7825 47.5007 55.3952 47.3136C53.2713 46.2851 52.1091 44.5886 52.0958 42.2243C52.0958 39.8599 53.2579 38.1501 55.3818 37.1216C55.7959 36.9212 55.9428 36.6808 55.9428 36.24C55.9295 33.9825 55.9428 31.7116 55.9295 29.4541C55.9295 28.6794 55.7959 28.5458 55.0212 28.5458C52.6301 28.5458 50.2257 28.5592 47.8346 28.5325C47.327 28.5325 47.1801 28.6527 47.1801 29.1736C47.2068 33.5016 47.1934 37.8295 47.1934 42.1709ZM35.9594 25.0327C35.8659 24.9125 35.8259 24.859 35.7858 24.819C31.8586 20.8917 27.9314 16.9779 24.0309 13.0373C23.6969 12.7034 23.5767 12.9037 23.363 13.1041C19.5293 16.9512 15.6822 20.7849 11.8484 24.6319C11.7416 24.7388 11.5412 24.8056 11.5813 25.0193C19.6895 25.0327 27.7844 25.0327 35.9594 25.0327Z" fill="#FACA21"/>
</svg>
