<svg width="54" height="54" viewBox="0 0 54 54" fill="none" xmlns="http://www.w3.org/2000/svg">
<path d="M16.0533 0C16.8414 0.320589 17.4826 0.774758 17.7097 1.64302C18.0971 3.12575 17.0285 4.43482 15.4255 4.44818C12.7139 4.46154 10.0156 4.44818 7.30391 4.44818C7.1169 4.44818 6.91653 4.44818 6.72952 4.44818C5.38037 4.47489 4.47203 5.36987 4.47203 6.71902C4.45868 9.55089 4.47203 12.3828 4.47203 15.2013C4.47203 15.5486 4.45868 15.8959 4.35181 16.2298C4.04458 17.2183 3.01602 17.8862 2.01418 17.7526C0.905477 17.6057 0.0372139 16.7642 0.0372139 15.6822C0.0104981 12.503 -0.0429334 9.32381 0.0639297 6.15799C0.144077 3.19254 2.52178 0.641179 5.44716 0.106863C5.58074 0.0801472 5.72768 0.106863 5.83454 0C9.2408 0 12.6471 0 16.0533 0Z" fill="#FACA21"/>
<path d="M53.3485 16.0422C53.0412 16.8169 52.6004 17.4447 51.7589 17.6852C50.2762 18.1126 48.9137 17.0306 48.9003 15.4143C48.8869 12.7828 48.9003 10.138 48.9003 7.50647C48.9003 7.26603 48.9003 7.02559 48.9003 6.77179C48.8736 5.35585 47.992 4.46087 46.576 4.46087C43.7308 4.44752 40.8856 4.46087 38.0403 4.46087C37.3591 4.46087 36.7313 4.30058 36.237 3.80634C35.1417 2.72435 35.4623 0.880958 36.8515 0.226422C36.9984 0.159632 37.1587 0.0794848 37.319 0.0126953C40.7253 0.0126953 44.1182 0.0126953 47.5244 0.0126953C47.6179 0.0394111 47.7115 0.0928428 47.8183 0.106201C50.53 0.653874 52.2798 2.27018 53.1214 4.90168C53.2149 5.20891 53.2817 5.5295 53.3618 5.85009C53.3485 9.22964 53.3485 12.6359 53.3485 16.0422Z" fill="#FACA21"/>
<path d="M53.3485 47.4998C53.1882 47.7269 53.2149 47.9941 53.1615 48.2479C52.4268 51.2 49.8087 53.3105 46.7631 53.3372C43.811 53.3639 40.8589 53.3506 37.9068 53.3372C36.571 53.3372 35.5692 52.4022 35.5558 51.1332C35.5424 49.8909 36.5309 48.9024 37.8667 48.8891C40.7253 48.8757 43.5972 48.8757 46.4558 48.8891C47.1104 48.8891 47.6981 48.7421 48.179 48.3013C48.7133 47.8071 48.887 47.1792 48.887 46.4713C48.8736 43.6394 48.8736 40.8075 48.887 37.989C48.887 36.8135 49.5148 35.9319 50.5033 35.6514C51.5986 35.3575 52.694 35.8918 53.1615 36.9337C53.2149 37.054 53.2016 37.2143 53.3352 37.2944C53.3485 40.6873 53.3485 44.0936 53.3485 47.4998Z" fill="#FACA21"/>
<path d="M26.6996 28.8801C32.537 28.8801 38.3611 28.8801 44.1985 28.8801C45.414 28.8801 46.2689 29.4545 46.5762 30.4429C47.0036 31.8322 46.0285 33.2615 44.5591 33.3282C43.9313 33.355 43.3035 33.355 42.689 33.3282C42.3284 33.3149 42.2081 33.4217 42.2215 33.7958C42.2482 35.0514 42.2348 36.2937 42.2348 37.5493C42.2215 40.3545 40.3781 42.2246 37.5729 42.2246C30.3196 42.2246 23.0663 42.2246 15.8129 42.2246C13.0078 42.2246 11.1644 40.3545 11.151 37.5493C11.151 36.2803 11.1377 35.0113 11.151 33.7423C11.151 33.4217 11.0575 33.3149 10.7369 33.3282C10.1358 33.355 9.52138 33.3416 8.92027 33.3282C7.71806 33.3015 6.78301 32.4199 6.70286 31.2711C6.62271 30.0823 7.4509 29.0804 8.65311 28.9068C8.89355 28.8667 9.134 28.8801 9.37444 28.8801C15.145 28.8801 20.9157 28.8801 26.6996 28.8801Z" fill="#FACA21"/>
<path d="M26.6996 11.1134C30.3463 11.1134 33.993 11.1 37.6397 11.1134C39.9373 11.1267 41.6738 12.5026 42.1413 14.6666C42.1814 14.8402 42.2081 15.0139 42.2081 15.1875C42.2215 17.5652 42.2348 19.9429 42.2081 22.3206C42.1948 23.4427 41.3532 24.2842 40.2178 24.4312C39.2026 24.5514 38.1874 23.8568 37.8802 22.8416C37.8 22.5477 37.8 22.2538 37.8 21.96C37.8 19.9964 37.7867 18.0327 37.8134 16.0825C37.8134 15.6417 37.6798 15.5348 37.2523 15.5348C30.2127 15.5482 23.1598 15.5482 16.1202 15.5348C15.6393 15.5348 15.5591 15.6951 15.5591 16.1359C15.5725 18.1797 15.5725 20.2368 15.5591 22.2806C15.5458 23.1755 15.105 23.8434 14.3035 24.2308C13.502 24.6182 12.7139 24.5247 12.0059 23.9904C11.485 23.5896 11.1644 23.0553 11.151 22.3874C11.1377 19.9696 11.0976 17.5652 11.1777 15.1474C11.2445 13.0503 13.1414 11.1935 15.2653 11.1534C17.87 11.1 20.4748 11.1267 23.0796 11.1267C24.2685 11.1134 25.484 11.1134 26.6996 11.1134Z" fill="#FACA21"/>
<path d="M10.9504 53.3371C9.56122 53.3371 8.172 53.3371 6.78278 53.3371C2.94907 53.3237 0.0236893 50.3984 0.0103314 46.578C0.0103314 43.6393 -0.00302652 40.7139 0.0103314 37.7752C0.0103314 36.6397 0.798447 35.7581 1.92051 35.5845C2.94907 35.4242 3.99098 36.052 4.32493 37.0672C4.43179 37.4011 4.45851 37.7484 4.45851 38.0957C4.45851 40.8608 4.45851 43.6126 4.45851 46.3776C4.45851 48.034 5.31341 48.8889 6.94308 48.8889C9.76159 48.8889 12.5667 48.8889 15.3853 48.8889C16.5741 48.8889 17.4691 49.5568 17.7095 50.5854C18.0435 52.0013 17.0283 53.3104 15.5723 53.3371C14.0361 53.3505 12.5 53.3237 10.9504 53.3371Z" fill="#FACA21"/>
</svg>
