<svg width="64" height="46" viewBox="0 0 64 46" fill="none" xmlns="http://www.w3.org/2000/svg">
<path d="M52.8972 45.3768C52.7503 45.3768 52.6167 45.3768 52.4698 45.3768C52.3362 45.35 52.2026 45.2966 52.0557 45.2832C47.9147 44.9627 45.0027 42.8655 43.1861 39.1787C42.0506 36.8945 40.8885 34.6236 39.7798 32.3395C39.5661 31.8853 39.2989 31.7517 38.818 31.7517C34.1161 31.7651 29.4141 31.7651 24.7121 31.7517C24.2179 31.7517 23.9641 31.8986 23.7503 32.3395C22.5748 34.7572 21.3593 37.1617 20.1437 39.5527C18.848 42.1041 16.8443 43.8807 14.1059 44.8024C13.1175 45.1363 12.0755 45.1764 11.0603 45.3634C10.9134 45.3634 10.7798 45.3634 10.6329 45.3634C10.2989 45.2165 9.93828 45.2699 9.59097 45.2165C5.45003 44.6287 2.40442 42.5582 0.721329 38.6444C0.360666 37.8028 0.240442 36.8811 0 35.9995C0 35.1446 0 34.3031 0 33.4482C0.120221 32.5665 0.240452 31.6849 0.360673 30.7899C0.94842 26.6356 1.58959 22.4813 2.12391 18.3137C3.51313 7.66743 12.2091 0 22.9622 0C28.9198 0 34.8774 0 40.8351 0C42.3044 0 43.7605 0.146936 45.2031 0.427452C53.4182 2.07047 60.2441 9.36388 61.2994 17.6324C61.7402 21.052 62.2077 24.4583 62.6752 27.8779C62.9557 29.9617 63.3832 32.0322 63.5168 34.1161C63.8641 39.2856 60.5246 43.6803 55.4887 44.9359C54.6204 45.1764 53.7521 45.1897 52.8972 45.3768ZM31.6849 4.55504C28.5458 4.55504 25.3934 4.52832 22.2543 4.5684C14.8807 4.63519 8.17503 10.2188 6.9461 17.4855C6.0912 22.5348 5.50345 27.6241 4.80884 32.7001C4.67526 33.6352 4.43483 34.5569 4.56841 35.5053C4.96914 38.257 7.03961 40.3542 9.81805 40.8084C12.5965 41.2759 14.8807 40.0737 16.2031 37.4422C17.6725 34.5301 19.1285 31.6181 20.5711 28.7061C21.0788 27.6909 21.8268 27.21 22.9889 27.21C28.8263 27.2367 34.6637 27.2367 40.5011 27.21C41.73 27.21 42.5583 27.7043 43.0926 28.7996C44.5352 31.725 45.9912 34.6236 47.4606 37.5357C48.783 40.1405 51.2142 41.2892 54.0727 40.6881C57.1451 40.047 59.3625 37.1216 58.935 34.2363C58.1469 28.7729 57.3989 23.2962 56.4371 17.8595C55.0612 10.0986 48.5826 4.5684 40.6748 4.54168C37.696 4.55504 34.6904 4.55504 31.6849 4.55504Z" fill="#FACA21"/>
<path d="M20.3707 9.09684C21.7065 9.08348 22.6148 9.92503 22.6682 11.2608C22.6949 11.7551 22.735 12.2627 22.6682 12.7435C22.5614 13.5183 22.8953 13.7187 23.6033 13.6385C24.0708 13.5851 24.5517 13.6118 25.0192 13.6385C26.355 13.6786 27.2233 14.5736 27.2233 15.896C27.2233 17.2184 26.3684 18.1134 25.0192 18.1535C24.4983 18.1668 23.9773 18.1936 23.4563 18.1535C22.8686 18.1001 22.5881 18.2336 22.6682 18.9015C22.735 19.4358 22.6949 19.9835 22.6816 20.5312C22.6282 21.8536 21.7065 22.7085 20.384 22.6952C19.0883 22.6818 18.2067 21.8269 18.1533 20.5312C18.1265 19.9702 18.1132 19.3958 18.1533 18.8347C18.1933 18.3271 18.0731 18.1001 17.5121 18.1535C16.9511 18.2069 16.3767 18.1802 15.8156 18.1668C14.4798 18.1268 13.6116 17.2318 13.6116 15.896C13.6116 14.5736 14.4665 13.6786 15.8156 13.6385C16.3366 13.6252 16.8575 13.5984 17.3785 13.6385C17.9663 13.692 18.2468 13.5584 18.1666 12.8905C18.0998 12.3562 18.1399 11.8085 18.1533 11.2608C18.1933 9.95174 19.0749 9.11019 20.3707 9.09684Z" fill="#FACA21"/>
<path d="M45.3768 11.341C45.3902 12.6901 44.4819 13.6251 43.1327 13.6251C41.7836 13.6385 40.8485 12.7302 40.8485 11.381C40.8352 10.0185 41.7435 9.11018 43.0927 9.09683C44.4418 9.08347 45.3635 9.9918 45.3768 11.341Z" fill="#FACA21"/>
<path d="M40.8351 15.9093C40.8217 17.2585 39.9001 18.1668 38.5509 18.1535C37.2018 18.1401 36.2934 17.2184 36.3068 15.8693C36.3201 14.5201 37.2419 13.6118 38.591 13.6251C39.9401 13.6385 40.8485 14.5602 40.8351 15.9093Z" fill="#FACA21"/>
<path d="M49.9186 15.922C49.9052 17.2712 48.9836 18.1795 47.6344 18.1662C46.2853 18.1528 45.3769 17.2311 45.3903 15.882C45.4036 14.5328 46.3253 13.6245 47.6745 13.6378C49.0103 13.6378 49.9186 14.5595 49.9186 15.922Z" fill="#FACA21"/>
<path d="M43.0925 22.694C41.7433 22.694 40.835 21.7723 40.835 20.4098C40.835 19.0607 41.7567 18.1523 43.1192 18.1523C44.4683 18.1523 45.3766 19.074 45.3766 20.4365C45.3633 21.799 44.4416 22.7074 43.0925 22.694Z" fill="#FACA21"/>
</svg>
