<svg width="202" height="197" viewBox="0 0 202 197" fill="none" xmlns="http://www.w3.org/2000/svg">
<path fill-rule="evenodd" clip-rule="evenodd" d="M198.753 176.272C198.753 187.547 154.422 196.688 99.7363 196.688C45.0514 196.688 0.720215 187.547 0.720215 176.272C0.720215 164.995 45.0514 155.855 99.7363 155.855C154.422 155.855 198.753 164.995 198.753 176.272Z" fill="#FFDDDD"/>
<path fill-rule="evenodd" clip-rule="evenodd" d="M12.4621 180.055C12.5835 180.055 12.682 179.956 12.682 179.835C12.682 179.388 13.1235 179.034 13.5905 179.209C13.692 179.246 13.8046 179.206 13.8587 179.113C13.9809 178.901 14.1977 178.774 14.4378 178.774C14.7412 178.774 15.0072 178.981 15.0846 179.276C15.1049 179.354 15.1651 179.414 15.2425 179.434C15.319 179.454 15.4017 179.43 15.4566 179.372C15.585 179.238 15.757 179.163 15.9412 179.163C16.3114 179.163 16.6131 179.465 16.6131 179.835C16.6131 179.956 16.7116 180.055 16.833 180.055C16.9543 180.055 17.0528 179.956 17.0528 179.835C17.0528 179.222 16.5542 178.724 15.9412 178.724C15.7429 178.724 15.5534 178.775 15.3863 178.872C15.1893 178.545 14.8327 178.334 14.4378 178.334C14.1032 178.334 13.787 178.489 13.5777 178.747C12.886 178.601 12.2423 179.148 12.2423 179.835C12.2423 179.956 12.3408 180.055 12.4621 180.055ZM163.406 191.685C145.623 194.769 123.012 196.468 99.7364 196.468C45.26 196.468 0.93972 187.408 0.93972 176.271C0.93972 176.15 0.841662 176.051 0.71986 176.051C0.598497 176.051 0.5 176.15 0.5 176.271C0.5 181.841 10.862 187.044 29.6767 190.924C48.393 194.783 73.2736 196.908 99.7364 196.908C123.036 196.908 145.674 195.207 163.481 192.118C163.6 192.098 163.68 191.984 163.66 191.864C163.639 191.744 163.525 191.661 163.406 191.685ZM37.56 177.132C37.6814 177.132 37.7799 177.033 37.7799 176.912C37.7799 176.464 38.2244 176.111 38.6879 176.285C38.7882 176.324 38.9025 176.283 38.9566 176.19C39.0788 175.978 39.2952 175.851 39.5357 175.851C39.8391 175.851 40.1051 176.058 40.1825 176.353C40.2027 176.43 40.263 176.49 40.3399 176.51C40.4178 176.529 40.4991 176.507 40.5541 176.449C40.6829 176.314 40.8553 176.24 41.0391 176.24C41.4093 176.24 41.711 176.541 41.711 176.912C41.711 177.033 41.809 177.132 41.9308 177.132C42.0522 177.132 42.1507 177.033 42.1507 176.912C42.1507 176.299 41.6521 175.8 41.0391 175.8C40.8408 175.8 40.6513 175.851 40.4846 175.949C40.2872 175.622 39.9306 175.411 39.5357 175.411C39.2011 175.411 38.8849 175.566 38.676 175.825C37.9852 175.674 37.3402 176.224 37.3402 176.912C37.3402 177.033 37.4382 177.132 37.56 177.132ZM165.064 186.649C164.866 186.649 164.676 186.7 164.509 186.798C164.312 186.471 163.956 186.26 163.561 186.26C163.226 186.26 162.911 186.415 162.701 186.673C162.01 186.523 161.365 187.073 161.365 187.76C161.365 187.882 161.463 187.98 161.585 187.98C161.707 187.98 161.805 187.882 161.805 187.76C161.805 187.313 162.249 186.959 162.713 187.134C162.812 187.172 162.928 187.132 162.982 187.039C163.104 186.826 163.32 186.699 163.561 186.699C163.864 186.699 164.13 186.906 164.207 187.202C164.228 187.279 164.288 187.339 164.365 187.359C164.442 187.379 164.524 187.355 164.579 187.298C164.708 187.163 164.88 187.088 165.064 187.088C165.435 187.088 165.736 187.39 165.736 187.76C165.736 187.882 165.834 187.98 165.956 187.98C166.077 187.98 166.175 187.882 166.175 187.76C166.175 187.147 165.677 186.649 165.064 186.649ZM168.172 177.312C167.974 177.312 167.784 177.363 167.618 177.46C167.421 177.133 167.064 176.923 166.669 176.923C166.335 176.923 166.018 177.077 165.809 177.335C165.116 177.19 164.474 177.736 164.474 178.423C164.474 178.544 164.572 178.643 164.694 178.643C164.815 178.643 164.913 178.544 164.913 178.423C164.913 177.976 165.354 177.621 165.822 177.797C165.923 177.835 166.036 177.794 166.09 177.701C166.212 177.489 166.429 177.362 166.669 177.362C166.972 177.362 167.238 177.569 167.316 177.865C167.336 177.942 167.397 178.002 167.474 178.022C167.551 178.042 167.633 178.018 167.688 177.96C167.816 177.826 167.988 177.751 168.172 177.751C168.543 177.751 168.845 178.053 168.845 178.423C168.845 178.544 168.943 178.643 169.064 178.643C169.186 178.643 169.284 178.544 169.284 178.423C169.284 177.81 168.785 177.312 168.172 177.312ZM142.353 173.755C142.474 173.755 142.573 173.657 142.573 173.535C142.573 173.088 143.014 172.734 143.481 172.909C143.582 172.946 143.695 172.906 143.749 172.813C143.872 172.601 144.088 172.475 144.328 172.475C144.632 172.475 144.898 172.681 144.975 172.977C144.995 173.054 145.056 173.115 145.133 173.134C145.21 173.155 145.292 173.13 145.347 173.073C145.476 172.938 145.648 172.863 145.832 172.863C146.202 172.863 146.504 173.165 146.504 173.535C146.504 173.657 146.602 173.755 146.724 173.755C146.845 173.755 146.943 173.657 146.943 173.535C146.943 172.922 146.445 172.424 145.832 172.424C145.633 172.424 145.444 172.476 145.277 172.572C145.08 172.245 144.723 172.035 144.328 172.035C143.994 172.035 143.678 172.19 143.468 172.448C142.775 172.302 142.133 172.848 142.133 173.535C142.133 173.657 142.231 173.755 142.353 173.755ZM115.622 190.498C115.744 190.498 115.842 190.399 115.842 190.278C115.842 189.831 116.283 189.477 116.75 189.652C116.851 189.688 116.965 189.649 117.018 189.556C117.141 189.344 117.357 189.217 117.598 189.217C117.901 189.217 118.167 189.424 118.245 189.719C118.265 189.796 118.325 189.856 118.402 189.876C118.479 189.896 118.561 189.873 118.616 189.815C118.745 189.681 118.917 189.606 119.101 189.606C119.471 189.606 119.773 189.907 119.773 190.278C119.773 190.399 119.871 190.498 119.993 190.498C120.114 190.498 120.212 190.399 120.212 190.278C120.212 189.665 119.714 189.167 119.101 189.167C118.902 189.167 118.713 189.218 118.546 189.315C118.349 188.988 117.993 188.777 117.598 188.777C117.263 188.777 116.947 188.932 116.738 189.19C116.045 189.045 115.402 189.591 115.402 190.278C115.402 190.399 115.5 190.498 115.622 190.498ZM66.0314 186.157C65.8344 185.83 65.4778 185.619 65.083 185.619C64.7483 185.619 64.4322 185.775 64.2229 186.033C63.5299 185.887 62.8874 186.433 62.8874 187.12C62.8874 187.241 62.9855 187.339 63.1073 187.339C63.2287 187.339 63.3272 187.241 63.3272 187.12C63.3267 186.673 63.7682 186.318 64.2356 186.494C64.3368 186.531 64.4498 186.491 64.5039 186.398C64.6261 186.186 64.8429 186.059 65.083 186.059C65.3859 186.059 65.652 186.266 65.7298 186.562C65.75 186.639 65.8103 186.699 65.8877 186.719C65.9646 186.739 66.0468 186.715 66.1018 186.657C66.2302 186.522 66.4021 186.448 66.5859 186.448C66.9566 186.448 67.2583 186.75 67.2583 187.12C67.2583 187.241 67.3563 187.339 67.4781 187.339C67.5995 187.339 67.698 187.241 67.698 187.12C67.698 186.507 67.1989 186.008 66.5859 186.008C66.3881 186.008 66.1985 186.06 66.0314 186.157ZM57.7076 158C57.7146 158 57.7216 158 57.7291 157.999C70.9176 156.722 85.0511 156.075 99.7364 156.075C99.8578 156.075 99.9563 155.976 99.9563 155.855C99.9563 155.733 99.8578 155.635 99.7364 155.635C85.037 155.635 70.8895 156.283 57.6864 157.561C57.5655 157.573 57.4771 157.68 57.489 157.801C57.5 157.915 57.5959 158 57.7076 158ZM105.929 163.062C106.05 163.062 106.149 162.964 106.149 162.842C106.149 162.396 106.59 162.042 107.058 162.217C107.159 162.253 107.272 162.214 107.326 162.121C107.448 161.908 107.665 161.782 107.905 161.782C108.208 161.782 108.474 161.988 108.551 162.284C108.572 162.361 108.632 162.421 108.709 162.441C108.786 162.46 108.868 162.437 108.923 162.38C109.052 162.245 109.224 162.171 109.408 162.171C109.778 162.171 110.08 162.472 110.08 162.842C110.08 162.964 110.178 163.062 110.3 163.062C110.421 163.062 110.52 162.964 110.52 162.842C110.52 162.23 110.021 161.731 109.408 161.731C109.21 161.731 109.02 161.783 108.854 161.88C108.657 161.553 108.3 161.342 107.905 161.342C107.57 161.342 107.254 161.497 107.045 161.755C106.354 161.61 105.709 162.155 105.709 162.842C105.709 162.964 105.808 163.062 105.929 163.062Z" fill="black"/>
<path fill-rule="evenodd" clip-rule="evenodd" d="M134.337 84.0352H17.0468V113.358H53.7V92.3221H134.337V84.0352Z" fill="#83BB9E"/>
<path fill-rule="evenodd" clip-rule="evenodd" d="M134.337 83.8154C134.215 83.8154 134.117 83.9139 134.117 84.0353V92.2084H17.2666V84.0353C17.2666 83.9139 17.1686 83.8154 17.0468 83.8154C16.9254 83.8154 16.8269 83.9139 16.8269 84.0353V166.797C16.8269 166.918 16.9254 167.017 17.0468 167.017C17.1686 167.017 17.2666 166.918 17.2666 166.797V92.6481H134.117V166.797C134.117 166.918 134.215 167.017 134.337 167.017C134.458 167.017 134.557 166.918 134.557 166.797V84.0353C134.557 83.9139 134.458 83.8154 134.337 83.8154ZM27.9971 97.2014H42.9621V96.4728H27.9971V97.2014ZM43.1819 96.033H27.7772C27.6559 96.033 27.5574 96.1315 27.5574 96.2529V97.4212C27.5574 97.543 27.6559 97.6411 27.7772 97.6411H43.1819C43.3038 97.6411 43.4018 97.543 43.4018 97.4212V96.2529C43.4018 96.1315 43.3038 96.033 43.1819 96.033Z" fill="black"/>
<path fill-rule="evenodd" clip-rule="evenodd" d="M19.3104 84.0537H25.2049V60.041H19.3104V84.0537Z" fill="#E2A2B5"/>
<path fill-rule="evenodd" clip-rule="evenodd" d="M25.2048 84.0538H31.0993V65.3652H25.2048V84.0538Z" fill="#94B1EB"/>
<path fill-rule="evenodd" clip-rule="evenodd" d="M31.0994 65.1455C30.9776 65.1455 30.8796 65.244 30.8796 65.3654V83.834H25.4249V69.0819C25.4249 68.9605 25.3264 68.862 25.205 68.862C25.0832 68.862 24.9851 68.9605 24.9851 69.0819V83.834H19.3106C19.1892 83.834 19.0907 83.9325 19.0907 84.0539C19.0907 84.1757 19.1892 84.2738 19.3106 84.2738H31.0994C31.2208 84.2738 31.3193 84.1757 31.3193 84.0539V65.3654C31.3193 65.244 31.2208 65.1455 31.0994 65.1455Z" fill="black"/>
<path fill-rule="evenodd" clip-rule="evenodd" d="M198.286 84.9209C197.422 86.4323 196.411 87.3033 195.331 87.3033C192.171 87.3033 189.601 79.8593 189.601 70.7092C189.601 61.5595 192.171 54.1155 195.331 54.1155C198.49 54.1155 201.06 61.5595 201.06 70.7092C201.06 76.6265 199.985 81.8266 198.371 84.7653C198.322 84.8027 198.29 84.8576 198.286 84.9209ZM195.331 53.6758C191.871 53.6758 189.161 61.1576 189.161 70.7092C189.161 80.2612 191.871 87.7431 195.331 87.7431C196.427 87.7431 197.447 86.9907 198.33 85.6606C198.84 93.8525 197.41 105.265 188.163 114.512C188.078 114.599 188.078 114.737 188.163 114.823C188.206 114.866 188.263 114.888 188.319 114.888C188.375 114.888 188.431 114.866 188.474 114.823C198.075 105.223 199.353 93.3284 198.725 85.0089C200.408 81.9973 201.5 76.7716 201.5 70.7092C201.5 61.1576 198.79 53.6758 195.331 53.6758ZM188.539 113.839C188.539 113.717 188.44 113.619 188.319 113.619H140.793C140.671 113.619 140.573 113.717 140.573 113.839V119.894C140.573 120.016 140.671 120.114 140.793 120.114C140.914 120.114 141.013 120.016 141.013 119.894V114.059H188.319C188.44 114.059 188.539 113.96 188.539 113.839ZM178.576 159.892L165.803 151.654V115.456C165.803 115.339 165.705 115.245 165.583 115.245C165.461 115.245 165.363 115.339 165.363 115.456V151.654L152.515 159.94C152.111 159.782 151.669 159.694 151.205 159.694C149.289 159.694 147.735 161.185 147.735 163.025C147.735 164.866 149.289 166.357 151.205 166.357C153.122 166.357 154.676 164.866 154.676 163.025C154.676 161.803 153.988 160.738 152.967 160.158L165.363 152.163V159.704C163.55 159.814 162.113 161.257 162.113 163.025C162.113 164.866 163.667 166.357 165.583 166.357C167.5 166.357 169.054 164.866 169.054 163.025C169.054 161.256 167.617 159.813 165.803 159.704V152.163L178.099 160.093C177.015 160.657 176.278 161.758 176.278 163.025C176.278 164.866 177.832 166.357 179.748 166.357C181.666 166.357 183.219 164.866 183.219 163.025C183.219 161.185 181.666 159.694 179.748 159.694C179.337 159.694 178.943 159.766 178.576 159.892Z" fill="black"/>
<path fill-rule="evenodd" clip-rule="evenodd" d="M140.792 120.334H188.319V114.279H140.792V120.334Z" fill="#94B1EB"/>
<path fill-rule="evenodd" clip-rule="evenodd" d="M74.0872 62.3162C74.0872 63.8557 72.8393 65.1036 71.2998 65.1036C69.7604 65.1036 68.5125 63.8557 68.5125 62.3162C68.5125 60.7767 69.7604 59.5288 71.2998 59.5288C72.8393 59.5288 74.0872 60.7767 74.0872 62.3162Z" fill="#F9E272"/>
<path fill-rule="evenodd" clip-rule="evenodd" d="M59.4674 62.3164H81.8698C81.8698 56.6189 77.4946 51.946 71.9207 51.4676C71.9365 51.3691 71.951 51.2702 71.951 51.1673C71.951 50.1221 71.1037 49.2747 70.0585 49.2747C69.9358 49.2747 69.8162 49.2883 69.7001 49.3108L57.4517 40.023C57.4732 39.8709 57.4882 39.7165 57.4882 39.5587C57.4882 37.7567 56.0279 36.2964 54.2264 36.2964C52.4248 36.2964 50.9645 37.7567 50.9645 39.5587C50.9645 40.7279 51.5819 41.7507 52.5066 42.3267L44.6937 81.9081H37.4774C36.2022 81.9081 35.1685 82.9414 35.1685 84.217H56.4034C56.4034 82.9414 55.3696 81.9081 54.0944 81.9081H46.7929L54.5117 42.806C55.2724 42.7396 55.9571 42.4129 56.4782 41.9151L68.2024 50.8054C68.1795 50.9228 68.1659 51.0433 68.1659 51.1673C68.1659 51.3317 68.1932 51.4878 68.2327 51.6395C63.2362 52.6293 59.4674 57.0296 59.4674 62.3164Z" fill="#EC7068"/>
<path fill-rule="evenodd" clip-rule="evenodd" d="M50.8151 81.6362H37.4776C37.3276 81.6362 37.2058 81.7575 37.2058 81.9079C37.2058 82.0583 37.3276 82.1797 37.4776 82.1797H50.8151C50.9651 82.1797 51.0869 82.0583 51.0869 81.9079C51.0869 81.7575 50.9651 81.6362 50.8151 81.6362ZM81.8699 62.0765H59.7102C59.8202 57.1816 63.2913 52.9686 68.0702 51.9208C68.3758 52.7246 69.1484 53.3002 70.0586 53.3002C70.191 53.3002 70.2987 53.1924 70.2987 53.0601C70.2987 52.9273 70.191 52.82 70.0586 52.82C69.1471 52.82 68.4057 52.0782 68.4057 51.1671C68.4057 50.256 69.1471 49.5146 70.0586 49.5146C70.191 49.5146 70.2987 49.4073 70.2987 49.2745C70.2987 49.1422 70.191 49.0345 70.0586 49.0345C68.8823 49.0345 67.926 49.9913 67.926 51.1671C67.926 51.266 67.9418 51.3601 67.955 51.4556C62.8859 52.5724 59.2274 57.0989 59.2274 62.3162C59.2274 62.449 59.3347 62.5563 59.4675 62.5563H81.8699C82.0027 62.5563 82.11 62.449 82.11 62.3162C82.11 62.1838 82.0027 62.0765 81.8699 62.0765ZM57.4883 39.3188C57.3555 39.3188 57.2482 39.4261 57.2482 39.5589C57.2482 41.225 55.8926 42.5807 54.2265 42.5807C52.5599 42.5807 51.2043 41.225 51.2043 39.5589C51.2043 39.4261 51.097 39.3188 50.9642 39.3188C50.8318 39.3188 50.7241 39.4261 50.7241 39.5589C50.7241 41.4897 52.2952 43.0604 54.2265 43.0604C56.1573 43.0604 57.7284 41.4897 57.7284 39.5589C57.7284 39.4261 57.6211 39.3188 57.4883 39.3188Z" fill="black"/>
<path fill-rule="evenodd" clip-rule="evenodd" d="M107.924 164.058C110.561 162.442 122.719 157.922 122.995 154.241C123.425 148.528 123.41 139.395 123.334 132.825C126.876 133.199 130.953 133.588 135.29 133.924L130.382 154.329C130.144 156.17 129.825 156.347 131.826 160.523C132.018 160.923 132.14 161.287 132.21 161.622C136.618 159.53 142.099 156.699 142.284 154.241C142.713 148.528 142.698 139.395 142.622 132.825C146.164 133.199 150.242 133.588 154.579 133.924L149.67 154.329C149.433 156.17 149.113 156.347 151.115 160.523C153.012 164.479 148.371 165.105 148.371 165.105L127.528 165.158C127.444 165.158 127.365 165.141 127.293 165.11L108.239 165.158C107.91 165.159 107.643 164.892 107.643 164.564C107.643 164.357 107.748 164.166 107.924 164.058Z" fill="#F4D4B8"/>
<path fill-rule="evenodd" clip-rule="evenodd" d="M180.362 84.8853C180.362 84.8853 184.734 101.409 182.786 107.036C181.031 112.105 177.331 115.625 160.54 114.236C160.54 114.236 154.164 148.421 154.164 148.73C154.164 148.994 143.714 147.905 140.678 147.583C140.224 147.534 139.892 147.132 139.931 146.676L143.135 113.258L140.666 113.361L134.516 146.949C134.444 147.385 134.047 147.691 133.608 147.649L120.803 146.424C120.348 146.38 120.011 145.979 120.047 145.523L123.573 103.969C123.984 98.6683 128.455 94.6066 133.77 94.7051L140.975 94.8383L141.798 84.8853H180.362Z" fill="#F0BE91"/>
<path fill-rule="evenodd" clip-rule="evenodd" d="M107.751 165.135H110.997V161.793C110.997 161.572 111.133 161.371 111.339 161.29L114.118 160.187C114.474 160.046 114.86 160.308 114.86 160.692V165.135H130.286V161.793C130.286 161.572 130.421 161.371 130.628 161.29L133.406 160.187C133.762 160.046 134.149 160.308 134.149 160.692V165.135H150.804C151.35 165.135 151.792 165.577 151.792 166.122V166.294C151.792 166.839 151.35 167.281 150.804 167.281H107.751C107.206 167.281 106.764 166.839 106.764 166.294V166.122C106.764 165.577 107.206 165.135 107.751 165.135Z" fill="#83BB9E"/>
<path fill-rule="evenodd" clip-rule="evenodd" d="M114.86 160.471C114.739 160.471 114.64 160.57 114.64 160.691V165.355H126.115C125.942 165.564 125.833 165.829 125.833 166.122V166.294C125.833 166.416 125.931 166.514 126.053 166.514C126.174 166.514 126.272 166.416 126.272 166.294V166.122C126.272 165.699 126.617 165.355 127.039 165.355H130.285C130.407 165.355 130.505 165.257 130.505 165.135C130.505 165.014 130.407 164.915 130.285 164.915H127.039C127.029 164.915 127.02 164.918 127.009 164.918C127.008 164.917 127.007 164.916 127.005 164.915H115.08V160.691C115.08 160.57 114.982 160.471 114.86 160.471ZM142.3 154.021C142.179 154.013 142.073 154.104 142.065 154.225C141.915 156.209 137.867 158.578 134.058 160.478C134.059 160.482 134.058 160.487 134.059 160.491C133.982 160.525 133.928 160.601 133.928 160.691V165.355H150.804C151.227 165.355 151.571 165.699 151.571 166.122C151.571 166.243 151.67 166.342 151.791 166.342C151.912 166.342 152.011 166.243 152.011 166.122C152.011 165.457 151.47 164.915 150.804 164.915H134.368V160.815C138.318 158.842 142.338 156.447 142.503 154.257C142.512 154.136 142.421 154.031 142.3 154.021ZM130.221 162.313C128.825 162.967 127.719 163.489 127.097 163.87C126.856 164.018 126.712 164.277 126.712 164.564C126.712 164.685 126.81 164.784 126.932 164.784C127.053 164.784 127.152 164.685 127.152 164.564C127.152 164.431 127.217 164.312 127.327 164.245C127.914 163.886 129.025 163.359 130.326 162.75C130.325 162.73 130.329 162.71 130.329 162.69C130.325 162.595 130.325 162.501 130.331 162.406C130.295 162.375 130.253 162.348 130.221 162.313ZM146.563 155.504L146.523 155.509C146.405 155.537 146.332 155.655 146.359 155.774L146.526 156.49C146.698 157.227 146.482 157.986 145.947 158.52C145.861 158.606 145.861 158.745 145.947 158.832C145.99 158.874 146.046 158.896 146.102 158.896C146.159 158.896 146.215 158.874 146.258 158.832C146.901 158.189 147.161 157.276 146.955 156.39L146.788 155.673C146.759 155.555 146.644 155.483 146.523 155.509L146.563 155.504ZM127.275 155.504L127.235 155.509C127.117 155.537 127.043 155.655 127.071 155.774L127.238 156.49C127.41 157.227 127.194 157.986 126.659 158.52C126.573 158.606 126.573 158.745 126.659 158.832C126.702 158.874 126.758 158.896 126.814 158.896C126.87 158.896 126.927 158.874 126.97 158.832C127.613 158.189 127.873 157.276 127.667 156.39L127.499 155.673C127.471 155.555 127.356 155.483 127.235 155.509L127.275 155.504ZM161.132 104.74L160.323 110.246C159.258 116.614 153.944 148.418 153.944 148.73C153.944 148.851 154.042 148.95 154.164 148.95C154.285 148.95 154.383 148.851 154.383 148.73C154.429 148.232 158.572 123.383 160.757 110.315L160.758 110.31L161.567 104.804C161.584 104.684 161.501 104.572 161.381 104.555C161.258 104.536 161.149 104.62 161.132 104.74ZM141.272 104.734L140.449 109.365C140.449 109.367 140.449 109.367 140.449 109.367L134.299 146.913C134.279 147.033 134.36 147.146 134.48 147.165C134.492 147.168 134.504 147.168 134.516 147.168C134.622 147.168 134.715 147.092 134.733 146.984L140.883 109.439L141.706 104.811C141.727 104.691 141.647 104.577 141.527 104.556C141.407 104.534 141.294 104.615 141.272 104.734ZM166.025 94.0291L151.958 94.411C147.734 94.5255 144.202 97.8966 143.742 102.253L143.018 109.113C142.962 109.149 142.923 109.211 142.917 109.282L142.55 113.562L142.502 114.008C142.5 114.031 142.501 114.053 142.505 114.074L141.509 125.698C141.499 125.819 141.588 125.926 141.709 125.936C141.715 125.936 141.722 125.937 141.728 125.937C141.841 125.937 141.937 125.851 141.947 125.736L143.023 113.192L144.171 102.302C144.607 98.1667 147.96 94.9669 151.969 94.8582L166.036 94.4763C166.155 94.4727 166.249 94.3703 166.246 94.2464C166.243 94.123 166.123 94.0322 166.025 94.0291ZM141.798 84.665C141.684 84.665 141.588 84.7521 141.579 84.866L140.779 94.5425L138.892 94.5129C138.84 94.5107 138.784 94.5353 138.741 94.5759L133.775 94.4849C128.353 94.3824 123.773 98.5426 123.354 103.952C123.344 104.073 123.435 104.178 123.556 104.188C123.562 104.189 123.567 104.189 123.573 104.189C123.687 104.189 123.783 104.101 123.792 103.986C124.189 98.8702 128.472 94.9228 133.582 94.9228C133.644 94.9228 133.705 94.9233 133.766 94.9246L140.97 95.0578C141.028 95.0613 141.089 95.0337 141.132 94.9882L145.579 95.059H145.582C145.702 95.059 145.8 94.9627 145.802 94.8427C145.804 94.7213 145.707 94.6211 145.586 94.6193L141.219 94.5495L141.999 85.1048H180.362C180.483 85.1048 180.581 85.0063 180.581 84.8849C180.581 84.7635 180.483 84.665 180.362 84.665H141.798Z" fill="black"/>
<path fill-rule="evenodd" clip-rule="evenodd" d="M134.592 64.3596C135.083 65.7715 138.86 66.2143 141.757 66.3449C141.543 59.1652 141.268 52.525 141.268 52.525C141.268 52.525 133.783 62.0335 134.592 64.3596ZM183.621 59.3995C181.219 56.0854 177.277 53.5368 177.277 53.5368C177.277 53.5368 177.613 56.6957 178.107 60.9421C181.28 61.3268 185.094 61.4311 183.621 59.3995ZM155.429 34.2168L160.284 44.4332L166.455 34.4191C166.455 34.4191 169.733 34.9806 174.202 36.8881L175.679 37.5494C181.519 40.2902 188.854 45.2406 193.687 53.9118C202.859 70.3653 190.665 75.3992 179.956 75.3473C180.182 76.8753 180.404 78.2688 180.616 79.431C182.032 87.2197 180.616 87.5236 180.616 87.5236H141.976C141.976 87.5236 138.886 87.918 139.392 83.8717C139.506 82.9601 139.411 82.0931 139.392 79.431C121.818 81.1501 123.802 67.1452 123.802 67.1452C127.642 34.2168 155.429 34.2168 155.429 34.2168Z" fill="#94B1EB"/>
<path fill-rule="evenodd" clip-rule="evenodd" d="M140.636 47.7559L146.754 64.1192L146.78 64.1126H163.72V64.5523L147.948 67.3128H123.896L115.064 47.7559H140.636Z" fill="#F1EFEF"/>
<path fill-rule="evenodd" clip-rule="evenodd" d="M141.211 79.7685C141.269 79.7685 141.327 79.7623 141.385 79.7509C141.642 79.7008 141.839 79.5627 141.973 79.342C142.46 78.5364 141.941 76.7824 141.524 75.3726C141.456 75.1413 141.391 74.925 141.339 74.7342C141.307 74.6167 141.185 74.549 141.069 74.5802C140.951 74.6128 140.883 74.7342 140.915 74.8507C140.968 75.0446 141.033 75.2631 141.102 75.4975C141.453 76.683 141.984 78.4753 141.597 79.1146C141.528 79.2281 141.434 79.2932 141.3 79.3196C141.162 79.3455 141.038 79.3112 140.909 79.207C139.908 78.3922 139.27 74.0192 139.204 67.5087C139.202 67.3882 139.104 67.291 138.984 67.291H138.982C138.86 67.2923 138.763 67.3917 138.764 67.5131C138.804 71.4732 139.101 78.3025 140.632 79.5482C140.813 79.6946 141.007 79.7685 141.211 79.7685Z" fill="black"/>
<path fill-rule="evenodd" clip-rule="evenodd" d="M139.191 79.7556C139.695 79.7556 140.211 79.7485 140.742 79.7349C140.864 79.7314 140.96 79.6307 140.957 79.5093C140.953 79.3884 140.846 79.2917 140.731 79.2952C135.96 79.4201 132.357 78.9852 130.004 78.0055C129.891 77.9606 129.763 78.0116 129.716 78.1238C129.67 78.2359 129.723 78.3647 129.835 78.4113C131.981 79.3048 135.124 79.7556 139.191 79.7556Z" fill="black"/>
<path fill-rule="evenodd" clip-rule="evenodd" d="M147.264 66.9161C147.276 66.9161 147.289 66.9152 147.301 66.913L162.34 64.3736C162.46 64.3534 162.541 64.24 162.521 64.1204C162.5 64.0003 162.382 63.9207 162.267 63.9396L147.409 66.4491L140.618 47.5245C140.586 47.4374 140.503 47.3789 140.411 47.3789H114.839C114.764 47.3789 114.694 47.4167 114.654 47.4796C114.614 47.542 114.607 47.6212 114.638 47.6893L121.372 62.602C121.423 62.7128 121.553 62.7616 121.664 62.7119C121.774 62.6618 121.824 62.5316 121.773 62.4208L115.179 47.8186H140.256L147.057 66.7705C147.089 66.8589 147.173 66.9161 147.264 66.9161Z" fill="black"/>
<path fill-rule="evenodd" clip-rule="evenodd" d="M166.472 66.5648C166.544 66.5648 166.616 66.5292 166.657 66.4637C166.723 66.3613 166.693 66.2254 166.591 66.1599C164.533 64.8438 161.146 63.8527 161.003 63.8109C158.814 63.2757 152.195 63.5748 149.45 63.7282C149.372 63.7317 149.347 63.6816 149.338 63.6513C149.33 63.6262 149.319 63.5642 149.386 63.5224C151.463 62.2305 156.817 59.2703 161.656 59.6542C161.711 59.6599 167.69 60.2663 171.56 61.5006C171.678 61.5367 171.8 61.4733 171.837 61.3581C171.874 61.2425 171.81 61.1185 171.694 61.0815C167.779 59.8327 161.755 59.2228 161.695 59.2167C156.715 58.8179 151.268 61.8339 149.153 63.1487C148.935 63.2845 148.841 63.5396 148.919 63.7841C148.996 64.0277 149.225 64.1855 149.475 64.1671C152.2 64.0149 158.768 63.7163 160.89 64.2356C160.915 64.2436 164.35 65.2488 166.353 66.5301C166.39 66.5539 166.431 66.5648 166.472 66.5648Z" fill="black"/>
<path fill-rule="evenodd" clip-rule="evenodd" d="M150.47 64.0348C150.526 64.0348 150.583 64.0132 150.626 63.9706C153.368 61.2293 157.898 61.1946 157.943 61.1946C158.064 61.1946 158.163 61.0961 158.163 60.9747C158.163 60.8534 158.064 60.7549 157.943 60.7549C157.751 60.7549 153.188 60.7874 150.314 63.6592C150.229 63.7454 150.229 63.8844 150.314 63.9706C150.357 64.0132 150.414 64.0348 150.47 64.0348Z" fill="black"/>
<path fill-rule="evenodd" clip-rule="evenodd" d="M152.259 64.0346C152.341 64.0346 152.419 63.9884 152.457 63.9088C153.087 62.58 156.759 62.4103 158.121 62.4613C158.238 62.4621 158.344 62.3702 158.349 62.2489C158.353 62.1275 158.258 62.0259 158.136 62.0215C157.924 62.0158 152.942 61.8597 152.06 63.7206C152.008 63.8301 152.054 63.9611 152.164 64.0135C152.194 64.0275 152.227 64.0346 152.259 64.0346Z" fill="black"/>
<path fill-rule="evenodd" clip-rule="evenodd" d="M153.099 61.5111C153.241 61.508 153.332 61.4165 153.332 61.2912C153.332 61.1694 153.234 61.0714 153.112 61.0714H153.1C152.572 61.0714 152.281 61.0423 152.123 61.0146C154.14 59.7988 160.319 59.6212 160.383 59.6194C160.504 59.6159 160.599 59.5152 160.596 59.3934C160.593 59.2742 160.496 59.1797 160.377 59.1797H160.371C160.106 59.1872 153.867 59.367 151.82 60.6857C151.599 60.8278 151.511 60.9825 151.56 61.1461C151.627 61.377 151.902 61.5111 153.099 61.5111Z" fill="black"/>
<path fill-rule="evenodd" clip-rule="evenodd" d="M178.106 61.1619C178.113 61.1619 178.12 61.1614 178.126 61.161C178.247 61.1504 178.336 61.0436 178.326 60.9227C177.505 51.6402 176.968 48.975 176.962 48.9495C176.938 48.8299 176.82 48.7508 176.703 48.7785C176.584 48.8031 176.508 48.9188 176.532 49.0379C176.537 49.0634 177.07 51.7171 177.888 60.9614C177.898 61.0757 177.994 61.1619 178.106 61.1619Z" fill="black"/>
<path fill-rule="evenodd" clip-rule="evenodd" d="M173.666 75.0737C173.767 75.0737 173.865 75.0534 173.96 75.0121C175.9 74.1802 175.115 63.5662 174.939 61.4551L180.072 61.511C185.465 61.5778 188.742 59.6703 188.88 59.5889C188.985 59.5278 189.019 59.3933 188.958 59.2886C188.897 59.1831 188.762 59.1488 188.657 59.2099C188.625 59.2297 185.304 61.1324 180.078 61.0712L174.701 61.0128C174.636 61.0185 174.579 61.0378 174.537 61.0835C174.495 61.1288 174.474 61.1904 174.48 61.252C174.907 66.1179 175.097 74.0465 173.787 74.608C173.523 74.7236 173.168 74.4101 172.919 74.1274C172.174 73.2831 171.825 71.6918 171.881 69.3978C171.884 69.276 171.788 69.1753 171.667 69.1722H171.661C171.543 69.1722 171.445 69.2672 171.442 69.3863C171.383 71.7951 171.769 73.488 172.59 74.4185C172.974 74.8542 173.335 75.0737 173.666 75.0737Z" fill="black"/>
<path fill-rule="evenodd" clip-rule="evenodd" d="M179.54 75.4593C183.172 75.4593 185.972 74.9509 187.895 74.4255C190.991 73.5795 192.517 72.5329 192.58 72.4885C192.68 72.4195 192.705 72.2823 192.635 72.1829C192.567 72.0835 192.429 72.0593 192.33 72.1275C192.269 72.1697 186.146 76.293 173.812 74.6198C173.697 74.5979 173.581 74.6871 173.565 74.808C173.548 74.9281 173.632 75.0389 173.753 75.0552C175.869 75.3427 177.801 75.4593 179.54 75.4593Z" fill="black"/>
<path fill-rule="evenodd" clip-rule="evenodd" d="M151.042 68.9629C153.065 68.9629 156.278 68.5408 158.652 66.2178C158.739 66.1325 158.741 65.9935 158.655 65.9069C158.571 65.8198 158.432 65.819 158.344 65.9034C154.799 69.3737 149.253 68.4036 149.198 68.3922C149.074 68.3715 148.964 68.4498 148.942 68.569C148.92 68.6881 148.999 68.8029 149.118 68.8249C149.139 68.8284 149.902 68.9629 151.042 68.9629Z" fill="black"/>
<path fill-rule="evenodd" clip-rule="evenodd" d="M160.284 44.6532C160.36 44.6532 160.431 44.6136 160.472 44.5489L166.642 34.5348C166.706 34.4314 166.673 34.2956 166.57 34.2322C166.467 34.1694 166.331 34.2001 166.267 34.3039L160.309 43.9738L155.627 34.1228C155.575 34.0128 155.443 33.9662 155.334 34.0185C155.225 34.0709 155.178 34.2015 155.231 34.3114L160.086 44.5278C160.12 44.6004 160.192 44.6483 160.272 44.6527C160.276 44.6532 160.28 44.6532 160.284 44.6532Z" fill="black"/>
<path fill-rule="evenodd" clip-rule="evenodd" d="M151.107 21.5067C150.928 26.4865 155.865 30.6185 160.659 30.6185C165.453 30.6185 170.317 27.0463 170.526 21.9569C170.73 16.978 167.128 11.3896 163.528 10.9072C156.195 9.924 151.327 15.413 151.107 21.5067Z" fill="black"/>
<path fill-rule="evenodd" clip-rule="evenodd" d="M160.659 30.1786C165.048 30.1786 169.884 26.8679 170.086 21.9391C170.279 17.2464 166.878 11.7996 163.469 11.3427C162.921 11.2693 162.374 11.2319 161.842 11.2319C155.397 11.2319 151.727 16.5341 151.547 21.5223C151.474 23.5371 152.302 25.5461 153.877 27.1797C155.689 29.0573 158.224 30.1786 160.659 30.1786Z" fill="#F4D4B8"/>
<path fill-rule="evenodd" clip-rule="evenodd" d="M167.227 24.5569C169.197 24.4803 169.82 20.9516 168.333 21.0281C166.846 21.1051 166.905 22.6392 166.905 22.6392H165.908C166.636 20.3382 164.829 15.3157 164.829 15.3157C164.829 15.3157 157.796 17.8912 152.849 15.7783C152.849 15.7783 150.734 19.3391 151.139 22.3385C151.139 22.3385 143.304 14.2828 148.157 8.78719C153.01 3.29201 162.691 6.33398 162.691 6.33398C162.691 6.33398 161.888 -3.7101 171.077 1.49803C180.267 6.70616 169.773 9.27159 169.773 9.27159C169.773 9.27159 175.12 11.5276 174.404 19.1595C173.787 25.7311 167.654 27.8271 167.654 27.8271L167.227 24.5569Z" fill="#372310"/>
<path d="M165.036 15.2413L164.961 15.0332L164.642 15.1485L164.499 15.1968L164.275 15.2694C164.235 15.282 164.194 15.2949 164.152 15.3081C163.667 15.4584 163.123 15.6089 162.533 15.7493C160.481 16.237 158.406 16.4837 156.476 16.3598C155.167 16.2758 153.978 16.0212 152.936 15.5761C152.824 15.5284 152.695 15.5803 152.647 15.692C152.599 15.8036 152.651 15.9328 152.763 15.9805C153.854 16.4467 155.092 16.7116 156.448 16.7986C158.428 16.9257 160.544 16.6741 162.634 16.1771C163.235 16.0343 163.789 15.8812 164.282 15.728L164.638 15.6141L164.694 15.5952L164.778 15.8498L164.816 15.9655C164.961 16.4185 165.107 16.9102 165.243 17.4232C165.44 18.1685 165.6 18.8943 165.708 19.5755C165.899 20.781 165.918 21.7718 165.73 22.4658L165.698 22.5729L165.608 22.8591H167.133L167.125 22.6308C167.121 22.4398 167.159 22.1765 167.275 21.924C167.46 21.5213 167.793 21.2762 168.344 21.2477C168.841 21.2221 169.07 21.8357 168.863 22.6828C168.643 23.5788 168.043 24.2569 167.301 24.3314L167.218 24.3371L166.976 24.3466L167.422 27.5766C167.439 27.6969 167.55 27.7809 167.67 27.7643C167.777 27.7495 167.855 27.6602 167.859 27.556L167.858 27.5164L167.476 24.7506L167.521 24.7429C168.356 24.5769 168.999 23.8372 169.262 22.8931L169.29 22.7874C169.557 21.6984 169.207 20.7629 168.322 20.8085C167.601 20.8458 167.126 21.1944 166.875 21.7403C166.776 21.9557 166.722 22.1718 166.699 22.3659L166.694 22.4192H166.193L166.211 22.3347C166.348 21.6387 166.325 20.7496 166.172 19.7044L166.142 19.5066C166.031 18.8093 165.869 18.0694 165.668 17.3106C165.557 16.894 165.441 16.4913 165.323 16.1115L165.196 15.7133L165.036 15.2413Z" fill="black"/>
<path fill-rule="evenodd" clip-rule="evenodd" d="M159.716 27.5765C159.944 27.5765 160.136 27.3021 160.136 26.9776C160.136 26.6526 159.944 26.3783 159.716 26.3783C159.488 26.3783 159.296 26.6526 159.296 26.9776C159.296 27.3021 159.488 27.5765 159.716 27.5765ZM159.716 25.9385C160.19 25.9385 160.576 26.4046 160.576 26.9776C160.576 27.5501 160.19 28.0162 159.716 28.0162C159.241 28.0162 158.856 27.5501 158.856 26.9776C158.856 26.4046 159.241 25.9385 159.716 25.9385ZM157.716 23.5561C157.843 23.8239 158.192 23.9598 158.754 23.9598C159.316 23.9598 159.665 23.8239 159.792 23.5561C160.098 22.9124 159.261 21.5765 158.754 20.8998C158.247 21.5765 157.41 22.9124 157.716 23.5561ZM158.924 20.4029C159.109 20.6289 160.712 22.6415 160.189 23.7448C159.983 24.1792 159.5 24.3995 158.754 24.3995C158.008 24.3995 157.525 24.1792 157.319 23.7448C156.796 22.6415 158.399 20.6289 158.584 20.4029C158.668 20.3009 158.841 20.3009 158.924 20.4029ZM161.649 17.608C161.649 17.4862 161.747 17.3882 161.869 17.3882C163.168 17.3882 163.914 18.1199 163.946 18.1511C164.031 18.2368 164.031 18.3762 163.946 18.462C163.902 18.5051 163.846 18.5262 163.79 18.5262C163.734 18.5262 163.677 18.5051 163.635 18.462C163.628 18.4558 162.987 17.8279 161.869 17.8279C161.747 17.8279 161.649 17.7294 161.649 17.608ZM153.608 18.1511C153.639 18.1199 154.386 17.3882 155.685 17.3882C155.806 17.3882 155.904 17.4862 155.904 17.608C155.904 17.7294 155.806 17.8279 155.685 17.8279C154.575 17.8279 153.924 18.4563 153.918 18.4624C153.875 18.5051 153.819 18.5257 153.763 18.5257C153.707 18.5257 153.65 18.5042 153.607 18.4611C153.522 18.3754 153.522 18.2368 153.608 18.1511ZM161.869 19.7737C162.158 19.7737 162.392 20.1175 162.392 20.5419C162.392 20.9666 162.158 21.3105 161.869 21.3105C161.579 21.3105 161.345 20.9666 161.345 20.5419C161.345 20.1175 161.579 19.7737 161.869 19.7737ZM155.685 19.7737C155.974 19.7737 156.208 20.1175 156.208 20.5419C156.208 20.9666 155.974 21.3105 155.685 21.3105C155.395 21.3105 155.16 20.9666 155.16 20.5419C155.16 20.1175 155.395 19.7737 155.685 19.7737Z" fill="black"/>
<path fill-rule="evenodd" clip-rule="evenodd" d="M162.839 21.7852C161.989 21.7852 161.3 22.1789 161.3 22.6646C161.3 23.1503 161.989 23.544 162.839 23.544C163.689 23.544 164.378 23.1503 164.378 22.6646C164.378 22.1789 163.689 21.7852 162.839 21.7852ZM154.924 21.7852C154.074 21.7852 153.385 22.1789 153.385 22.6646C153.385 23.1503 154.074 23.544 154.924 23.544C155.774 23.544 156.463 23.1503 156.463 22.6646C156.463 22.1789 155.774 21.7852 154.924 21.7852Z" fill="#E2A2B5"/>
</svg>
