<svg width="37" height="74" viewBox="0 0 37 74" fill="none" xmlns="http://www.w3.org/2000/svg">
<g clip-path="url(#clip0_615_3043)">
<path d="M27.5844 19.2089C25.7344 19.5061 25.4583 20.857 25.1545 22.3429C24.3538 26.2604 23.415 30.1509 22.5314 34.0414C22.3657 34.7168 22.1724 35.3652 22.9456 35.8245C23.415 36.1217 23.3321 36.4189 22.9732 36.7971C22.559 37.2294 22.2553 37.7157 22.8627 38.3101C27.9157 43.2542 28.0262 49.225 26.5627 55.493C26.0657 57.6273 25.3202 59.7077 24.8232 61.869C24.6299 62.7066 24.2433 63.1659 23.415 63.2199C22.4486 63.2739 22.2277 63.7873 22.2 64.6248C22.1724 65.9216 21.9792 67.2184 21.9239 68.5153C21.8411 70.3524 23.1941 71.8924 25.2098 72.3517C25.9553 72.5138 26.756 72.5138 27.3911 73.0812C27.5015 74.3239 1.76721 74.378 1.68438 72.9461C1.60154 71.8384 14.0821 72.0005 19.6597 71.9464C19.715 71.4061 18.2792 70.9198 18.0583 70.6226C17.4232 69.7851 17.4784 69.1096 18.0859 68.2181C19.1351 66.6511 18.5277 64.8139 18.6105 63.0848C18.6105 62.8957 18.4448 62.7606 18.2515 62.7606C17.009 62.7336 16.9262 61.788 16.6777 60.9234C15.7389 57.5463 15.7665 54.2772 17.3127 51.0622C18.1135 49.3871 18.5277 47.5229 17.6165 45.7128C17.2575 44.9833 16.8433 43.6865 15.5732 44.9023C15.5456 44.9293 15.4903 44.9833 15.4627 44.9833C13.8889 43.9837 13.7508 45.5507 13.2538 46.2531C12.5083 47.3068 12.1217 48.4955 12.7568 49.7924C13.1157 50.1436 13.2538 50.6839 12.8948 50.9811C12.5083 51.3323 12.2598 50.4678 12.0112 50.2787C11.5695 49.9545 11.5971 50.5488 11.4314 50.819C11.1277 51.3053 11.0448 52.386 10.3821 52.1429C9.66423 51.8997 10.4098 51.0352 10.603 50.5218C10.9068 49.6303 10.6306 49.8464 10.2993 49.9004C10.1612 49.9545 10.0508 50.0085 9.99557 50.1166C9.69184 50.6569 9.1396 51.4944 8.55975 51.1162C7.84184 50.6299 9.27766 50.0085 9.49856 49.3871C8.89109 48.9819 6.90303 50.0085 7.34482 49.1169C7.73139 48.3064 9.1396 48.6576 9.69184 48.1173C10.7687 47.0907 11.0724 45.3075 11.5695 43.8216C12.1769 41.9574 13.7784 40.6335 14.662 38.9045C13.806 38.4181 13.1986 38.4181 12.4806 39.1476C11.0448 40.6065 7.81423 40.2553 5.74333 39.796C4.55602 39.5529 3.39632 38.3641 2.209 37.5806C1.76721 37.2834 1.82244 36.8241 1.46348 36.3919C1.35303 36.4459 1.13214 36.581 0.828406 36.9052L1.2702 36.3378C0.994078 36.3108 0.579899 36.2838 0.276168 36.3378L1.18736 36.1217C0.938854 35.9055 0.552287 35.7164 -0.0551758 35.5273C2.12617 35.7705 1.71199 34.4466 1.7396 33.393C1.79482 28.4758 6.48885 24.5854 11.5142 25.2878C10.8515 25.7201 10.4374 26.2064 11.2381 26.9088C12.1769 27.7193 13.3642 28.4758 14.8 27.9895C14.9657 27.9355 15.0486 28.0436 15.0486 28.0976C15.3523 29.1242 16.4015 29.3944 17.0918 29.9618C18.6105 31.2316 17.8097 32.4474 17.2575 33.7442C17.1471 34.0143 17.0366 34.3386 17.2023 34.7438C17.6717 34.7168 17.8374 34.3386 17.9754 34.0143C19.6597 30.2049 21.6478 26.5036 22.8903 22.505C23.5254 20.4517 23.3321 20.1816 21.3993 19.0739C21.2612 18.9928 21.0403 18.9388 21.0403 18.6956C21.5097 18.1823 22.2 19.317 22.6418 18.5335C22.2829 18.1553 21.9239 17.8041 21.6202 17.3988C21.4545 17.2097 21.1784 16.9665 21.4821 16.7234C21.7583 16.4802 21.9792 16.7504 22.1724 16.9125C22.5314 17.1827 22.6695 17.5879 23.0008 17.8851C23.3598 18.2093 23.5806 17.75 23.4426 17.4258C23.3321 17.1016 23.2769 16.8044 23.1665 16.4802C23.0284 16.0209 22.8075 15.5346 23.3597 15.5076C23.9672 15.4806 24.0224 16.183 24.0224 16.7234C24.4366 18.6416 24.6575 18.7767 26.5903 18.4795C26.8112 18.4525 27.0321 18.3444 27.253 18.3444C27.5568 18.3174 27.9709 18.1823 28.109 18.5605C28.3575 18.9928 27.8881 19.1549 27.5844 19.2089Z" fill="url(#paint0_radial_615_3043)"/>
<path d="M26.2865 11.9956L26.9492 7.67287L23.6633 4.67397L28.0812 3.97152L29.9865 0L32.0574 3.89047L36.4753 4.43081L33.3551 7.53779L34.2111 11.8335L30.2074 9.88828L26.2865 11.9956Z" fill="url(#paint1_linear_615_3043)"/>
<path d="M16.2359 11.5366L15.9874 9.61835L14.2478 8.72678L16.0426 7.91626L16.3739 5.99805L17.6993 7.42996L19.6597 7.13277L18.6933 8.83485L19.5769 10.5639L17.6441 10.1857L16.2359 11.5366Z" fill="url(#paint2_linear_615_3043)"/>
<path d="M33.5762 22.0187L33.3553 20.1275L31.6157 19.2359L33.3829 18.4254L33.7142 16.5342L35.0672 17.9391L37.0001 17.6689L36.0336 19.344L36.9172 21.0731L34.9844 20.6948L33.5762 22.0187Z" fill="url(#paint3_linear_615_3043)"/>
<path d="M15.7387 21.046L15.5454 19.479L14.1096 18.7496L15.5731 18.0742L15.8492 16.5342L16.9536 17.6959L18.5551 17.4528L17.782 18.8306L18.4999 20.2625L16.8984 19.9383L15.7387 21.046Z" fill="url(#paint4_linear_615_3043)"/>
</g>
<defs>
<radialGradient id="paint0_radial_615_3043" cx="0" cy="0" r="1" gradientUnits="userSpaceOnUse" gradientTransform="translate(14.0619 44.7618) rotate(52.6741) scale(38.6546 18.6529)">
<stop stop-color="#F9CD20"/>
<stop offset="1" stop-color="#F9BC20"/>
</radialGradient>
<linearGradient id="paint1_linear_615_3043" x1="30.0693" y1="0" x2="30.0693" y2="11.9956" gradientUnits="userSpaceOnUse">
<stop stop-color="#C8C0F8"/>
<stop offset="1" stop-color="white" stop-opacity="0"/>
</linearGradient>
<linearGradient id="paint2_linear_615_3043" x1="16.9538" y1="5.99805" x2="16.9538" y2="11.5366" gradientUnits="userSpaceOnUse">
<stop stop-color="white"/>
<stop offset="1" stop-color="white" stop-opacity="0"/>
</linearGradient>
<linearGradient id="paint3_linear_615_3043" x1="34.3079" y1="16.5342" x2="34.3079" y2="22.0187" gradientUnits="userSpaceOnUse">
<stop stop-color="white"/>
<stop offset="1" stop-color="white" stop-opacity="0"/>
</linearGradient>
<linearGradient id="paint4_linear_615_3043" x1="16.3324" y1="16.5342" x2="16.3324" y2="21.046" gradientUnits="userSpaceOnUse">
<stop stop-color="white"/>
<stop offset="1" stop-color="white" stop-opacity="0"/>
</linearGradient>
<clipPath id="clip0_615_3043">
<rect width="37" height="74" fill="white"/>
</clipPath>
</defs>
</svg>
