<svg width="64" height="69" viewBox="0 0 64 69" fill="none" xmlns="http://www.w3.org/2000/svg">
<g clip-path="url(#clip0_505_2261)">
<path fill-rule="evenodd" clip-rule="evenodd" d="M61.8638 59.7159C61.8638 63.103 48.5472 65.8488 32.1204 65.8488C15.6937 65.8488 2.37708 63.103 2.37708 59.7159C2.37708 56.3287 15.6937 53.583 32.1204 53.583C48.5472 53.583 61.8638 56.3287 61.8638 59.7159Z" fill="#FFDDDD"/>
<path fill-rule="evenodd" clip-rule="evenodd" d="M5.9042 60.8529C5.94066 60.8529 5.97024 60.8233 5.97024 60.7868C5.97024 60.6525 6.10286 60.5463 6.24313 60.5987C6.27365 60.6098 6.30746 60.598 6.32371 60.57C6.36043 60.5063 6.42555 60.4682 6.49767 60.4682C6.58881 60.4682 6.66872 60.5303 6.69197 60.6191C6.69804 60.6423 6.71614 60.6604 6.73938 60.6664C6.76237 60.6725 6.7872 60.6652 6.80371 60.6479C6.84228 60.6075 6.89393 60.5851 6.94927 60.5851C7.06049 60.5851 7.1511 60.6756 7.1511 60.7868C7.1511 60.8233 7.18069 60.8529 7.21714 60.8529C7.2536 60.8529 7.28319 60.8233 7.28319 60.7868C7.28319 60.6027 7.1334 60.4531 6.94927 60.4531C6.8897 60.4531 6.83277 60.4685 6.78258 60.4977C6.7234 60.3993 6.61628 60.3362 6.49767 60.3362C6.39715 60.3362 6.30218 60.3827 6.2393 60.4602C6.03153 60.4162 5.83816 60.5804 5.83816 60.7868C5.83816 60.8233 5.86774 60.8529 5.9042 60.8529ZM51.2459 64.3466C45.9042 65.273 39.112 65.7833 32.1204 65.7833C15.7563 65.7833 2.443 63.0618 2.443 59.7164C2.443 59.68 2.41354 59.6504 2.37696 59.6504C2.3405 59.6504 2.31091 59.68 2.31091 59.7164C2.31091 61.3894 5.42354 62.9524 11.0753 64.1178C16.6974 65.277 24.1713 65.9154 32.1204 65.9154C39.1193 65.9154 45.9195 65.4045 51.2685 64.4767C51.3044 64.4705 51.3284 64.4363 51.3222 64.4003C51.316 64.3643 51.2818 64.3392 51.2459 64.3466ZM13.4433 59.9749C13.4798 59.9749 13.5094 59.9453 13.5094 59.9089C13.5094 59.7743 13.6429 59.6682 13.7821 59.7206C13.8122 59.7321 13.8466 59.72 13.8628 59.692C13.8995 59.6283 13.9645 59.5901 14.0368 59.5901C14.1279 59.5901 14.2078 59.6522 14.2311 59.741C14.2372 59.7641 14.2553 59.7822 14.2784 59.7881C14.3017 59.7939 14.3262 59.7871 14.3427 59.7699C14.3814 59.7292 14.4332 59.7069 14.4884 59.7069C14.5996 59.7069 14.6902 59.7975 14.6902 59.9089C14.6902 59.9453 14.7197 59.9749 14.7563 59.9749C14.7927 59.9749 14.8223 59.9453 14.8223 59.9089C14.8223 59.7246 14.6725 59.5748 14.4884 59.5748C14.4288 59.5748 14.3719 59.5903 14.3218 59.6196C14.2625 59.5213 14.1554 59.458 14.0368 59.458C13.9363 59.458 13.8413 59.5045 13.7786 59.5822C13.571 59.5369 13.3773 59.7021 13.3773 59.9089C13.3773 59.9453 13.4067 59.9749 13.4433 59.9749ZM51.744 62.8337C51.6845 62.8337 51.6276 62.8491 51.5774 62.8784C51.5182 62.7802 51.4111 62.7168 51.2925 62.7168C51.192 62.7168 51.0971 62.7634 51.0341 62.8411C50.8265 62.7959 50.6329 62.961 50.6329 63.1676C50.6329 63.2042 50.6624 63.2336 50.6989 63.2336C50.7355 63.2336 50.7649 63.2042 50.7649 63.1676C50.7649 63.0331 50.8985 62.9269 51.0378 62.9795C51.0677 62.991 51.1023 62.979 51.1185 62.9508C51.1553 62.8869 51.2202 62.8488 51.2925 62.8488C51.3835 62.8488 51.4634 62.9109 51.4867 62.9998C51.4929 63.0229 51.5108 63.0409 51.5341 63.047C51.5573 63.0531 51.5818 63.0459 51.5984 63.0287C51.6371 62.9881 51.6888 62.9657 51.744 62.9657C51.8553 62.9657 51.9458 63.0564 51.9458 63.1676C51.9458 63.2042 51.9754 63.2336 52.0118 63.2336C52.0484 63.2336 52.0779 63.2042 52.0779 63.1676C52.0779 62.9834 51.9281 62.8337 51.744 62.8337ZM52.6777 60.0289C52.6183 60.0289 52.5612 60.0444 52.5111 60.0736C52.452 59.9752 52.3448 59.912 52.2262 59.912C52.1257 59.912 52.0307 59.9585 51.9679 60.0361C51.7597 59.9925 51.5667 60.1565 51.5667 60.3627C51.5667 60.3992 51.5962 60.4288 51.6328 60.4288C51.6692 60.4288 51.6988 60.3992 51.6988 60.3627C51.6988 60.2284 51.8313 60.1219 51.9717 60.1746C52.0019 60.186 52.036 60.1738 52.0521 60.1458C52.089 60.0822 52.154 60.0441 52.2262 60.0441C52.3172 60.0441 52.3971 60.1062 52.4205 60.1951C52.4266 60.2182 52.4447 60.2363 52.4679 60.2422C52.4911 60.2483 52.5158 60.2411 52.5323 60.2238C52.5708 60.1833 52.6225 60.161 52.6777 60.161C52.789 60.161 52.8797 60.2515 52.8797 60.3627C52.8797 60.3992 52.9091 60.4288 52.9457 60.4288C52.9822 60.4288 53.0117 60.3992 53.0117 60.3627C53.0117 60.1787 52.8618 60.0289 52.6777 60.0289ZM44.9218 58.9606C44.9583 58.9606 44.9879 58.931 44.9879 58.8946C44.9879 58.7602 45.1204 58.6539 45.2608 58.7065C45.2911 58.7176 45.3251 58.7055 45.3413 58.6777C45.3781 58.614 45.4432 58.576 45.5153 58.576C45.6064 58.576 45.6863 58.6379 45.7096 58.7268C45.7157 58.7501 45.7339 58.7682 45.757 58.7741C45.7801 58.7802 45.8048 58.7729 45.8213 58.7556C45.8599 58.7151 45.9116 58.6927 45.9669 58.6927C46.0781 58.6927 46.1687 58.7833 46.1687 58.8946C46.1687 58.931 46.1983 58.9606 46.2348 58.9606C46.2712 58.9606 46.3008 58.931 46.3008 58.8946C46.3008 58.7104 46.151 58.5606 45.9669 58.5606C45.9073 58.5606 45.8504 58.5762 45.8002 58.6053C45.741 58.507 45.6339 58.4439 45.5153 58.4439C45.4148 58.4439 45.3198 58.4904 45.2569 58.5679C45.0488 58.5241 44.8559 58.6881 44.8558 58.8946C44.8558 58.931 44.8854 58.9606 44.9218 58.9606ZM36.8923 63.9898C36.9287 63.9898 36.9583 63.9602 36.9583 63.9238C36.9583 63.7894 37.0909 63.6831 37.2312 63.7357C37.2615 63.7468 37.2955 63.7349 37.3116 63.7069C37.3485 63.6432 37.4135 63.6052 37.4857 63.6052C37.5767 63.6052 37.6567 63.6673 37.68 63.756C37.6861 63.779 37.7042 63.7971 37.7273 63.8032C37.7506 63.8091 37.7751 63.8021 37.7917 63.7848C37.8304 63.7444 37.882 63.7221 37.9372 63.7221C38.0486 63.7221 38.139 63.8125 38.139 63.9238C38.139 63.9602 38.1686 63.9898 38.2051 63.9898C38.2417 63.9898 38.2711 63.9602 38.2711 63.9238C38.2711 63.7396 38.1213 63.59 37.9372 63.59C37.8776 63.59 37.8207 63.6054 37.7707 63.6346C37.7115 63.5362 37.6044 63.4731 37.4857 63.4731C37.3852 63.4731 37.2903 63.5196 37.2274 63.5971C37.0193 63.5535 36.8262 63.7174 36.8262 63.9238C36.8262 63.9602 36.8557 63.9898 36.8923 63.9898ZM21.9958 62.686C21.9366 62.5877 21.8295 62.5244 21.7109 62.5244C21.6104 62.5244 21.5154 62.5711 21.4525 62.6486C21.2444 62.6049 21.0514 62.7688 21.0514 62.9751C21.0514 63.0117 21.0808 63.0412 21.1174 63.0412C21.1539 63.0412 21.1835 63.0117 21.1835 62.9751C21.1833 62.8409 21.3159 62.7345 21.4564 62.7872C21.4867 62.7983 21.5207 62.7862 21.5369 62.7584C21.5736 62.6946 21.6388 62.6565 21.7109 62.6565C21.8019 62.6565 21.8818 62.7186 21.9052 62.8075C21.9113 62.8307 21.9294 62.8487 21.9526 62.8547C21.9757 62.8607 22.0004 62.8535 22.0169 62.8363C22.0555 62.7957 22.1071 62.7734 22.1624 62.7734C22.2737 62.7734 22.3643 62.864 22.3643 62.9751C22.3643 63.0117 22.3938 63.0412 22.4304 63.0412C22.4668 63.0412 22.4964 63.0117 22.4964 62.9751C22.4964 62.7911 22.3465 62.6413 22.1624 62.6413C22.1029 62.6413 22.046 62.6568 21.9958 62.686ZM19.4954 54.2279C19.4975 54.2279 19.4996 54.2278 19.5019 54.2277C23.4635 53.844 27.7091 53.6497 32.1204 53.6497C32.1568 53.6497 32.1864 53.6201 32.1864 53.5836C32.1864 53.547 32.1568 53.5176 32.1204 53.5176C27.7048 53.5176 23.4551 53.7121 19.4891 54.0961C19.4527 54.0997 19.4262 54.1319 19.4297 54.1682C19.4331 54.2023 19.4618 54.2279 19.4954 54.2279ZM33.9806 55.7485C34.017 55.7485 34.0466 55.7191 34.0466 55.6825C34.0466 55.5483 34.1792 55.4419 34.3196 55.4945C34.35 55.5056 34.3839 55.4937 34.4001 55.4657C34.4368 55.4019 34.5019 55.3639 34.574 55.3639C34.6652 55.3639 34.7451 55.426 34.7683 55.5147C34.7744 55.5378 34.7925 55.5558 34.8157 55.5619C34.8389 55.5677 34.8634 55.5608 34.8801 55.5437C34.9186 55.5031 34.9704 55.4808 35.0256 55.4808C35.1368 55.4808 35.2275 55.5714 35.2275 55.6825C35.2275 55.7191 35.257 55.7485 35.2935 55.7485C35.33 55.7485 35.3595 55.7191 35.3595 55.6825C35.3595 55.4985 35.2098 55.3487 35.0256 55.3487C34.9661 55.3487 34.9091 55.3642 34.8591 55.3933C34.7999 55.2951 34.6928 55.2318 34.574 55.2318C34.4735 55.2318 34.3785 55.2784 34.3157 55.356C34.1081 55.3122 33.9145 55.4762 33.9145 55.6825C33.9145 55.7191 33.9441 55.7485 33.9806 55.7485Z" fill="black"/>
<path fill-rule="evenodd" clip-rule="evenodd" d="M42.5139 32.0093H7.28137V40.8175H18.2916V34.4986H42.5139V32.0093Z" fill="#83BB9E"/>
<path fill-rule="evenodd" clip-rule="evenodd" d="M42.5139 31.9434C42.4775 31.9434 42.4479 31.9729 42.4479 32.0094V34.4645H7.34742V32.0094C7.34742 31.9729 7.31796 31.9434 7.28138 31.9434C7.24492 31.9434 7.21533 31.9729 7.21533 32.0094V56.87C7.21533 56.9064 7.24492 56.936 7.28138 56.936C7.31796 56.936 7.34742 56.9064 7.34742 56.87V34.5966H42.4479V56.87C42.4479 56.9064 42.4775 56.936 42.5139 56.936C42.5504 56.936 42.58 56.9064 42.58 56.87V32.0094C42.58 31.9729 42.5504 31.9434 42.5139 31.9434ZM10.5707 35.9643H15.066V35.7455H10.5707V35.9643ZM15.1321 35.6134H10.5047C10.4682 35.6134 10.4386 35.643 10.4386 35.6794V36.0304C10.4386 36.067 10.4682 36.0964 10.5047 36.0964H15.1321C15.1687 36.0964 15.1981 36.067 15.1981 36.0304V35.6794C15.1981 35.643 15.1687 35.6134 15.1321 35.6134Z" fill="black"/>
<path fill-rule="evenodd" clip-rule="evenodd" d="M7.9613 32.0149H9.73193V24.8018H7.9613V32.0149Z" fill="#E2A2B5"/>
<path fill-rule="evenodd" clip-rule="evenodd" d="M9.73206 32.0152H11.5027V26.4014H9.73206V32.0152Z" fill="#94B1EB"/>
<path fill-rule="evenodd" clip-rule="evenodd" d="M11.5026 26.335C11.466 26.335 11.4365 26.3645 11.4365 26.401V31.9488H9.79797V27.5174C9.79797 27.4809 9.76839 27.4514 9.73193 27.4514C9.69534 27.4514 9.66589 27.4809 9.66589 27.5174V31.9488H7.96131C7.92485 31.9488 7.89526 31.9784 7.89526 32.0148C7.89526 32.0514 7.92485 32.0809 7.96131 32.0809H11.5026C11.539 32.0809 11.5686 32.0514 11.5686 32.0148V26.401C11.5686 26.3645 11.539 26.335 11.5026 26.335Z" fill="black"/>
<path fill-rule="evenodd" clip-rule="evenodd" d="M61.7236 32.2753C61.4642 32.7293 61.1604 32.991 60.836 32.991C59.8869 32.991 59.1149 30.7549 59.1149 28.0063C59.1149 25.2578 59.8869 23.0217 60.836 23.0217C61.7849 23.0217 62.557 25.2578 62.557 28.0063C62.557 29.7838 62.234 31.3458 61.7491 32.2286C61.7344 32.2398 61.7249 32.2563 61.7236 32.2753ZM60.836 22.8896C59.7968 22.8896 58.9828 25.1371 58.9828 28.0063C58.9828 30.8756 59.7968 33.1231 60.836 33.1231C61.1651 33.1231 61.4716 32.8971 61.7368 32.4975C61.8901 34.9583 61.4606 38.3866 58.6829 41.1642C58.6572 41.1901 58.6572 41.2319 58.6829 41.2576C58.6959 41.2706 58.7128 41.277 58.7297 41.277C58.7466 41.277 58.7634 41.2706 58.7763 41.2576C61.6602 38.3738 62.0443 34.8008 61.8557 32.3018C62.361 31.3971 62.6891 29.8274 62.6891 28.0063C62.6891 25.1371 61.8751 22.8896 60.836 22.8896ZM58.7957 40.9619C58.7957 40.9254 58.7662 40.8958 58.7297 40.8958H44.4534C44.4168 40.8958 44.3873 40.9254 44.3873 40.9619V42.781C44.3873 42.8174 44.4168 42.847 44.4534 42.847C44.4898 42.847 44.5194 42.8174 44.5194 42.781V41.0279H58.7297C58.7662 41.0279 58.7957 40.9985 58.7957 40.9619ZM55.8031 54.7959L51.9662 52.3211V41.4477C51.9662 41.4125 51.9366 41.3842 51.9002 41.3842C51.8636 41.3842 51.8341 41.4125 51.8341 41.4477V52.3211L47.9747 54.8103C47.8532 54.7628 47.7205 54.7362 47.5812 54.7362C47.0054 54.7362 46.5388 55.1843 46.5388 55.7369C46.5388 56.2898 47.0054 56.7378 47.5812 56.7378C48.157 56.7378 48.6237 56.2898 48.6237 55.7369C48.6237 55.3699 48.4172 55.0499 48.1103 54.8758L51.8341 52.4739V54.7393C51.2893 54.7723 50.8576 55.2057 50.8576 55.7369C50.8576 56.2898 51.3244 56.7378 51.9002 56.7378C52.4759 56.7378 52.9426 56.2898 52.9426 55.7369C52.9426 55.2056 52.5111 54.7722 51.9662 54.7393V52.4739L55.6597 54.8562C55.3341 55.0257 55.1128 55.3564 55.1128 55.7369C55.1128 56.2898 55.5796 56.7378 56.1552 56.7378C56.7311 56.7378 57.1978 56.2898 57.1978 55.7369C57.1978 55.1843 56.7311 54.7362 56.1552 54.7362C56.0316 54.7362 55.9132 54.7578 55.8031 54.7959Z" fill="black"/>
<path fill-rule="evenodd" clip-rule="evenodd" d="M44.4531 42.9132H58.7295V41.0942H44.4531V42.9132Z" fill="#94B1EB"/>
<path fill-rule="evenodd" clip-rule="evenodd" d="M24.4157 25.4857C24.4157 25.9482 24.0408 26.323 23.5784 26.323C23.116 26.323 22.7411 25.9482 22.7411 25.4857C22.7411 25.0233 23.116 24.6484 23.5784 24.6484C24.0408 24.6484 24.4157 25.0233 24.4157 25.4857Z" fill="#F9E272"/>
<path fill-rule="evenodd" clip-rule="evenodd" d="M20.0241 25.4855H26.7535C26.7535 23.7741 25.4392 22.3704 23.7649 22.2267C23.7697 22.1971 23.774 22.1674 23.774 22.1365C23.774 21.8225 23.5195 21.568 23.2055 21.568C23.1687 21.568 23.1327 21.5721 23.0979 21.5788L19.4186 18.7889C19.4251 18.7432 19.4296 18.6968 19.4296 18.6494C19.4296 18.1081 18.9909 17.6694 18.4497 17.6694C17.9086 17.6694 17.4699 18.1081 17.4699 18.6494C17.4699 19.0006 17.6554 19.3078 17.9332 19.4809L15.5862 31.3707H13.4186C13.0355 31.3707 12.725 31.6811 12.725 32.0642H19.1037C19.1037 31.6811 18.7932 31.3707 18.4101 31.3707H16.2168L18.5355 19.6248C18.764 19.6049 18.9696 19.5068 19.1262 19.3572L22.648 22.0278C22.6411 22.063 22.637 22.0992 22.637 22.1365C22.637 22.1859 22.6452 22.2328 22.6571 22.2783C21.1562 22.5757 20.0241 23.8975 20.0241 25.4855Z" fill="#EC7068"/>
<path fill-rule="evenodd" clip-rule="evenodd" d="M17.425 31.2888H13.4185C13.3735 31.2888 13.3369 31.3252 13.3369 31.3704C13.3369 31.4156 13.3735 31.452 13.4185 31.452H17.425C17.47 31.452 17.5066 31.4156 17.5066 31.3704C17.5066 31.3252 17.47 31.2888 17.425 31.2888ZM26.7535 25.4133H20.097C20.13 23.9429 21.1727 22.6774 22.6082 22.3626C22.7 22.6041 22.9321 22.777 23.2055 22.777C23.2453 22.777 23.2776 22.7446 23.2776 22.7049C23.2776 22.665 23.2453 22.6327 23.2055 22.6327C22.9317 22.6327 22.709 22.4099 22.709 22.1362C22.709 21.8625 22.9317 21.6398 23.2055 21.6398C23.2453 21.6398 23.2776 21.6076 23.2776 21.5677C23.2776 21.528 23.2453 21.4956 23.2055 21.4956C22.8522 21.4956 22.5649 21.783 22.5649 22.1362C22.5649 22.1659 22.5696 22.1942 22.5736 22.2229C21.0509 22.5584 19.9519 23.9181 19.9519 25.4853C19.9519 25.5252 19.9842 25.5574 20.0241 25.5574H26.7535C26.7934 25.5574 26.8256 25.5252 26.8256 25.4853C26.8256 25.4455 26.7934 25.4133 26.7535 25.4133ZM19.4295 18.5771C19.3897 18.5771 19.3574 18.6094 19.3574 18.6493C19.3574 19.1497 18.9502 19.557 18.4497 19.557C17.9491 19.557 17.5419 19.1497 17.5419 18.6493C17.5419 18.6094 17.5097 18.5771 17.4698 18.5771C17.43 18.5771 17.3977 18.6094 17.3977 18.6493C17.3977 19.2293 17.8696 19.7011 18.4497 19.7011C19.0297 19.7011 19.5017 19.2293 19.5017 18.6493C19.5017 18.6094 19.4694 18.5771 19.4295 18.5771Z" fill="black"/>
<path fill-rule="evenodd" clip-rule="evenodd" d="M34.5798 56.0475C35.372 55.5621 39.024 54.2044 39.1071 53.0987C39.236 51.3826 39.2317 48.6389 39.2088 46.6655C40.2728 46.7777 41.4976 46.8946 42.8002 46.9955L41.3259 53.1251C41.2546 53.6781 41.1585 53.7311 41.7598 54.9857C41.8174 55.1057 41.8541 55.2152 41.875 55.3158C43.1991 54.6874 44.8457 53.837 44.9011 53.0987C45.03 51.3826 45.0256 48.6389 45.0028 46.6655C46.0667 46.7777 47.2916 46.8946 48.5944 46.9955L47.1199 53.1251C47.0485 53.6781 46.9525 53.7311 47.5538 54.9857C48.1236 56.1741 46.7297 56.3621 46.7297 56.3621L40.4685 56.3779C40.4434 56.3779 40.4196 56.3727 40.398 56.3636L34.6744 56.3779C34.5757 56.3781 34.4956 56.2981 34.4956 56.1994C34.4956 56.1373 34.5269 56.0799 34.5798 56.0475Z" fill="#F4D4B8"/>
<path fill-rule="evenodd" clip-rule="evenodd" d="M56.3394 32.2646C56.3394 32.2646 57.6527 37.2282 57.0676 38.9185C56.5404 40.4411 55.4292 41.4984 50.3853 41.0813C50.3853 41.0813 48.4698 51.3501 48.4698 51.4428C48.4698 51.5222 45.3307 51.1949 44.4188 51.0982C44.2824 51.0837 44.1826 50.9627 44.1944 50.8259L45.1571 40.7874L44.4153 40.8183L42.5678 50.9079C42.5464 51.0388 42.4271 51.1307 42.295 51.118L38.4488 50.7501C38.3119 50.737 38.2107 50.6165 38.2214 50.4795L39.2808 37.9972C39.4041 36.4049 40.7472 35.1848 42.3439 35.2144L44.508 35.2544L44.7552 32.2646H56.3394Z" fill="#F0BE91"/>
<path fill-rule="evenodd" clip-rule="evenodd" d="M34.5281 56.3711H35.503V55.3672C35.503 55.3006 35.5438 55.2404 35.6059 55.2158L36.4404 54.8847C36.5474 54.8423 36.6635 54.921 36.6635 55.0362V56.3711H41.2971V55.3672C41.2971 55.3006 41.3378 55.2404 41.3999 55.2158L42.2344 54.8847C42.3414 54.8423 42.4575 54.921 42.4575 55.0362V56.3711H47.4607C47.6245 56.3711 47.7572 56.5038 47.7572 56.6675V56.7192C47.7572 56.8829 47.6245 57.0156 47.4607 57.0156H34.5281C34.3643 57.0156 34.2315 56.8829 34.2315 56.7192V56.6675C34.2315 56.5038 34.3643 56.3711 34.5281 56.3711Z" fill="#83BB9E"/>
<path fill-rule="evenodd" clip-rule="evenodd" d="M36.6633 54.97C36.6268 54.97 36.5973 54.9996 36.5973 55.0361V56.437H40.0443C39.9921 56.4999 39.9594 56.5795 39.9594 56.6675V56.7191C39.9594 56.7557 39.9888 56.7852 40.0254 56.7852C40.0619 56.7852 40.0915 56.7557 40.0915 56.7191V56.6675C40.0915 56.5404 40.1949 56.437 40.3218 56.437H41.2969C41.3335 56.437 41.3629 56.4075 41.3629 56.3709C41.3629 56.3345 41.3335 56.3049 41.2969 56.3049H40.3218C40.3188 56.3049 40.3159 56.3058 40.3127 56.3058C40.3125 56.3056 40.3121 56.3052 40.3117 56.3049H36.7293V55.0361C36.7293 54.9996 36.6999 54.97 36.6633 54.97ZM44.906 53.0326C44.8697 53.0299 44.8379 53.0573 44.8352 53.0936C44.7905 53.6898 43.5743 54.4013 42.4301 54.972C42.4303 54.9732 42.4302 54.9747 42.4305 54.976C42.4075 54.9863 42.3912 55.0091 42.3912 55.0361V56.437H47.4605C47.5875 56.437 47.691 56.5404 47.691 56.6675C47.691 56.7039 47.7205 56.7335 47.757 56.7335C47.7935 56.7335 47.823 56.7039 47.823 56.6675C47.823 56.4676 47.6604 56.3049 47.4605 56.3049H42.5233V55.0733C43.7097 54.4805 44.9175 53.7612 44.9669 53.1034C44.9696 53.0671 44.9424 53.0355 44.906 53.0326ZM41.2775 55.5232C40.8581 55.7196 40.5259 55.8765 40.3393 55.9911C40.2668 56.0353 40.2236 56.1131 40.2236 56.1994C40.2236 56.2358 40.253 56.2654 40.2896 56.2654C40.3261 56.2654 40.3557 56.2358 40.3557 56.1994C40.3557 56.1596 40.3753 56.1238 40.4082 56.1037C40.5847 55.9957 40.9182 55.8374 41.3091 55.6546C41.3089 55.6486 41.31 55.6425 41.31 55.6364C41.3088 55.608 41.3088 55.5796 41.3106 55.5513C41.2998 55.5418 41.2873 55.5339 41.2775 55.5232ZM46.1865 53.478L46.1745 53.4796C46.1389 53.4879 46.117 53.5234 46.1252 53.559L46.1755 53.774C46.2272 53.9954 46.1622 54.2235 46.0014 54.384C45.9757 54.4099 45.9757 54.4516 46.0014 54.4775C46.0144 54.4903 46.0313 54.4968 46.0482 54.4968C46.0651 54.4968 46.082 54.4903 46.095 54.4775C46.2881 54.2844 46.3663 54.0102 46.3042 53.744L46.254 53.5288C46.2455 53.4933 46.2109 53.4715 46.1745 53.4796L46.1865 53.478ZM40.3926 53.478L40.3805 53.4796C40.3451 53.4879 40.323 53.5234 40.3312 53.559L40.3815 53.774C40.4333 53.9954 40.3683 54.2235 40.2076 54.384C40.1817 54.4099 40.1817 54.4516 40.2076 54.4775C40.2204 54.4903 40.2373 54.4968 40.2542 54.4968C40.2711 54.4968 40.288 54.4903 40.301 54.4775C40.4942 54.2844 40.5723 54.0102 40.5103 53.744L40.46 53.5288C40.4515 53.4933 40.4171 53.4715 40.3805 53.4796L40.3926 53.478ZM50.5628 38.2291L50.3199 39.883C50 41.7959 48.4036 51.3495 48.4036 51.443C48.4036 51.4795 48.4332 51.5091 48.4697 51.5091C48.5061 51.5091 48.5357 51.4795 48.5357 51.443C48.5493 51.2936 49.794 43.829 50.4503 39.9035L50.4505 39.9022L50.6934 38.2484C50.6987 38.2122 50.6737 38.1786 50.6377 38.1734C50.6008 38.1677 50.5681 38.193 50.5628 38.2291ZM44.5973 38.2272L44.35 39.6182C44.35 39.6188 44.35 39.6189 44.3499 39.619L42.5024 50.8973C42.4965 50.9332 42.5209 50.9673 42.5569 50.9731C42.5606 50.9738 42.5641 50.974 42.5677 50.974C42.5995 50.974 42.6275 50.951 42.6328 50.9187L44.4803 39.6404L44.7274 38.2503C44.7338 38.2144 44.7099 38.1801 44.6739 38.1737C44.6377 38.1673 44.6038 38.1914 44.5973 38.2272ZM52.0326 35.0116L47.8071 35.1263C46.5382 35.1607 45.4772 36.1733 45.3392 37.4819L45.1217 39.5427C45.1049 39.5535 45.093 39.5719 45.0912 39.5933L44.981 40.8791L44.9668 41.0131C44.9661 41.0199 44.9664 41.0265 44.9675 41.0328L44.6683 44.5246C44.6652 44.5609 44.6922 44.593 44.7285 44.5961C44.7303 44.5962 44.7323 44.5963 44.7342 44.5963C44.7681 44.5963 44.797 44.5704 44.7999 44.536L45.1231 40.7679L45.468 37.4966C45.599 36.2545 46.6061 35.2933 47.8105 35.2606L52.036 35.1459C52.0717 35.1448 52.1 35.1141 52.0991 35.0769C52.0982 35.0398 52.0622 35.0125 52.0326 35.0116ZM44.7551 32.1987C44.7209 32.1987 44.6922 32.2249 44.6893 32.2591L44.4492 35.1658L43.8824 35.1569C43.8667 35.1562 43.8498 35.1636 43.8369 35.1758L42.345 35.1485C40.7164 35.1177 39.3407 36.3674 39.2147 37.9922C39.2118 38.0286 39.2391 38.0603 39.2755 38.0632C39.2772 38.0634 39.2789 38.0634 39.2806 38.0634C39.3148 38.0634 39.3438 38.0371 39.3464 38.0025C39.4655 36.4658 40.7521 35.28 42.2872 35.28C42.3057 35.28 42.324 35.2802 42.3425 35.2806L44.5065 35.3206C44.524 35.3216 44.5422 35.3134 44.5552 35.2997L45.8909 35.321H45.8919C45.9278 35.321 45.9574 35.292 45.958 35.256C45.9585 35.2195 45.9294 35.1894 45.893 35.1889L44.5814 35.1679L44.8156 32.3308H56.3392C56.3757 32.3308 56.4053 32.3012 56.4053 32.2648C56.4053 32.2283 56.3757 32.1987 56.3392 32.1987H44.7551Z" fill="black"/>
<path fill-rule="evenodd" clip-rule="evenodd" d="M42.5907 26.0995C42.7382 26.5236 43.8729 26.6566 44.743 26.6958C44.6786 24.5391 44.5961 22.5445 44.5961 22.5445C44.5961 22.5445 42.3476 25.4007 42.5907 26.0995ZM57.3185 24.6095C56.597 23.614 55.4129 22.8484 55.4129 22.8484C55.4129 22.8484 55.5137 23.7973 55.662 25.0729C56.6152 25.1885 57.7609 25.2198 57.3185 24.6095ZM48.8499 17.0449L50.3084 20.1138L52.1619 17.1057C52.1619 17.1057 53.1466 17.2744 54.4891 17.8474L54.9327 18.046C56.6872 18.8693 58.8902 20.3563 60.3423 22.9611C63.0972 27.9035 59.4344 29.4156 56.2175 29.4C56.2854 29.8591 56.3522 30.2776 56.4157 30.6267C56.8411 32.9664 56.4157 33.0577 56.4157 33.0577H44.8087C44.8087 33.0577 43.8807 33.1761 44.0326 31.9607C44.0668 31.6869 44.0382 31.4264 44.0326 30.6267C38.7535 31.1431 39.3496 26.9362 39.3496 26.9362C40.5031 17.0449 48.8499 17.0449 48.8499 17.0449Z" fill="#94B1EB"/>
<path fill-rule="evenodd" clip-rule="evenodd" d="M44.4062 21.1113L46.2439 26.0267L46.2517 26.0247H51.3402V26.1568L46.6025 26.986H39.3778L36.7247 21.1113H44.4062Z" fill="#F1EFEF"/>
<path fill-rule="evenodd" clip-rule="evenodd" d="M44.579 30.7276C44.5963 30.7276 44.6138 30.7257 44.6313 30.7223C44.7083 30.7072 44.7678 30.6658 44.8078 30.5995C44.9543 30.3575 44.7983 29.8306 44.6731 29.4071C44.6525 29.3376 44.6332 29.2727 44.6175 29.2153C44.6078 29.1801 44.5711 29.1597 44.5362 29.1691C44.501 29.1789 44.4804 29.2153 44.49 29.2503C44.5061 29.3086 44.5255 29.3742 44.5464 29.4446C44.6518 29.8007 44.8111 30.3391 44.6949 30.5312C44.6743 30.5653 44.6459 30.5848 44.6058 30.5927C44.5642 30.6005 44.527 30.5902 44.4884 30.5589C44.1875 30.3142 43.996 29.0006 43.9761 27.0449C43.9757 27.0087 43.9461 26.9795 43.91 26.9795H43.9094C43.8728 26.9799 43.8436 27.0097 43.844 27.0462C43.856 28.2358 43.9452 30.2872 44.4052 30.6614C44.4594 30.7054 44.5176 30.7276 44.579 30.7276Z" fill="black"/>
<path fill-rule="evenodd" clip-rule="evenodd" d="M43.9722 30.7234C44.1233 30.7234 44.2785 30.7213 44.4379 30.7172C44.4745 30.7162 44.5033 30.6859 44.5024 30.6495C44.5013 30.6132 44.4691 30.5841 44.4346 30.5852C43.0015 30.6227 41.9193 30.492 41.2122 30.1977C41.1786 30.1843 41.14 30.1996 41.1259 30.2333C41.112 30.267 41.1278 30.3057 41.1615 30.3197C41.8064 30.5881 42.7504 30.7234 43.9722 30.7234Z" fill="black"/>
<path fill-rule="evenodd" clip-rule="evenodd" d="M46.3974 26.8673C46.401 26.8673 46.4048 26.867 46.4084 26.8664L50.926 26.1036C50.962 26.0975 50.9862 26.0634 50.9801 26.0275C50.9741 25.9914 50.9387 25.9675 50.9041 25.9732L46.4409 26.727L44.4008 21.0423C44.3913 21.0161 44.3664 20.9985 44.3386 20.9985H36.6571C36.6346 20.9985 36.6137 21.0099 36.6016 21.0288C36.5894 21.0475 36.5876 21.0713 36.5968 21.0918L38.6197 25.5714C38.6348 25.6047 38.6739 25.6193 38.7072 25.6044C38.7403 25.5893 38.7553 25.5502 38.7402 25.517L36.7593 21.1306H44.2922L46.3352 26.8236C46.3448 26.8501 46.3699 26.8673 46.3974 26.8673Z" fill="black"/>
<path fill-rule="evenodd" clip-rule="evenodd" d="M52.167 26.7616C52.1887 26.7616 52.2101 26.7509 52.2226 26.7312C52.2423 26.7004 52.2333 26.6596 52.2027 26.6399C51.5845 26.2446 50.5672 25.9469 50.5241 25.9343C49.8665 25.7736 47.8782 25.8634 47.0537 25.9095C47.0304 25.9105 47.0228 25.8955 47.02 25.8864C47.0176 25.8788 47.0143 25.8602 47.0345 25.8477C47.6585 25.4596 49.2666 24.5704 50.7201 24.6857C50.7369 24.6874 52.5328 24.8696 53.6954 25.2403C53.7307 25.2512 53.7674 25.2321 53.7785 25.1975C53.7896 25.1628 53.7704 25.1256 53.7357 25.1145C52.5596 24.7393 50.75 24.5561 50.732 24.5543C49.236 24.4345 47.5998 25.3405 46.9646 25.7354C46.8991 25.7762 46.8709 25.8528 46.8941 25.9263C46.9172 25.9994 46.986 26.0469 47.0612 26.0413C47.8799 25.9956 49.8527 25.9059 50.49 26.0619C50.4977 26.0643 51.5296 26.3662 52.1313 26.7511C52.1424 26.7583 52.1547 26.7616 52.167 26.7616Z" fill="black"/>
<path fill-rule="evenodd" clip-rule="evenodd" d="M47.3603 26.0018C47.3772 26.0018 47.3941 25.9954 47.407 25.9826C48.2307 25.1591 49.5915 25.1487 49.6051 25.1487C49.6416 25.1487 49.6711 25.1191 49.6711 25.0826C49.6711 25.0462 49.6416 25.0166 49.6051 25.0166C49.5472 25.0166 48.1767 25.0264 47.3135 25.889C47.2878 25.9149 47.2878 25.9567 47.3135 25.9826C47.3265 25.9954 47.3434 26.0018 47.3603 26.0018Z" fill="black"/>
<path fill-rule="evenodd" clip-rule="evenodd" d="M47.8975 26.0013C47.9222 26.0013 47.9458 25.9875 47.9572 25.9636C48.1465 25.5644 49.2495 25.5134 49.6585 25.5287C49.6936 25.529 49.7254 25.5014 49.7269 25.4649C49.7281 25.4285 49.6997 25.398 49.6631 25.3966C49.5994 25.3949 48.1029 25.348 47.8378 25.907C47.8222 25.9399 47.8362 25.9793 47.8692 25.995C47.8782 25.9992 47.888 26.0013 47.8975 26.0013Z" fill="black"/>
<path fill-rule="evenodd" clip-rule="evenodd" d="M48.1498 25.2433C48.1925 25.2424 48.22 25.2149 48.22 25.1772C48.22 25.1407 48.1904 25.1112 48.1539 25.1112H48.1502C47.9915 25.1112 47.9042 25.1025 47.8567 25.0942C48.4625 24.7289 50.3188 24.6756 50.3379 24.6751C50.3742 24.674 50.403 24.6437 50.4021 24.6072C50.401 24.5714 50.3718 24.543 50.336 24.543H50.3343C50.2548 24.5452 48.3806 24.5992 47.7656 24.9954C47.6993 25.038 47.673 25.0845 47.6875 25.1337C47.7079 25.203 47.7903 25.2433 48.1498 25.2433Z" fill="black"/>
<path fill-rule="evenodd" clip-rule="evenodd" d="M55.6619 25.1385C55.664 25.1385 55.6658 25.1384 55.6678 25.1382C55.7041 25.135 55.7309 25.103 55.7278 25.0666C55.4813 22.2783 55.3199 21.4777 55.3182 21.47C55.311 21.4341 55.2755 21.4103 55.2404 21.4187C55.2046 21.4261 55.1816 21.4608 55.189 21.4966C55.1906 21.5043 55.3507 22.3014 55.5962 25.0783C55.5993 25.1126 55.628 25.1385 55.6619 25.1385Z" fill="black"/>
<path fill-rule="evenodd" clip-rule="evenodd" d="M54.3281 29.3173C54.3583 29.3173 54.3878 29.3113 54.4164 29.2988C54.9992 29.0489 54.7633 25.8606 54.7103 25.2265L56.2524 25.2433C57.8722 25.2633 58.8568 24.6903 58.8983 24.6659C58.9296 24.6475 58.94 24.6071 58.9215 24.5757C58.9033 24.544 58.8626 24.5337 58.8313 24.552C58.8215 24.558 57.824 25.1295 56.254 25.1112L54.639 25.0936C54.6193 25.0953 54.6024 25.1011 54.5897 25.1149C54.5772 25.1285 54.5708 25.147 54.5726 25.1655C54.7008 26.6271 54.7579 29.0088 54.3643 29.1775C54.2851 29.2122 54.1785 29.118 54.1038 29.0331C53.8798 28.7795 53.775 28.3015 53.7919 27.6124C53.7929 27.5758 53.7639 27.5455 53.7276 27.5446H53.7259C53.6902 27.5446 53.6608 27.5731 53.6598 27.6089C53.6421 28.3325 53.7581 28.841 54.0047 29.1205C54.1203 29.2514 54.2286 29.3173 54.3281 29.3173Z" fill="black"/>
<path fill-rule="evenodd" clip-rule="evenodd" d="M56.0926 29.4333C57.1836 29.4333 58.0246 29.2806 58.6022 29.1228C59.5324 28.8687 59.9908 28.5543 60.0097 28.5409C60.0397 28.5202 60.0471 28.479 60.0262 28.4491C60.0056 28.4193 59.9643 28.412 59.9344 28.4325C59.9162 28.4452 58.077 29.6838 54.372 29.1812C54.3373 29.1746 54.3026 29.2014 54.2976 29.2377C54.2927 29.2738 54.318 29.307 54.3542 29.3119C54.9899 29.3983 55.57 29.4333 56.0926 29.4333Z" fill="black"/>
<path fill-rule="evenodd" clip-rule="evenodd" d="M47.532 27.4818C48.1398 27.4818 49.1049 27.355 49.8181 26.6572C49.8441 26.6316 49.8446 26.5898 49.819 26.5638C49.7936 26.5376 49.7519 26.5374 49.7256 26.5627C48.6604 27.6052 46.9946 27.3138 46.9782 27.3103C46.9408 27.3041 46.9078 27.3276 46.9013 27.3634C46.8946 27.3992 46.9184 27.4337 46.9542 27.4403C46.9605 27.4414 47.1895 27.4818 47.532 27.4818Z" fill="black"/>
<path fill-rule="evenodd" clip-rule="evenodd" d="M50.3084 20.1795C50.3312 20.1795 50.3525 20.1676 50.3647 20.1482L52.2181 17.14C52.2372 17.109 52.2275 17.0682 52.1966 17.0492C52.1655 17.0303 52.1248 17.0395 52.1056 17.0707L50.3159 19.9754L48.9095 17.0163C48.8939 16.9832 48.8542 16.9692 48.8215 16.985C48.7886 17.0007 48.7746 17.0399 48.7903 17.0729L50.2488 20.1418C50.2591 20.1636 50.2806 20.178 50.3048 20.1793C50.306 20.1795 50.3072 20.1795 50.3084 20.1795Z" fill="black"/>
<path fill-rule="evenodd" clip-rule="evenodd" d="M47.5518 13.2267C47.4977 14.7226 48.9808 15.9638 50.4209 15.9638C51.8611 15.9638 53.322 14.8907 53.3847 13.362C53.4461 11.8664 52.3642 10.1877 51.2827 10.0428C49.0801 9.74742 47.6178 11.3963 47.5518 13.2267Z" fill="black"/>
<path fill-rule="evenodd" clip-rule="evenodd" d="M50.421 15.8315C51.7393 15.8315 53.1919 14.837 53.2528 13.3564C53.3106 11.9468 52.2889 10.3107 51.2651 10.1734C51.1004 10.1514 50.936 10.1401 50.7764 10.1401C48.8402 10.1401 47.7379 11.7328 47.6837 13.2312C47.6619 13.8365 47.9105 14.44 48.3837 14.9307C48.9279 15.4947 49.6895 15.8315 50.421 15.8315Z" fill="#F4D4B8"/>
<path fill-rule="evenodd" clip-rule="evenodd" d="M52.3937 14.1427C52.9856 14.1197 53.1727 13.0597 52.7261 13.0827C52.2795 13.1058 52.2971 13.5667 52.2971 13.5667H51.9976C52.2163 12.8755 51.6736 11.3668 51.6736 11.3668C51.6736 11.3668 49.561 12.1404 48.0749 11.5057C48.0749 11.5057 47.4394 12.5754 47.5611 13.4763C47.5611 13.4763 45.2076 11.0565 46.6653 9.40568C48.1231 7.755 51.0312 8.66877 51.0312 8.66877C51.0312 8.66877 50.7899 5.65164 53.5504 7.2161C56.3109 8.78057 53.1587 9.55119 53.1587 9.55119C53.1587 9.55119 54.7649 10.2289 54.5497 12.5214C54.3644 14.4954 52.5221 15.1251 52.5221 15.1251L52.3937 14.1427Z" fill="#372310"/>
<path d="M51.7358 11.3447L51.7133 11.2822L51.6174 11.3169L51.5744 11.3314L51.5072 11.3532C51.4952 11.357 51.4829 11.3608 51.4701 11.3648C51.3246 11.41 51.1612 11.4552 50.9837 11.4973C50.3675 11.6438 49.7443 11.7179 49.1644 11.6807C48.7712 11.6555 48.4139 11.579 48.1009 11.4453C48.0673 11.431 48.0285 11.4466 48.0142 11.4801C47.9999 11.5137 48.0155 11.5525 48.049 11.5668C48.3769 11.7068 48.7486 11.7864 49.156 11.8125C49.7507 11.8507 50.3863 11.7751 51.0143 11.6259C51.1947 11.5829 51.361 11.537 51.5093 11.4909L51.6161 11.4567L51.6329 11.451L51.6583 11.5275L51.6695 11.5623C51.7132 11.6983 51.757 11.8461 51.7978 12.0002C51.8571 12.224 51.905 12.442 51.9375 12.6467C51.995 13.0088 52.0005 13.3064 51.9441 13.5149L51.9347 13.5471L51.9075 13.633H52.3657L52.3631 13.5645C52.362 13.5071 52.3733 13.428 52.4082 13.3521C52.4638 13.2312 52.564 13.1575 52.7295 13.149C52.8788 13.1413 52.9476 13.3256 52.8852 13.5801C52.8193 13.8492 52.6389 14.0529 52.4161 14.0753L52.3912 14.077L52.3184 14.0799L52.4524 15.0501C52.4574 15.0862 52.4907 15.1115 52.5269 15.1065C52.559 15.1021 52.5825 15.0752 52.5838 15.0439L52.5833 15.032L52.4685 14.2012L52.4821 14.1989C52.733 14.149 52.9261 13.9268 53.0052 13.6433L53.0135 13.6115C53.0937 13.2844 52.9888 13.0034 52.7227 13.0171C52.5061 13.0283 52.3636 13.133 52.2882 13.297C52.2585 13.3617 52.2423 13.4266 52.2353 13.4849L52.2338 13.5009H52.0834L52.0887 13.4755C52.1297 13.2664 52.123 12.9994 52.077 12.6854L52.068 12.626C52.0347 12.4165 51.9858 12.1943 51.9255 11.9663C51.8923 11.8412 51.8573 11.7202 51.8219 11.6061L51.7838 11.4865L51.7358 11.3447Z" fill="black"/>
<path fill-rule="evenodd" clip-rule="evenodd" d="M50.1376 15.0497C50.2061 15.0497 50.2639 14.9673 50.2639 14.8698C50.2639 14.7722 50.2061 14.6898 50.1376 14.6898C50.0692 14.6898 50.0114 14.7722 50.0114 14.8698C50.0114 14.9673 50.0692 15.0497 50.1376 15.0497ZM50.1376 14.5577C50.28 14.5577 50.396 14.6977 50.396 14.8698C50.396 15.0418 50.28 15.1818 50.1376 15.1818C49.9951 15.1818 49.8793 15.0418 49.8793 14.8698C49.8793 14.6977 49.9951 14.5577 50.1376 14.5577ZM49.5369 13.842C49.5751 13.9225 49.6799 13.9633 49.8486 13.9633C50.0174 13.9633 50.1223 13.9225 50.1605 13.842C50.2523 13.6487 50.0009 13.2474 49.8486 13.0441C49.6965 13.2474 49.4451 13.6487 49.5369 13.842ZM49.8999 12.8948C49.9554 12.9627 50.4369 13.5673 50.2799 13.8987C50.2179 14.0292 50.0729 14.0954 49.8486 14.0954C49.6245 14.0954 49.4794 14.0292 49.4175 13.8987C49.2604 13.5673 49.742 12.9627 49.7975 12.8948C49.8227 12.8642 49.8748 12.8642 49.8999 12.8948ZM50.7183 12.0553C50.7183 12.0187 50.7477 11.9893 50.7843 11.9893C51.1745 11.9893 51.3988 12.209 51.4082 12.2184C51.4339 12.2442 51.4339 12.2861 51.4082 12.3118C51.3952 12.3248 51.3783 12.3311 51.3614 12.3311C51.3445 12.3311 51.3276 12.3248 51.3148 12.3118C51.3128 12.31 51.1204 12.1213 50.7843 12.1213C50.7477 12.1213 50.7183 12.0918 50.7183 12.0553ZM48.3028 12.2184C48.3122 12.209 48.5365 11.9893 48.9267 11.9893C48.9631 11.9893 48.9927 12.0187 48.9927 12.0553C48.9927 12.0918 48.9631 12.1213 48.9267 12.1213C48.5934 12.1213 48.3979 12.3101 48.3959 12.3119C48.3831 12.3248 48.3663 12.331 48.3496 12.331C48.3325 12.331 48.3156 12.3245 48.3027 12.3115C48.2771 12.2858 48.2771 12.2442 48.3028 12.2184ZM50.7843 12.7058C50.8712 12.7058 50.9416 12.8091 50.9416 12.9366C50.9416 13.0642 50.8712 13.1675 50.7843 13.1675C50.6974 13.1675 50.6269 13.0642 50.6269 12.9366C50.6269 12.8091 50.6974 12.7058 50.7843 12.7058ZM48.9267 12.7058C49.0136 12.7058 49.084 12.8091 49.084 12.9366C49.084 13.0642 49.0136 13.1675 48.9267 13.1675C48.8397 13.1675 48.7692 13.0642 48.7692 12.9366C48.7692 12.8091 48.8397 12.7058 48.9267 12.7058Z" fill="black"/>
<path fill-rule="evenodd" clip-rule="evenodd" d="M51.0756 13.3101C50.8203 13.3101 50.6132 13.4283 50.6132 13.5742C50.6132 13.7201 50.8203 13.8384 51.0756 13.8384C51.3309 13.8384 51.5378 13.7201 51.5378 13.5742C51.5378 13.4283 51.3309 13.3101 51.0756 13.3101ZM48.698 13.3101C48.4427 13.3101 48.2357 13.4283 48.2357 13.5742C48.2357 13.7201 48.4427 13.8384 48.698 13.8384C48.9533 13.8384 49.1603 13.7201 49.1603 13.5742C49.1603 13.4283 48.9533 13.3101 48.698 13.3101Z" fill="#E2A2B5"/>
</g>
<defs>
<clipPath id="clip0_505_2261">
<rect width="64" height="68.2836" fill="white"/>
</clipPath>
</defs>
</svg>
