<svg width="166" height="149" viewBox="0 0 166 149" fill="none" xmlns="http://www.w3.org/2000/svg">
<path d="M2.65266 29.5049C2.13656 27.8485 2.05651 26.1306 2.43014 24.7292C2.80377 23.3278 3.60046 22.3577 4.64496 22.0323L26.3054 15.2834C27.5957 19.4244 29.8704 23.0727 32.6291 25.4255C35.3879 27.7784 38.4047 28.6431 41.016 27.8295C43.6272 27.0159 45.6189 24.5906 46.553 21.0872C47.4871 17.5837 47.287 13.2891 45.9967 9.14802L67.6572 2.39912C68.7017 2.07368 69.9084 2.41956 71.0119 3.36071C72.1154 4.30185 73.0253 5.76116 73.5414 7.41757L108.569 119.837C109.085 121.493 109.165 123.211 108.791 124.613C108.418 126.014 107.621 126.984 106.576 127.31L84.916 134.059C83.6257 129.918 81.351 126.269 78.5923 123.916C75.8335 121.564 72.8167 120.699 70.2054 121.512C67.5942 122.326 65.6025 124.751 64.6684 128.255C63.7343 131.758 63.9344 136.053 65.2247 140.194L43.5642 146.943C42.5197 147.268 41.313 146.922 40.2095 145.981C39.106 145.04 38.1961 143.581 37.68 141.924L2.65266 29.5049ZM12.4751 33.2963L43.6106 133.225L55.2993 129.583L55.3148 128.509C55.4521 123.819 56.4605 119.588 58.2427 116.224C60.0249 112.861 62.5209 110.478 65.4903 109.305L66.3135 109.021C69.4963 108.029 73.0442 108.414 76.5842 110.138C80.1242 111.861 83.5257 114.858 86.431 118.814L87.0575 119.688L98.7463 116.046L67.6108 16.1172L55.9181 19.7604L55.9066 20.8329C55.7693 25.5234 54.7609 29.7542 52.9787 33.1176C51.1965 36.4811 48.7005 38.8639 45.7311 40.0367L44.9079 40.3206C38.1971 42.4115 30.5138 38.3167 24.7904 30.528L24.16 29.6555L12.4751 33.2963Z" fill="url(#paint0_linear_443_326)"/>
<path d="M92.4614 7.20912C92.9227 5.53663 93.7842 4.04821 94.8561 3.0713C95.9281 2.09439 97.1228 1.70902 98.1774 1.99995L120.048 8.0332C118.895 12.2144 118.836 16.5133 119.885 19.9842C120.933 23.455 123.004 25.8136 125.64 26.5409C128.277 27.2682 131.264 26.3048 133.943 23.8625C136.623 21.4202 138.777 17.6992 139.93 13.518L161.801 19.5512C162.856 19.8422 163.684 20.7855 164.103 22.1739C164.523 23.5622 164.499 25.2818 164.038 26.9543L132.725 140.464C132.263 142.137 131.402 143.625 130.33 144.602C129.258 145.579 128.063 145.965 127.009 145.674L105.138 139.64C106.292 135.459 106.35 131.16 105.302 127.689C104.253 124.219 102.183 121.86 99.546 121.133C96.9094 120.405 93.9226 121.369 91.2427 123.811C88.5628 126.253 86.4092 129.974 85.2557 134.156L63.3852 128.122C62.3305 127.831 61.5024 126.888 61.0829 125.5C60.6634 124.111 60.6869 122.392 61.1483 120.719L92.4614 7.20912ZM98.6747 15.7091L70.8409 116.607L82.643 119.863L83.2365 118.968C85.888 115.096 89.0236 112.082 92.3413 110.216C95.6591 108.35 99.0471 107.695 102.179 108.314L103.025 108.52C106.239 109.406 109.016 111.649 111.062 115.012C113.108 118.376 114.349 122.736 114.655 127.635L114.709 128.709L126.511 131.964L154.345 31.0665L142.539 27.8096L141.95 28.7056C139.298 32.5773 136.163 35.5912 132.845 37.4572C129.527 39.3231 126.139 39.9782 123.007 39.3594L122.161 39.1531C115.385 37.2839 111.135 29.6852 110.532 20.0386L110.473 18.9638L98.6747 15.7091Z" fill="url(#paint1_linear_443_326)"/>
<defs>
<linearGradient id="paint0_linear_443_326" x1="39.626" y1="148.17" x2="127.902" y2="53.8972" gradientUnits="userSpaceOnUse">
<stop stop-color="#FEB41D"/>
<stop offset="1" stop-color="#F4DC20"/>
</linearGradient>
<linearGradient id="paint1_linear_443_326" x1="59.4087" y1="127.025" x2="184.639" y2="95.4453" gradientUnits="userSpaceOnUse">
<stop stop-color="#FEB41D"/>
<stop offset="1" stop-color="#F4DC20"/>
</linearGradient>
</defs>
</svg>
