<svg width="90" height="66" viewBox="0 0 90 66" fill="none" xmlns="http://www.w3.org/2000/svg">
<path fill-rule="evenodd" clip-rule="evenodd" d="M78.7877 18.6806C78.7326 18.6406 78.6021 18.6264 78.5414 18.6144C78.2889 18.5646 78.0287 18.543 77.7713 18.543C76.9775 18.5441 76.1709 18.622 75.3903 18.7569C74.8948 18.8425 74.2956 19.1305 73.8026 18.9741C72.9437 18.7016 72.0757 18.7149 71.2608 19.1039C70.5159 19.4597 69.9502 20.1355 69.6202 20.8655C69.5704 20.9758 69.3684 21.3814 69.3112 21.6549C69.2867 21.7107 69.2633 21.7671 69.2421 21.8242C69.182 21.9864 69.1282 22.1515 69.078 22.3169C69.0566 22.3875 69.0028 22.5433 69.0668 22.5734C68.9646 22.7618 68.8741 22.9559 68.7987 23.1563C68.5795 23.7394 68.3397 24.3788 68.2627 24.9967C68.2342 25.2254 68.2331 25.4555 68.2596 25.6849C68.2727 25.7981 68.2672 26.026 68.3441 26.1121C68.5072 26.2949 68.5909 26.0389 68.5724 25.917C68.4321 24.9881 68.7032 24.1157 69.0244 23.2425C69.2322 22.6778 69.5735 22.1612 69.9558 21.6933C70.2652 21.3146 70.5972 21.0165 71.0213 20.7654C71.5402 20.4584 72.0947 20.2101 72.6442 19.9611C73.0056 19.7973 73.3674 19.6379 73.7389 19.4967C73.8215 19.4653 73.9515 19.3848 74.0431 19.3845C74.2367 19.3838 74.5112 19.5267 74.6982 19.5798C75.3137 19.7548 75.9368 19.9786 76.5729 20.068C76.9807 20.1254 77.3629 20.0608 77.7445 19.9249C77.7834 19.9111 77.8487 19.8754 77.9288 19.8245C78.212 19.7155 78.48 19.5784 78.7133 19.3807C78.8477 19.2667 78.9696 19.1194 79.0809 18.9847C79.1142 18.9444 79.1289 18.8982 79.1293 18.8543C79.1546 18.8411 79.1712 18.8257 79.1751 18.8077C79.2028 18.6751 78.9498 18.6727 78.7877 18.6806Z" fill="#89C5CC"/>
<path fill-rule="evenodd" clip-rule="evenodd" d="M77.7148 22.3699C77.3616 22.2935 76.9715 22.2993 76.6117 22.3057C74.6818 22.3317 72.7868 23.237 71.5535 24.6836C70.5034 25.9153 70.2148 27.4464 70.0073 28.9942C69.9868 29.1478 69.978 29.3005 69.9664 29.4545C69.9639 29.4876 69.9601 29.5171 69.9561 29.5449C69.8746 29.6171 69.8319 29.7014 69.8801 29.7939C69.7004 30.1836 69.5484 30.5832 69.418 30.9952C69.034 32.2083 68.6435 33.4444 68.884 34.72C68.9403 34.018 69.0585 33.3003 69.1999 32.6098C69.208 32.5701 69.2168 32.5308 69.2259 32.4916C69.2269 32.4875 69.2277 32.4834 69.2287 32.4793C69.2788 32.2679 69.3438 32.0628 69.4229 31.8609C69.4238 31.8587 69.4246 31.8565 69.4254 31.8543C69.4359 31.8278 69.4469 31.8014 69.458 31.7749C69.4805 31.7203 69.5039 31.6656 69.5285 31.6113C69.5369 31.5928 69.5449 31.5741 69.5526 31.5553C69.6678 31.2755 69.7165 30.9604 69.8197 30.6709C69.8443 30.6051 69.8701 30.5395 69.8971 30.4743C69.8987 30.4705 69.9003 30.4666 69.902 30.4628C69.9751 30.2873 70.0558 30.1139 70.1412 29.9424C70.1876 29.9078 70.2124 29.822 70.2523 29.7441C70.2607 29.7289 70.3254 29.6264 70.3446 29.5674C70.3949 29.4711 70.445 29.3747 70.4957 29.2785C70.4941 29.2791 70.4926 29.2795 70.4911 29.2801C70.5417 29.1877 70.5925 29.0958 70.643 29.0042C70.654 28.984 70.6653 28.9639 70.6765 28.9437C70.6946 28.9116 70.7127 28.8794 70.7307 28.8474C70.8998 28.5477 71.079 28.2539 71.2651 27.9638C71.3316 27.8603 71.4904 27.7118 71.5208 27.5955C71.5218 27.5912 71.5222 27.5872 71.5228 27.5831C71.9267 27.0209 72.3917 26.5024 72.9493 26.0916C72.8819 26.1638 72.7386 26.4089 72.7007 26.4573C72.5848 26.6059 72.4589 26.7442 72.3326 26.8841C72.1065 27.1348 71.8856 27.3934 71.6893 27.6669C71.3304 28.1671 71.0208 28.6935 70.7281 29.2304C70.7253 29.2336 70.7223 29.2366 70.7197 29.2399C70.5725 29.4196 70.48 29.6911 70.374 29.8967C70.7932 29.7044 71.2565 29.5791 71.6867 29.4083C72.1155 29.238 72.5328 29.0484 72.9356 28.8258C73.4709 28.5298 74.0263 28.1958 74.5321 27.8177C75.1119 27.4613 75.599 26.9709 76.029 26.4563C76.5378 25.8472 77.0041 25.2331 77.2924 24.4936C77.434 24.1303 77.5454 23.7515 77.6115 23.3681C77.6144 23.3515 77.6181 23.3334 77.6221 23.3145C77.6897 23.1821 77.7502 23.0468 77.8008 22.9083C77.8814 22.6887 78.0715 22.4472 77.7148 22.3699Z" fill="#56919C"/>
<path fill-rule="evenodd" clip-rule="evenodd" d="M80.9192 34.5769C80.7136 34.1103 80.2778 33.7494 79.8498 33.482C78.1783 32.4376 76.2186 32.0776 74.2824 32.1558C73.2214 32.1988 72.1521 32.4295 71.1442 32.7356C70.5623 32.9123 69.9973 33.1437 69.4912 33.4775C69.1496 33.7027 68.8451 33.9695 68.566 34.2666C68.2258 34.6287 67.8974 35.0097 67.6054 35.4114C67.4904 35.5697 66.846 36.3876 67.1111 36.5739C67.0959 36.5945 67.0827 36.6149 67.0728 36.6345C65.8936 37.1962 64.8415 38.0607 63.8518 38.8851C62.9906 39.6026 62.157 40.3479 61.4014 41.1746C60.4068 42.2633 59.478 43.4188 58.6279 44.6223C58.4452 44.8809 58.2671 45.1426 58.0905 45.4055C57.9397 45.6297 57.7889 45.8539 57.6384 46.0783C57.4696 46.3297 57.2399 46.5969 57.1212 46.8774C57.0179 47.1218 57.2307 47.208 57.3773 46.9923C57.5543 46.7316 57.7199 46.4631 57.8985 46.2031C58.1356 45.8581 58.3731 45.5135 58.612 45.1698C60.2713 42.7823 62.2397 40.6383 64.5275 38.8333C65.4534 38.1028 66.3971 37.4533 67.4385 36.8931C68.3541 36.4006 69.3431 35.9879 70.312 35.6334C71.2536 35.289 72.2062 34.9729 73.2015 34.8044C74.0092 34.6678 74.8316 34.623 75.6525 34.6161C76.6953 34.6074 77.7294 34.6092 78.7652 34.7496C79.3036 34.8226 79.8375 34.9204 80.3744 35.0031C80.4711 35.0179 80.5726 35.0373 80.6695 35.0452C80.9928 35.0715 81.0312 34.831 80.9192 34.5769Z" fill="#C1DEE2"/>
<path fill-rule="evenodd" clip-rule="evenodd" d="M16.9987 25.1159C16.8428 25.2381 16.6899 25.363 16.5408 25.4929C16.4271 25.5919 16.226 25.7104 16.1853 25.8604C16.1428 26.0162 16.2767 26.1622 16.3825 26.2564C16.9418 26.7549 17.5717 27.0919 18.3469 27.1478C19.5403 27.2342 20.5791 26.939 21.6145 26.3582C22.3419 25.9502 22.8237 25.3467 22.929 24.5318C23.7953 24.8805 24.6331 25.3611 25.3451 25.951C25.6963 26.242 25.9989 26.5646 26.2788 26.9219C26.458 27.1509 26.6314 27.3836 26.7924 27.6252C26.8623 27.7301 26.9334 27.9163 27.0488 27.9768C27.1844 28.0477 27.3482 27.9364 27.3415 27.7905C27.3359 27.669 27.2005 27.5281 27.1371 27.4288C27.032 27.2638 26.9252 27.1 26.8128 26.9396C26.6308 26.68 26.4428 26.4239 26.2377 26.1809C25.7768 25.6349 25.1904 25.1839 24.5824 24.7992C23.4161 24.0613 22.1362 23.5965 20.7172 23.5571C19.8446 23.5329 19.1106 23.8216 18.3644 24.2528C17.8998 24.5212 17.4202 24.7852 16.9987 25.1159Z" fill="#C7D1D9"/>
<path fill-rule="evenodd" clip-rule="evenodd" d="M26.3775 25.1513C25.4705 24.2154 24.5603 23.2913 23.547 22.4672C22.9498 21.9815 22.3204 21.5399 21.704 21.0794C21.7751 21.1419 21.8448 21.2061 21.913 21.272C21.7205 21.1411 21.4687 21.0671 21.2647 20.9459C21.0371 20.8108 20.8196 20.6563 20.6064 20.5005C20.1899 20.1964 19.7797 19.8867 19.3517 19.5985C18.8747 19.2775 18.3805 18.9808 17.8954 18.6719C17.4838 18.4096 17.0672 18.1227 16.6268 17.9084C16.3867 17.7915 16.1461 17.6531 15.9052 17.5312C15.8245 17.4904 15.0061 16.9726 15.0081 16.9711C15.0534 16.9369 15.4652 17.1308 15.5289 17.1569C15.7149 17.233 15.8929 17.3242 16.0717 17.4148C15.9736 17.2208 15.8958 17.017 15.8536 16.8024C15.8405 16.7362 15.7358 16.254 15.7894 16.2135C15.8161 16.1934 16.0772 17.056 16.0906 17.1389C16.1015 17.2064 16.0999 17.3033 16.1219 17.3671C16.1574 17.4702 16.1557 17.4391 16.234 17.4971C16.3774 17.6035 16.5679 17.67 16.7231 17.7589C16.8069 17.8057 17.0662 17.9915 17.2224 18.0445C17.6949 18.2744 18.1739 18.6281 18.6228 18.9219C18.505 18.7 18.4153 18.468 18.3499 18.2248C18.3344 18.1672 18.1666 17.6493 18.2072 17.6185C18.253 17.584 18.5728 18.3749 18.5917 18.4497C18.6269 18.5888 18.6342 18.7435 18.6783 18.8789C18.7266 19.0274 18.8776 19.0801 19.0135 19.1667C19.5138 19.4852 19.997 19.8235 20.472 20.1775C20.9904 19.2538 20.3928 18.1384 19.889 17.3632C19.5259 16.8047 19.0371 16.3257 18.5209 15.9077C17.8321 15.3497 17.044 14.904 16.2569 14.4962C15.3397 14.021 14.3484 13.7267 13.3178 13.5908C12.7788 13.5196 12.2274 13.5216 11.6829 13.5444C11.4169 13.5556 11.1616 13.5908 10.9068 13.6777C10.7918 13.717 10.6808 13.7663 10.5726 13.8217C10.4905 13.8637 10.2916 13.9082 10.2443 13.9708C9.85524 14.4782 9.65621 14.9838 9.68663 15.6213C9.71534 16.2249 9.90559 16.8288 10.1637 17.3672C10.4513 17.9667 10.8211 18.5108 11.3047 18.9674C11.6737 19.3159 12.0863 19.619 12.4961 19.9183C13.9537 20.9827 15.8017 21.9084 17.6896 21.6706C18.3007 21.5936 18.8819 21.3795 19.4251 21.0886C19.553 21.02 19.6803 20.9506 19.801 20.8696C19.8825 20.815 20.1003 20.5692 20.1822 20.5602C20.2944 20.548 20.5364 20.7769 20.6418 20.8465C21.4425 21.3761 22.2223 21.9343 22.9857 22.5152C23.7978 23.1333 24.5702 23.7933 25.3199 24.4844C25.6386 24.7784 25.9554 25.073 26.2651 25.3769C26.3371 25.4475 26.5133 25.7078 26.644 25.7196C26.7267 25.7271 26.7824 25.6563 26.7706 25.5798C26.7501 25.4465 26.4704 25.2472 26.3775 25.1513Z" fill="#C1DEE2"/>
<path fill-rule="evenodd" clip-rule="evenodd" d="M18.2437 28.3403C18.0928 28.3403 17.9423 28.3434 17.7916 28.3512C17.6766 28.3572 17.5011 28.3334 17.4039 28.405C17.3028 28.4794 17.3098 28.6316 17.3256 28.7392C17.409 29.3079 17.6126 29.8121 18.0386 30.2151C18.6944 30.8354 19.4462 31.1506 20.3358 31.291C20.9608 31.3896 21.5377 31.2527 21.9978 30.8083C22.334 31.4321 22.5889 32.1225 22.7169 32.8193C22.78 33.1631 22.7992 33.5028 22.7882 33.8529C22.781 34.0771 22.7687 34.3008 22.7447 34.524C22.7342 34.621 22.6847 34.7677 22.7227 34.8594C22.7672 34.967 22.9175 34.9774 22.9849 34.8856C23.0411 34.8093 23.0308 34.6592 23.0423 34.5689C23.0615 34.4188 23.0791 34.2685 23.0918 34.1176C23.1124 33.8735 23.1276 33.6287 23.1265 33.3835C23.1239 32.8329 23.0014 32.2802 22.834 31.7575C22.5127 30.7546 21.9915 29.8634 21.1808 29.1641C20.6823 28.7342 20.1118 28.5601 19.4646 28.4666C19.0615 28.4083 18.6519 28.3403 18.2437 28.3403Z" fill="#89C5CC"/>
<path fill-rule="evenodd" clip-rule="evenodd" d="M20.5714 32.3276C18.9424 32.3276 17.8453 33.6405 17.3266 35.0051C17.131 35.5193 17.0852 36.0842 17.0097 36.6242C16.9856 36.7976 16.9946 37.0616 16.9242 37.216C16.8987 37.2721 16.8401 37.2921 16.8681 37.3684C16.8851 37.4146 16.9183 37.4429 16.9683 37.4521C17.0707 37.471 17.2156 37.3593 17.3034 37.3153C18.0321 36.9499 18.5108 36.3848 18.9013 35.6935C19.1435 35.2651 19.3892 34.8202 19.5329 34.3498C19.6208 34.0624 19.6719 33.7598 19.702 33.4616C19.7138 33.3442 19.7252 33.224 19.7246 33.106C19.7239 32.9887 19.6693 32.9268 19.6301 32.8248C20.1736 32.6191 20.7872 32.563 21.3378 32.7762C21.8471 32.9734 22.2701 33.3544 22.5069 33.8333C22.5684 33.9577 22.616 34.0889 22.6505 34.2229C22.6731 34.3106 22.6742 34.4243 22.7162 34.5036C22.8178 34.6959 23.0318 34.5674 23.0113 34.3884C22.954 33.8893 22.6685 33.3882 22.3035 33.0411C21.8431 32.6034 21.2192 32.3276 20.5714 32.3276Z" fill="#89C5CC"/>
<path d="M37.7089 6.46729H23.2406C22.7372 6.46729 22.3292 6.87533 22.3292 7.37868V36.4293C22.3292 36.9327 22.7372 37.3407 23.2406 37.3407H37.7089C38.2123 37.3407 38.6203 36.9327 38.6203 36.4293V7.37868C38.6203 6.87533 38.2123 6.46729 37.7089 6.46729Z" fill="#C7D1D9"/>
<path d="M30.4177 35.5178C31.3615 35.5178 32.1266 34.7527 32.1266 33.809C32.1266 32.8652 31.3615 32.1001 30.4177 32.1001C29.4739 32.1001 28.7089 32.8652 28.7089 33.809C28.7089 34.7527 29.4739 35.5178 30.4177 35.5178Z" fill="white"/>
<path d="M28.9367 8.51771C29.0625 8.51771 29.1646 8.4157 29.1646 8.28986C29.1646 8.16402 29.0625 8.06201 28.9367 8.06201C28.8109 8.06201 28.7089 8.16402 28.7089 8.28986C28.7089 8.4157 28.8109 8.51771 28.9367 8.51771Z" fill="white"/>
<path d="M31.8987 8.06201H29.962C29.8361 8.06201 29.7341 8.16402 29.7341 8.28986C29.7341 8.4157 29.8361 8.51771 29.962 8.51771H31.8987C32.0245 8.51771 32.1265 8.4157 32.1265 8.28986C32.1265 8.16402 32.0245 8.06201 31.8987 8.06201Z" fill="white"/>
<path d="M36.2278 9.65674H24.6076C24.3559 9.65674 24.1519 9.86076 24.1519 10.1124V14.6694C24.1519 14.9211 24.3559 15.1251 24.6076 15.1251H36.2278C36.4795 15.1251 36.6835 14.9211 36.6835 14.6694V10.1124C36.6835 9.86076 36.4795 9.65674 36.2278 9.65674Z" fill="white"/>
<path d="M30.7595 11.2974H25.519C25.3302 11.2974 25.1772 11.4504 25.1772 11.6391V11.7758C25.1772 11.9646 25.3302 12.1176 25.519 12.1176H30.7595C30.9482 12.1176 31.1012 11.9646 31.1012 11.7758V11.6391C31.1012 11.4504 30.9482 11.2974 30.7595 11.2974Z" fill="#C7D1D9"/>
<path d="M28.8118 12.6641H25.519C25.3302 12.6641 25.1772 12.8171 25.1772 13.0058V13.1425C25.1772 13.3313 25.3302 13.4843 25.519 13.4843H28.8118C29.0006 13.4843 29.1536 13.3313 29.1536 13.1425V13.0058C29.1536 12.8171 29.0006 12.6641 28.8118 12.6641Z" fill="#C7D1D9"/>
<path d="M35.3443 13.1887C35.7847 13.1887 36.1418 12.8316 36.1418 12.3912C36.1418 11.9508 35.7847 11.5938 35.3443 11.5938C34.9039 11.5938 34.5468 11.9508 34.5468 12.3912C34.5468 12.8316 34.9039 13.1887 35.3443 13.1887Z" fill="#C7D1D9"/>
<path d="M35.3443 12.7329C35.533 12.7329 35.686 12.5798 35.686 12.3911C35.686 12.2023 35.533 12.0493 35.3443 12.0493C35.1555 12.0493 35.0025 12.2023 35.0025 12.3911C35.0025 12.5798 35.1555 12.7329 35.3443 12.7329Z" fill="#F2F2F2"/>
<path d="M36.2278 16.0366H24.6076C24.3559 16.0366 24.1519 16.2406 24.1519 16.4923V19.7961C24.1519 20.0478 24.3559 20.2518 24.6076 20.2518H36.2278C36.4795 20.2518 36.6835 20.0478 36.6835 19.7961V16.4923C36.6835 16.2406 36.4795 16.0366 36.2278 16.0366Z" fill="white"/>
<path d="M34.2028 17.3013H28.911C28.7364 17.3013 28.5949 17.4428 28.5949 17.6174C28.5949 17.792 28.7364 17.9335 28.911 17.9335H34.2028C34.3774 17.9335 34.519 17.792 34.519 17.6174C34.519 17.4428 34.3774 17.3013 34.2028 17.3013Z" fill="#C7D1D9"/>
<path d="M32.2552 18.3555H28.911C28.7364 18.3555 28.5949 18.497 28.5949 18.6716C28.5949 18.8462 28.7364 18.9877 28.911 18.9877H32.2552C32.4298 18.9877 32.5713 18.8462 32.5713 18.6716C32.5713 18.497 32.4298 18.3555 32.2552 18.3555Z" fill="#C7D1D9"/>
<path d="M26.5443 19.511C27.2993 19.511 27.9114 18.899 27.9114 18.1439C27.9114 17.3889 27.2993 16.7769 26.5443 16.7769C25.7893 16.7769 25.1772 17.3889 25.1772 18.1439C25.1772 18.899 25.7893 19.511 26.5443 19.511Z" fill="#C5CFD6"/>
<path d="M36.2278 21.1636H24.6076C24.3559 21.1636 24.1519 21.3676 24.1519 21.6193V24.9231C24.1519 25.1747 24.3559 25.3788 24.6076 25.3788H36.2278C36.4795 25.3788 36.6835 25.1747 36.6835 24.9231V21.6193C36.6835 21.3676 36.4795 21.1636 36.2278 21.1636Z" fill="white"/>
<path d="M30.7851 22.4277H25.4933C25.3187 22.4277 25.1772 22.5693 25.1772 22.7439C25.1772 22.9185 25.3187 23.06 25.4933 23.06H30.7851C30.9597 23.06 31.1012 22.9185 31.1012 22.7439C31.1012 22.5693 30.9597 22.4277 30.7851 22.4277Z" fill="#C7D1D9"/>
<path d="M28.8375 23.4814H25.4933C25.3187 23.4814 25.1772 23.623 25.1772 23.7976C25.1772 23.9722 25.3187 24.1137 25.4933 24.1137H28.8375C29.0121 24.1137 29.1536 23.9722 29.1536 23.7976C29.1536 23.623 29.0121 23.4814 28.8375 23.4814Z" fill="#C7D1D9"/>
<path d="M35.3443 24.0686C35.7847 24.0686 36.1418 23.7115 36.1418 23.2711C36.1418 22.8307 35.7847 22.4736 35.3443 22.4736C34.9039 22.4736 34.5468 22.8307 34.5468 23.2711C34.5468 23.7115 34.9039 24.0686 35.3443 24.0686Z" fill="#C7D1D9"/>
<path d="M35.3443 23.6123C35.533 23.6123 35.686 23.4592 35.686 23.2705C35.686 23.0817 35.533 22.9287 35.3443 22.9287C35.1555 22.9287 35.0025 23.0817 35.0025 23.2705C35.0025 23.4592 35.1555 23.6123 35.3443 23.6123Z" fill="#F2F2F2"/>
<path d="M36.2278 26.29H24.6076C24.3559 26.29 24.1519 26.4941 24.1519 26.7457V30.0495C24.1519 30.3012 24.3559 30.5052 24.6076 30.5052H36.2278C36.4795 30.5052 36.6835 30.3012 36.6835 30.0495V26.7457C36.6835 26.4941 36.4795 26.29 36.2278 26.29Z" fill="white"/>
<path d="M34.2028 27.5547H28.911C28.7364 27.5547 28.5949 27.6962 28.5949 27.8708C28.5949 28.0454 28.7364 28.187 28.911 28.187H34.2028C34.3774 28.187 34.519 28.0454 34.519 27.8708C34.519 27.6962 34.3774 27.5547 34.2028 27.5547Z" fill="#C7D1D9"/>
<path d="M32.2552 28.6084H28.911C28.7364 28.6084 28.5949 28.7499 28.5949 28.9245C28.5949 29.0991 28.7364 29.2407 28.911 29.2407H32.2552C32.4298 29.2407 32.5713 29.0991 32.5713 28.9245C32.5713 28.7499 32.4298 28.6084 32.2552 28.6084Z" fill="#C7D1D9"/>
<path d="M26.5443 29.7645C27.2993 29.7645 27.9114 29.1524 27.9114 28.3974C27.9114 27.6423 27.2993 27.0303 26.5443 27.0303C25.7893 27.0303 25.1772 27.6423 25.1772 28.3974C25.1772 29.1524 25.7893 29.7645 26.5443 29.7645Z" fill="#C5CFD6"/>
<path d="M68.8101 11.7075H36.2279C35.7245 11.7075 35.3165 12.1156 35.3165 12.6189V46.2265C35.3165 46.7299 35.7245 47.1379 36.2279 47.1379H68.8101C69.3135 47.1379 69.7215 46.7299 69.7215 46.2265V12.6189C69.7215 12.1156 69.3135 11.7075 68.8101 11.7075Z" fill="#F2F2F2"/>
<path d="M67.2152 16.1504H61.8607C61.3574 16.1504 60.9493 16.5584 60.9493 17.0618V23.5555C60.9493 24.0588 61.3574 24.4668 61.8607 24.4668H67.2152C67.7185 24.4668 68.1266 24.0588 68.1266 23.5555V17.0618C68.1266 16.5584 67.7185 16.1504 67.2152 16.1504Z" fill="white"/>
<path d="M64.538 20.9269C65.444 20.9269 66.1785 20.1892 66.1785 19.2793C66.1785 18.3695 65.444 17.6318 64.538 17.6318C63.6319 17.6318 62.8975 18.3695 62.8975 19.2793C62.8975 20.1892 63.6319 20.9269 64.538 20.9269Z" fill="#C7D1D9"/>
<path d="M66.7923 21.3389H62.2836C62.113 21.3389 61.9747 21.4772 61.9747 21.6478C61.9747 21.8184 62.113 21.9567 62.2836 21.9567H66.7923C66.9629 21.9567 67.1013 21.8184 67.1013 21.6478C67.1013 21.4772 66.9629 21.3389 66.7923 21.3389Z" fill="#C7D1D9"/>
<path d="M65.9721 22.3687H63.1038C62.9332 22.3687 62.7949 22.507 62.7949 22.6776C62.7949 22.8482 62.9332 22.9865 63.1038 22.9865H65.9721C66.1427 22.9865 66.281 22.8482 66.281 22.6776C66.281 22.507 66.1427 22.3687 65.9721 22.3687Z" fill="#C7D1D9"/>
<path d="M35.3165 12.6189C35.3165 12.1156 35.7245 11.7075 36.2279 11.7075H68.8101C69.3135 11.7075 69.7215 12.1156 69.7215 12.6189V14.4417H35.3165V12.6189Z" fill="#C5CFD6"/>
<path d="M36.7974 13.7581C37.0491 13.7581 37.2531 13.5541 37.2531 13.3024C37.2531 13.0507 37.0491 12.8467 36.7974 12.8467C36.5458 12.8467 36.3417 13.0507 36.3417 13.3024C36.3417 13.5541 36.5458 13.7581 36.7974 13.7581Z" fill="#F2F2F2"/>
<path d="M38.1645 13.7581C38.4162 13.7581 38.6202 13.5541 38.6202 13.3024C38.6202 13.0507 38.4162 12.8467 38.1645 12.8467C37.9128 12.8467 37.7088 13.0507 37.7088 13.3024C37.7088 13.5541 37.9128 13.7581 38.1645 13.7581Z" fill="#F2F2F2"/>
<path d="M39.5316 13.7581C39.7833 13.7581 39.9873 13.5541 39.9873 13.3024C39.9873 13.0507 39.7833 12.8467 39.5316 12.8467C39.2799 12.8467 39.0759 13.0507 39.0759 13.3024C39.0759 13.5541 39.2799 13.7581 39.5316 13.7581Z" fill="#F2F2F2"/>
<path d="M67.2152 25.2642H61.8607C61.3574 25.2642 60.9493 25.6722 60.9493 26.1756V44.1756C60.9493 44.6789 61.3574 45.0869 61.8607 45.0869H67.2152C67.7185 45.0869 68.1266 44.6789 68.1266 44.1756V26.1756C68.1266 25.6722 67.7185 25.2642 67.2152 25.2642Z" fill="white"/>
<path d="M65.6203 27.3154H63.4557C63.204 27.3154 63 27.5195 63 27.7711V29.48C63 29.7317 63.204 29.9357 63.4557 29.9357H65.6203C65.8719 29.9357 66.0759 29.7317 66.0759 29.48V27.7711C66.0759 27.5195 65.8719 27.3154 65.6203 27.3154Z" fill="#C7D1D9"/>
<path d="M65.6203 30.8467H63.4557C63.204 30.8467 63 31.0507 63 31.3024V32.8973C63 33.149 63.204 33.353 63.4557 33.353H65.6203C65.8719 33.353 66.0759 33.149 66.0759 32.8973V31.3024C66.0759 31.0507 65.8719 30.8467 65.6203 30.8467Z" fill="#AFB9C5"/>
<path d="M65.6203 34.2646H63.4557C63.204 34.2646 63 34.4687 63 34.7203V36.3153C63 36.567 63.204 36.771 63.4557 36.771H65.6203C65.8719 36.771 66.0759 36.567 66.0759 36.3153V34.7203C66.0759 34.4687 65.8719 34.2646 65.6203 34.2646Z" fill="#C7D1D9"/>
<path d="M65.6203 41.1001H63.4557C63.204 41.1001 63 41.3041 63 41.5558V43.1507C63 43.4024 63.204 43.6064 63.4557 43.6064H65.6203C65.8719 43.6064 66.0759 43.4024 66.0759 43.1507V41.5558C66.0759 41.3041 65.8719 41.1001 65.6203 41.1001Z" fill="#C7D1D9"/>
<path d="M65.6203 37.6821H63.4557C63.204 37.6821 63 37.8862 63 38.1378V39.7328C63 39.9844 63.204 40.1885 63.4557 40.1885H65.6203C65.8719 40.1885 66.0759 39.9844 66.0759 39.7328V38.1378C66.0759 37.8862 65.8719 37.6821 65.6203 37.6821Z" fill="#C5CFD6"/>
<path d="M58.5569 16.7202H37.5949C37.3432 16.7202 37.1392 16.9242 37.1392 17.1759V21.0493C37.1392 21.301 37.3432 21.505 37.5949 21.505H58.5569C58.8086 21.505 59.0126 21.301 59.0126 21.0493V17.1759C59.0126 16.9242 58.8086 16.7202 58.5569 16.7202Z" fill="white"/>
<path d="M53.0886 18.1558H38.5063C38.3176 18.1558 38.1646 18.3088 38.1646 18.4975V18.5317C38.1646 18.7205 38.3176 18.8735 38.5063 18.8735H53.0886C53.2774 18.8735 53.4304 18.7205 53.4304 18.5317V18.4975C53.4304 18.3088 53.2774 18.1558 53.0886 18.1558Z" fill="#C7D1D9"/>
<path d="M48.0697 19.3516H38.5063C38.3176 19.3516 38.1646 19.5046 38.1646 19.6933V19.7275C38.1646 19.9163 38.3176 20.0693 38.5063 20.0693H48.0697C48.2585 20.0693 48.4115 19.9163 48.4115 19.7275V19.6933C48.4115 19.5046 48.2585 19.3516 48.0697 19.3516Z" fill="#C7D1D9"/>
<path d="M56.6751 19.9099C57.1155 19.9099 57.4726 19.5528 57.4726 19.1124C57.4726 18.672 57.1155 18.3149 56.6751 18.3149C56.2347 18.3149 55.8776 18.672 55.8776 19.1124C55.8776 19.5528 56.2347 19.9099 56.6751 19.9099Z" fill="#C7D1D9"/>
<path d="M56.6751 19.4545C56.8638 19.4545 57.0169 19.3015 57.0169 19.1128C57.0169 18.924 56.8638 18.771 56.6751 18.771C56.4863 18.771 56.3333 18.924 56.3333 19.1128C56.3333 19.3015 56.4863 19.4545 56.6751 19.4545Z" fill="#F2F2F2"/>
<path d="M58.5569 22.4165H37.5949C37.3432 22.4165 37.1392 22.6205 37.1392 22.8722V25.8342C37.1392 26.0859 37.3432 26.2899 37.5949 26.2899H58.5569C58.8086 26.2899 59.0126 26.0859 59.0126 25.8342V22.8722C59.0126 22.6205 58.8086 22.4165 58.5569 22.4165Z" fill="white"/>
<path d="M53.1399 23.5786H38.4551C38.2946 23.5786 38.1646 23.7087 38.1646 23.8691C38.1646 24.0296 38.2946 24.1596 38.4551 24.1596H53.1399C53.3003 24.1596 53.4304 24.0296 53.4304 23.8691C53.4304 23.7087 53.3003 23.5786 53.1399 23.5786Z" fill="#C7D1D9"/>
<path d="M48.121 24.5469H38.4551C38.2946 24.5469 38.1646 24.6769 38.1646 24.8374C38.1646 24.9978 38.2946 25.1279 38.4551 25.1279H48.121C48.2814 25.1279 48.4115 24.9978 48.4115 24.8374C48.4115 24.6769 48.2814 24.5469 48.121 24.5469Z" fill="#C7D1D9"/>
<path d="M56.6751 25.1506C57.1155 25.1506 57.4726 24.7936 57.4726 24.3531C57.4726 23.9127 57.1155 23.5557 56.6751 23.5557C56.2347 23.5557 55.8776 23.9127 55.8776 24.3531C55.8776 24.7936 56.2347 25.1506 56.6751 25.1506Z" fill="#C7D1D9"/>
<path d="M56.6751 24.6948C56.8638 24.6948 57.0169 24.5418 57.0169 24.353C57.0169 24.1642 56.8638 24.0112 56.6751 24.0112C56.4863 24.0112 56.3333 24.1642 56.3333 24.353C56.3333 24.5418 56.4863 24.6948 56.6751 24.6948Z" fill="#F2F2F2"/>
<path d="M58.5569 27.2017H37.5949C37.3432 27.2017 37.1392 27.4057 37.1392 27.6574V30.6194C37.1392 30.8711 37.3432 31.0751 37.5949 31.0751H58.5569C58.8086 31.0751 59.0126 30.8711 59.0126 30.6194V27.6574C59.0126 27.4057 58.8086 27.2017 58.5569 27.2017Z" fill="white"/>
<path d="M53.1399 28.3638H38.4551C38.2946 28.3638 38.1646 28.4938 38.1646 28.6543C38.1646 28.8147 38.2946 28.9448 38.4551 28.9448H53.1399C53.3003 28.9448 53.4304 28.8147 53.4304 28.6543C53.4304 28.4938 53.3003 28.3638 53.1399 28.3638Z" fill="#C7D1D9"/>
<path d="M48.121 29.3315H38.4551C38.2946 29.3315 38.1646 29.4616 38.1646 29.622C38.1646 29.7825 38.2946 29.9126 38.4551 29.9126H48.121C48.2814 29.9126 48.4115 29.7825 48.4115 29.622C48.4115 29.4616 48.2814 29.3315 48.121 29.3315Z" fill="#C7D1D9"/>
<path d="M56.6751 29.9353C57.1155 29.9353 57.4726 29.5782 57.4726 29.1378C57.4726 28.6974 57.1155 28.3403 56.6751 28.3403C56.2347 28.3403 55.8776 28.6974 55.8776 29.1378C55.8776 29.5782 56.2347 29.9353 56.6751 29.9353Z" fill="#C7D1D9"/>
<path d="M56.6751 29.4799C56.8638 29.4799 57.0169 29.3269 57.0169 29.1382C57.0169 28.9494 56.8638 28.7964 56.6751 28.7964C56.4863 28.7964 56.3333 28.9494 56.3333 29.1382C56.3333 29.3269 56.4863 29.4799 56.6751 29.4799Z" fill="#AFB9C5"/>
<path d="M58.5569 41.5557H37.5949C37.3432 41.5557 37.1392 41.7597 37.1392 42.0114V44.9734C37.1392 45.2251 37.3432 45.4291 37.5949 45.4291H58.5569C58.8086 45.4291 59.0126 45.2251 59.0126 44.9734V42.0114C59.0126 41.7597 58.8086 41.5557 58.5569 41.5557Z" fill="white"/>
<path d="M53.1399 42.7178H38.4551C38.2946 42.7178 38.1646 42.8478 38.1646 43.0083C38.1646 43.1687 38.2946 43.2988 38.4551 43.2988H53.1399C53.3003 43.2988 53.4304 43.1687 53.4304 43.0083C53.4304 42.8478 53.3003 42.7178 53.1399 42.7178Z" fill="#C7D1D9"/>
<path d="M48.121 43.686H38.4551C38.2946 43.686 38.1646 43.8161 38.1646 43.9765C38.1646 44.137 38.2946 44.267 38.4551 44.267H48.121C48.2814 44.267 48.4115 44.137 48.4115 43.9765C48.4115 43.8161 48.2814 43.686 48.121 43.686Z" fill="#C7D1D9"/>
<path d="M56.6751 44.2898C57.1155 44.2898 57.4726 43.9327 57.4726 43.4923C57.4726 43.0519 57.1155 42.6948 56.6751 42.6948C56.2347 42.6948 55.8776 43.0519 55.8776 43.4923C55.8776 43.9327 56.2347 44.2898 56.6751 44.2898Z" fill="#C7D1D9"/>
<path d="M56.6751 43.8339C56.8638 43.8339 57.0169 43.6809 57.0169 43.4922C57.0169 43.3034 56.8638 43.1504 56.6751 43.1504C56.4863 43.1504 56.3333 43.3034 56.3333 43.4922C56.3333 43.6809 56.4863 43.8339 56.6751 43.8339Z" fill="#F2F2F2"/>
<path d="M58.5569 36.7705H37.5949C37.3432 36.7705 37.1392 36.9745 37.1392 37.2262V40.1882C37.1392 40.4399 37.3432 40.6439 37.5949 40.6439H58.5569C58.8086 40.6439 59.0126 40.4399 59.0126 40.1882V37.2262C59.0126 36.9745 58.8086 36.7705 58.5569 36.7705Z" fill="white"/>
<path d="M53.1399 37.9326H38.4551C38.2946 37.9326 38.1646 38.0627 38.1646 38.2231C38.1646 38.3836 38.2946 38.5136 38.4551 38.5136H53.1399C53.3003 38.5136 53.4304 38.3836 53.4304 38.2231C53.4304 38.0627 53.3003 37.9326 53.1399 37.9326Z" fill="#C7D1D9"/>
<path d="M48.121 38.9014H38.4551C38.2946 38.9014 38.1646 39.0314 38.1646 39.1919C38.1646 39.3523 38.2946 39.4824 38.4551 39.4824H48.121C48.2814 39.4824 48.4115 39.3523 48.4115 39.1919C48.4115 39.0314 48.2814 38.9014 48.121 38.9014Z" fill="#C7D1D9"/>
<path d="M56.6751 39.5051C57.1155 39.5051 57.4726 39.1481 57.4726 38.7076C57.4726 38.2672 57.1155 37.9102 56.6751 37.9102C56.2347 37.9102 55.8776 38.2672 55.8776 38.7076C55.8776 39.1481 56.2347 39.5051 56.6751 39.5051Z" fill="#C7D1D9"/>
<path d="M56.6751 39.0493C56.8638 39.0493 57.0169 38.8963 57.0169 38.7075C57.0169 38.5187 56.8638 38.3657 56.6751 38.3657C56.4863 38.3657 56.3333 38.5187 56.3333 38.7075C56.3333 38.8963 56.4863 39.0493 56.6751 39.0493Z" fill="#F2F2F2"/>
<path d="M58.5569 31.9863H37.5949C37.3432 31.9863 37.1392 32.1904 37.1392 32.442V35.404C37.1392 35.6557 37.3432 35.8597 37.5949 35.8597H58.5569C58.8086 35.8597 59.0126 35.6557 59.0126 35.404V32.442C59.0126 32.1904 58.8086 31.9863 58.5569 31.9863Z" fill="white"/>
<path d="M53.1399 33.1484H38.4551C38.2946 33.1484 38.1646 33.2785 38.1646 33.4389C38.1646 33.5994 38.2946 33.7294 38.4551 33.7294H53.1399C53.3003 33.7294 53.4304 33.5994 53.4304 33.4389C53.4304 33.2785 53.3003 33.1484 53.1399 33.1484Z" fill="#C7D1D9"/>
<path d="M48.121 34.1162H38.4551C38.2946 34.1162 38.1646 34.2463 38.1646 34.4067C38.1646 34.5672 38.2946 34.6972 38.4551 34.6972H48.121C48.2814 34.6972 48.4115 34.5672 48.4115 34.4067C48.4115 34.2463 48.2814 34.1162 48.121 34.1162Z" fill="#C7D1D9"/>
<path d="M56.6751 34.7199C57.1155 34.7199 57.4726 34.3629 57.4726 33.9225C57.4726 33.482 57.1155 33.125 56.6751 33.125C56.2347 33.125 55.8776 33.482 55.8776 33.9225C55.8776 34.3629 56.2347 34.7199 56.6751 34.7199Z" fill="#C7D1D9"/>
<path d="M56.6751 34.2646C56.8638 34.2646 57.0169 34.1116 57.0169 33.9228C57.0169 33.7341 56.8638 33.5811 56.6751 33.5811C56.4863 33.5811 56.3333 33.7341 56.3333 33.9228C56.3333 34.1116 56.4863 34.2646 56.6751 34.2646Z" fill="#F2F2F2"/>
<path fill-rule="evenodd" clip-rule="evenodd" d="M5.34467 38.0489C7.25233 41.2654 9.47408 44.3798 10.8084 47.8965C10.7546 47.482 10.6976 47.0678 10.6338 46.6544C10.2952 44.4625 9.87452 42.2866 9.43227 40.1132C9.20715 39.0067 8.96905 37.9043 8.7248 36.8018C8.59333 36.2097 8.46357 35.6172 8.3296 35.0257C8.29713 34.8823 8.26922 34.632 8.22855 34.3784C9.52523 38.655 10.7757 42.9347 11.6904 47.314C11.8103 47.8888 11.9125 48.4625 11.9962 49.0353C12.0248 48.9046 12.053 48.774 12.0839 48.6436C12.4539 47.0817 13.009 45.5322 13.6701 44.0718C13.986 43.3733 14.349 42.6902 14.7764 42.0536C15.0429 41.6568 15.6714 41.1852 15.9144 40.7788C14.5849 43.2296 14.1049 46.2961 13.3371 48.9607C13.1498 49.6109 12.9613 50.26 12.7765 50.9103C13.9342 48.5769 15.7304 46.6598 18.2278 45.8289C15.2048 47.8364 13.3916 51.3518 12.1697 54.9473C12.1658 54.9899 12.161 55.0326 12.1569 55.0753C12.5164 54.3895 12.9693 53.7692 13.5831 53.3347C14.8969 52.4046 16.3542 52.6756 17.6286 53.4735C16.6284 52.8345 14.8208 53.4163 13.9792 54.0657C13.3768 54.5307 12.862 55.1543 12.4148 55.7629C12.3077 55.9087 12.1615 56.0789 12.0071 56.2605C11.7906 57.6728 11.4378 59.0754 10.9383 60.467C11.0208 60.0676 10.9611 59.4288 10.984 59.131C10.9865 59.0989 10.9886 59.0666 10.991 59.0344C10.9151 59.3392 10.8417 59.6404 10.7711 59.9367C10.9115 59.3712 10.9878 58.7808 11.0474 58.1844C11.0627 57.9281 11.0777 57.6718 11.0935 57.4155C11.0885 56.929 11.0686 56.4406 11.0348 55.9514C10.9152 55.476 10.7814 55.0276 10.671 54.6547C10.2727 53.3092 9.68871 52.02 8.96985 50.8174C8.3141 49.72 7.52905 48.7259 6.62279 47.8268C6.13428 47.3423 5.62299 46.8809 5.11888 46.413C4.9366 46.2438 4.61077 45.828 4.32904 45.6112C6.38115 46.7483 8.49342 47.9784 9.9905 49.8105C9.81494 49.1332 9.62434 48.4654 9.4227 47.811C8.39966 44.4908 7.10788 41.0498 5.34467 38.0489Z" fill="#C7D1D9"/>
<path d="M11.6203 62.973C13.9483 62.973 15.8355 61.4683 15.8355 59.6122C15.8355 57.7561 13.9483 56.2515 11.6203 56.2515C9.2923 56.2515 7.40509 57.7561 7.40509 59.6122C7.40509 61.4683 9.2923 62.973 11.6203 62.973Z" fill="#C5CFD6"/>
<path d="M79.2911 8.46059C79.2911 8.3033 79.1636 8.17578 79.0063 8.17578C78.849 8.17578 78.7215 8.3033 78.7215 8.46059V10.3973C78.7215 10.5546 78.849 10.6821 79.0063 10.6821C79.1636 10.6821 79.2911 10.5546 79.2911 10.3973V8.46059Z" fill="#C7D1D9"/>
<path d="M80.7721 6.7521C80.7721 6.5948 80.6446 6.46729 80.4873 6.46729C80.33 6.46729 80.2025 6.5948 80.2025 6.7521V10.3977C80.2025 10.555 80.33 10.6825 80.4873 10.6825C80.6446 10.6825 80.7721 10.555 80.7721 10.3977V6.7521Z" fill="#C7D1D9"/>
<path d="M82.2532 5.95473C82.2532 5.79744 82.1257 5.66992 81.9684 5.66992C81.8111 5.66992 81.6836 5.79744 81.6836 5.95473V10.3978C81.6836 10.5551 81.8111 10.6826 81.9684 10.6826C82.1257 10.6826 82.2532 10.5551 82.2532 10.3978V5.95473Z" fill="#C7D1D9"/>
<path d="M83.6202 6.7521C83.6202 6.5948 83.4927 6.46729 83.3354 6.46729C83.1781 6.46729 83.0506 6.5948 83.0506 6.7521V10.3977C83.0506 10.555 83.1781 10.6825 83.3354 10.6825C83.4927 10.6825 83.6202 10.555 83.6202 10.3977V6.7521Z" fill="#C7D1D9"/>
<path d="M85.1012 5.15737C85.1012 5.00007 84.9737 4.87256 84.8164 4.87256C84.6591 4.87256 84.5316 5.00007 84.5316 5.15737V10.3979C84.5316 10.5552 84.6591 10.6827 84.8164 10.6827C84.9737 10.6827 85.1012 10.5552 85.1012 10.3979V5.15737Z" fill="#C5CFD6"/>
<path fill-rule="evenodd" clip-rule="evenodd" d="M0 32.7768C0 31.6528 0.923013 30.7329 2.05063 30.7329V32.7768L0.649253 34.2646C0.250633 33.9008 0 33.3673 0 32.7768Z" fill="#F2F2F2"/>
<path fill-rule="evenodd" clip-rule="evenodd" d="M2.00338 32.6694H4.10129C4.10129 33.2048 3.88005 33.7064 3.5303 34.0708C3.14569 34.4694 2.59795 34.7201 2.00338 34.7201C1.45574 34.7201 0.954363 34.5038 0.569641 34.162L2.00338 32.6694Z" fill="#AFB9C5"/>
<path fill-rule="evenodd" clip-rule="evenodd" d="M4.10127 32.7835C4.10127 31.6559 3.17825 30.7329 2.05063 30.7329V32.7835H4.10127ZM1.02532 30.7329L1.84557 32.5785L0 31.7582C0.182506 31.2799 0.592291 30.9154 1.02532 30.7329Z" fill="#C5CFD6"/>
<path fill-rule="evenodd" clip-rule="evenodd" d="M87.7369 37.8923C87.539 38.0976 87.2587 38.2265 86.9469 38.2265C86.3479 38.2265 85.8624 37.7534 85.8624 37.1699C85.8624 36.5863 86.3479 36.1132 86.9469 36.1132V34.1509C85.2429 34.1509 83.8481 35.5098 83.8481 37.1699C83.8481 38.83 85.2429 40.1889 86.9469 40.1889C87.8421 40.1889 88.6511 39.82 89.2025 39.233L87.7369 37.8923Z" fill="#F2F2F2"/>
<path fill-rule="evenodd" clip-rule="evenodd" d="M86.9241 34.1509V36.1502C87.5186 36.1502 88.0007 36.6323 88.0007 37.2268H90C90 35.5354 88.6155 34.1509 86.9241 34.1509Z" fill="#AFB9C5"/>
<path fill-rule="evenodd" clip-rule="evenodd" d="M87.9215 37.2266C87.9215 37.5662 87.754 37.8681 87.4937 38.063L88.7742 39.619C89.5196 39.0619 90 38.1984 90 37.2266H87.9215Z" fill="#C5CFD6"/>
<path fill-rule="evenodd" clip-rule="evenodd" d="M72.555 6.1717C72.3993 6.33051 72.1786 6.43019 71.9332 6.43019C71.4617 6.43019 71.0794 6.06427 71.0794 5.61279C71.0794 5.16131 71.4617 4.79538 71.9332 4.79538V3.27734C70.5917 3.27734 69.4937 4.32852 69.4937 5.61279C69.4937 6.89705 70.5917 7.94823 71.9332 7.94823C72.6378 7.94823 73.2747 7.66285 73.7088 7.20886L72.555 6.1717Z" fill="#F2F2F2"/>
<path fill-rule="evenodd" clip-rule="evenodd" d="M71.8862 3.27734V4.83241C72.3486 4.83241 72.7235 5.20733 72.7235 5.66975H74.2786C74.2786 4.35417 73.2018 3.27734 71.8862 3.27734Z" fill="#AFB9C5"/>
<path fill-rule="evenodd" clip-rule="evenodd" d="M72.7669 5.66992C72.7669 5.92864 72.6451 6.15866 72.4557 6.30721L73.3871 7.49271C73.9291 7.06834 74.2785 6.41043 74.2785 5.66992H72.7669Z" fill="#C5CFD6"/>
<path fill-rule="evenodd" clip-rule="evenodd" d="M8.65932 5.89613C8.65877 5.8975 8.65823 5.89886 8.65741 5.90049C8.65823 5.89913 8.65932 5.89368 8.65932 5.89613Z" fill="#C5CFD6"/>
<path fill-rule="evenodd" clip-rule="evenodd" d="M8.65805 5.89777C8.65805 5.89804 8.65778 5.89858 8.65778 5.89913C8.65778 5.89777 8.66023 5.89368 8.65805 5.89777Z" fill="#C5CFD6"/>
<path fill-rule="evenodd" clip-rule="evenodd" d="M8.66645 5.87793C8.66479 5.88266 8.66266 5.88715 8.66077 5.89188C8.66172 5.88951 8.66266 5.88762 8.66361 5.88526C8.63902 5.94672 8.65463 5.90677 8.66645 5.87793Z" fill="#C5CFD6"/>
<path fill-rule="evenodd" clip-rule="evenodd" d="M8.66113 5.89209C8.66015 5.8943 8.65917 5.89676 8.65819 5.89897C8.65107 5.91272 8.66113 5.89209 8.66113 5.89209Z" fill="#C5CFD6"/>
<path fill-rule="evenodd" clip-rule="evenodd" d="M8.65808 5.89791C8.65808 5.89744 8.65808 5.89744 8.65855 5.89697C8.65808 5.89744 8.65808 5.89744 8.65808 5.89791Z" fill="#C5CFD6"/>
<path fill-rule="evenodd" clip-rule="evenodd" d="M8.65702 5.89946C8.6557 5.90209 8.66315 5.88938 8.65702 5.89946V5.89946Z" fill="#C5CFD6"/>
<path fill-rule="evenodd" clip-rule="evenodd" d="M8.65802 5.89791L8.65895 5.89697C8.65849 5.89744 8.65849 5.89791 8.65802 5.89791Z" fill="#C5CFD6"/>
<path d="M13.1012 0.542969H4.21516C3.96348 0.542969 3.75946 0.746991 3.75946 0.998665V6.58094C3.75946 6.83262 3.96348 7.03664 4.21516 7.03664H13.1012C13.3529 7.03664 13.5569 6.83262 13.5569 6.58094V0.998665C13.5569 0.746991 13.3529 0.542969 13.1012 0.542969Z" fill="#C7D1D9"/>
<path fill-rule="evenodd" clip-rule="evenodd" d="M7.42783 2.36621L4.55695 7.0371H10.2987L7.42783 2.36621Z" fill="#AFB9C5"/>
<path fill-rule="evenodd" clip-rule="evenodd" d="M10.2474 3.61133L7.73541 7.03665H12.7595L10.2474 3.61133Z" fill="#C5CFD6"/>
<path d="M11.3924 3.61917C11.8958 3.61917 12.3038 3.21113 12.3038 2.70778C12.3038 2.20443 11.8958 1.79639 11.3924 1.79639C10.8891 1.79639 10.481 2.20443 10.481 2.70778C10.481 3.21113 10.8891 3.61917 11.3924 3.61917Z" fill="white"/>
<path fill-rule="evenodd" clip-rule="evenodd" d="M74.6195 49.5289C74.6201 49.5303 74.6206 49.5317 74.6214 49.5333C74.6206 49.5319 74.6195 49.5265 74.6195 49.5289Z" fill="#C5CFD6"/>
<path fill-rule="evenodd" clip-rule="evenodd" d="M74.6206 49.5306C74.6206 49.5309 74.6209 49.5314 74.6209 49.5319C74.6209 49.5306 74.6184 49.5265 74.6206 49.5306Z" fill="#C5CFD6"/>
<path fill-rule="evenodd" clip-rule="evenodd" d="M74.6126 49.5112C74.6143 49.516 74.6164 49.5205 74.6183 49.5252C74.6173 49.5228 74.6164 49.5209 74.6154 49.5186C74.64 49.58 74.6244 49.5401 74.6126 49.5112Z" fill="#C5CFD6"/>
<path fill-rule="evenodd" clip-rule="evenodd" d="M74.6177 49.5254C74.6187 49.5276 74.6197 49.5301 74.6207 49.5323C74.6278 49.546 74.6177 49.5254 74.6177 49.5254Z" fill="#C5CFD6"/>
<path fill-rule="evenodd" clip-rule="evenodd" d="M74.6206 49.5312C74.6206 49.5307 74.6206 49.5307 74.6202 49.5303C74.6206 49.5307 74.6206 49.5307 74.6206 49.5312Z" fill="#C5CFD6"/>
<path fill-rule="evenodd" clip-rule="evenodd" d="M74.6212 49.5318C74.6225 49.5344 74.6151 49.5217 74.6212 49.5318V49.5318Z" fill="#C5CFD6"/>
<path fill-rule="evenodd" clip-rule="evenodd" d="M74.6209 49.5312L74.62 49.5303C74.6205 49.5307 74.6205 49.5312 74.6209 49.5312Z" fill="#C5CFD6"/>
<path d="M66.9873 40.7583H82.2532C82.5048 40.7583 82.7089 40.9623 82.7089 41.214V51.0115C82.7089 51.2631 82.5048 51.4672 82.2532 51.4672H66.9873C66.7357 51.4672 66.5316 51.2631 66.5316 51.0115V41.214C66.5316 40.9623 66.7357 40.7583 66.9873 40.7583Z" fill="#C7D1D9"/>
<path fill-rule="evenodd" clip-rule="evenodd" d="M76.7021 43.834L81.3793 51.4669H72.025L76.7021 43.834Z" fill="#AFB9C5"/>
<path fill-rule="evenodd" clip-rule="evenodd" d="M71.8797 45.8789L76.0146 51.4672H67.7448L71.8797 45.8789Z" fill="#C5CFD6"/>
<path d="M70.1202 45.885C69.2708 45.885 68.5823 45.1965 68.5823 44.3471C68.5823 43.4977 69.2708 42.8091 70.1202 42.8091C70.9696 42.8091 71.6582 43.4977 71.6582 44.3471C71.6582 45.1965 70.9696 45.885 70.1202 45.885Z" fill="white"/>
<path fill-rule="evenodd" clip-rule="evenodd" d="M60.3871 25.976C59.6494 26.4207 58.9245 26.6355 58.5842 26.5478C57.731 26.3279 57.6526 23.2066 58.3128 21.9761C58.9729 20.7456 62.3668 20.2093 62.5378 22.6473C62.5972 23.4935 62.2419 24.2486 61.7169 24.8648L62.6582 29.252H59.924L60.3871 25.976Z" fill="#B28B67"/>
<path fill-rule="evenodd" clip-rule="evenodd" d="M61.927 25.4139C62.2702 23.8872 63.2478 22.8465 63.0985 22.1641C62.9492 21.4818 62.3026 21.3154 62.3026 21.3154C62.3026 21.3154 61.9682 19.9626 60.1455 20.1646C58.3229 20.3666 57.2105 21.1236 57.6908 22.7891C58.1324 22.7891 58.6656 22.6294 59.4028 22.9031C59.7536 23.0333 59.9046 23.7108 59.9046 23.7108H60.2378C60.2378 23.7108 60.7228 22.9068 61.1942 23.1199C61.6656 23.333 61.4085 24.1552 61.4085 24.1552L61.5726 25.4139H61.927Z" fill="#4A312C"/>
<path fill-rule="evenodd" clip-rule="evenodd" d="M63.5696 38.7075L59.4393 53.2017L56.4258 63.8847H54.2279L57.4302 38.7075H63.5696Z" fill="#2A0752"/>
<path fill-rule="evenodd" clip-rule="evenodd" d="M64.6742 38.7075C64.7697 46.178 65.0955 50.2526 65.1958 50.9313C65.2961 51.6101 66.8128 55.9278 69.7458 63.8847H67.4689C63.7349 56.2515 61.6505 51.9336 61.2156 50.9313C60.7809 49.929 59.4388 45.8544 57.4177 38.7075H64.6742Z" fill="#342A83"/>
<path fill-rule="evenodd" clip-rule="evenodd" d="M69.9493 65.9354L69.8354 63.543H67.443C65.7414 64.7392 63 65.4797 63 65.4797V65.9354H67.3291L68.8101 65.7075V65.9354H69.9493Z" fill="#191847"/>
<path fill-rule="evenodd" clip-rule="evenodd" d="M56.7342 65.9354L56.6203 63.543H54.2279C52.5263 64.7392 49.7848 65.4797 49.7848 65.4797V65.9354H54.1139L55.595 65.7075V65.9354H56.7342Z" fill="#191847"/>
<path fill-rule="evenodd" clip-rule="evenodd" d="M49.5159 25.716L53.8341 27.0122L52.7316 28.8489L49.3741 26.873C47.8069 26.7797 47.0663 26.6251 47.1526 26.4093C47.2254 26.2273 47.3984 26.1963 47.5578 26.1677C47.682 26.1455 47.7979 26.1247 47.8516 26.0352C47.9743 25.8309 47.5443 25.2989 47.1146 24.8115C46.6849 24.3241 47.0288 24.3014 47.2364 24.3405C47.9505 24.6304 48.7104 25.0889 49.5159 25.716ZM50.5817 37.294L54.2157 34.6255L55.019 36.6113L51.4204 38.1035C50.4026 39.2991 49.8336 39.7974 49.7131 39.5987C49.6115 39.4311 49.6909 39.2742 49.7641 39.1297C49.821 39.0171 49.8742 38.9121 49.835 38.8154C49.7456 38.5943 49.062 38.6176 48.4142 38.6675C47.7664 38.7173 47.9552 38.429 48.1114 38.2866C48.7726 37.8908 49.596 37.5599 50.5817 37.294Z" fill="#B28B67"/>
<path fill-rule="evenodd" clip-rule="evenodd" d="M59.8601 27.4389C57.8812 31.1288 55.0196 33.9574 50.8709 36.8979L52.4418 38.6691C57.0738 36.9477 59.5185 35.9091 60.7191 32.4228C61.0204 31.5479 61.2309 28.7586 61.4116 27.291L59.8601 27.4389Z" fill="#8F88BD"/>
<path fill-rule="evenodd" clip-rule="evenodd" d="M65.3924 39.7329H56.6202C56.6202 39.7329 59.6008 30.6427 59.6654 27.255C59.6676 27.1399 59.8803 26.937 59.9743 26.9636C61.0063 27.255 62.1829 26.7456 62.1829 26.7456C64.2626 30.0902 64.9817 34.2082 65.3924 39.7329Z" fill="#F2F2F2"/>
<path fill-rule="evenodd" clip-rule="evenodd" d="M59.9826 31.8483C58.6126 37.7252 58.6757 42.5361 61.7005 42.5361H66.3777C67.1206 37.5437 65.1682 30.6216 63.3582 27.1302C63.289 26.9969 63.142 26.7455 62.7953 26.7455H61.4362C61.4356 26.7473 61.435 26.7491 61.4344 26.7509C61.0255 26.7543 60.575 26.7692 60.0873 26.7854C57.5763 26.8688 54.0751 26.985 50.1354 25.7202L49.6709 28.0412C53.2268 30.3282 56.8275 32.0999 59.9826 31.8483Z" fill="#C8C0F8"/>
<path fill-rule="evenodd" clip-rule="evenodd" d="M32.575 25.976C33.3127 26.4207 34.0375 26.6355 34.3778 26.5478C35.231 26.3279 35.3095 23.2066 34.6493 21.9761C33.9891 20.7456 30.5953 20.2093 30.4242 22.6473C30.3649 23.4935 30.7202 24.2486 31.2451 24.8648L30.3038 29.252H33.038L32.575 25.976Z" fill="#B28B67"/>
<path fill-rule="evenodd" clip-rule="evenodd" d="M33.5692 20.6357C33.1956 20.5218 32.6533 20.4831 32.4251 20.5093C32.5549 20.1983 32.6064 19.8519 32.5644 19.5146C32.5236 19.1868 32.3772 18.9077 32.2417 18.6153C32.1793 18.4805 32.1085 18.3464 32.003 18.2433C31.8956 18.1383 31.7595 18.069 31.6169 18.0359C31.4709 18.002 31.3183 18.0048 31.1721 18.0356C31.1074 18.0492 31.0493 18.0787 30.9859 18.0952C30.921 18.112 30.8895 18.0714 30.8423 18.0305C30.7287 17.9321 30.5621 17.8835 30.4184 17.8661C30.2571 17.8466 30.0898 17.8709 29.9359 17.9239C29.7862 17.9755 29.6424 18.0593 29.5342 18.1814C29.486 18.2358 29.4422 18.2976 29.4138 18.3659C29.4021 18.394 29.4002 18.4106 29.3722 18.4208C29.3464 18.4303 29.3161 18.4306 29.2894 18.4397C29.0313 18.5271 28.8106 18.7265 28.6904 18.9826C28.6203 19.132 28.5871 19.395 28.5962 19.6899C28.6053 19.9847 28.8715 20.754 29.1205 21.0346C29.3427 21.285 29.6694 21.4503 29.9847 21.5226C29.7754 21.7618 29.6361 22.0607 29.5331 22.3647C29.4212 22.6949 29.352 23.038 29.3264 23.3876C29.3021 23.7197 29.2999 24.0709 29.3777 24.396C29.4506 24.6999 29.6063 24.9493 29.8664 25.1075C29.9855 25.18 30.1137 25.2344 30.2426 25.2841C30.3696 25.3332 30.497 25.3809 30.6301 25.4084C30.8819 25.4604 31.1721 25.4515 31.3661 25.251C31.436 25.1788 31.5129 25.0879 31.5639 24.9997C31.5823 24.9679 31.5933 24.9472 31.5711 24.9161C31.5444 24.879 31.5012 24.8505 31.4669 24.8214C31.2713 24.6556 31.1503 24.4343 31.1198 24.1713C31.0888 23.9045 31.1605 23.5601 31.4199 23.4436C31.7402 23.2998 32.0929 23.4648 32.3775 23.6187C32.4985 23.1917 32.7469 22.8073 33.1363 22.6114C33.5671 22.3947 34.0615 22.3694 34.5043 22.1835C34.6197 22.135 34.7372 22.0801 34.8221 21.9814C34.8576 21.9401 34.8993 21.8866 34.9134 21.832C34.9321 21.7604 34.8858 21.7003 34.8501 21.6444C34.6608 21.3481 33.9428 20.7496 33.5692 20.6357Z" fill="#2C1B18"/>
<path fill-rule="evenodd" clip-rule="evenodd" d="M29.3924 38.7075L33.6795 52.7229L35.7562 64.6421H37.3845L35.1901 38.7075H29.3924Z" fill="#B28B67"/>
<path fill-rule="evenodd" clip-rule="evenodd" d="M29.3924 38.7075L33.6795 52.7229L35.7562 64.6421H37.3845L35.1901 38.7075H29.3924Z" fill="black" fill-opacity="0.1"/>
<path fill-rule="evenodd" clip-rule="evenodd" d="M27.8588 38.7075C28.1499 46.4027 27.8073 50.3721 27.7421 51.0712C27.6769 51.7704 26.7845 56.3037 24.6718 64.8768L26.4069 64.281C29.7458 56.418 30.8836 52.3316 31.2665 51.2991C31.6495 50.2666 32.6665 46.0694 34.3177 38.7075H27.8588Z" fill="#B28B67"/>
<path fill-rule="evenodd" clip-rule="evenodd" d="M25.0006 64.1452C24.8785 64.0916 24.7334 64.1459 24.6879 64.2713C24.605 64.5 24.4937 64.843 24.4937 65.0363C24.4937 65.3445 24.5963 65.9357 24.5963 65.9357C24.9538 65.9357 31.0218 65.9357 31.0218 65.9357C31.0218 65.9357 31.2724 65.1077 30.7327 65.0416C30.193 64.9756 29.8361 64.9224 29.8361 64.9224L26.8496 63.591C26.7909 63.5648 26.7223 63.5922 26.6979 63.6516L26.5059 64.1173C26.5059 64.1173 26.0064 64.3504 25.694 64.3504C25.5039 64.3504 25.2052 64.2352 25.0006 64.1452Z" fill="#E4E4E4"/>
<path fill-rule="evenodd" clip-rule="evenodd" d="M35.7095 64.1452C35.5874 64.0916 35.4423 64.1459 35.3968 64.2713C35.3139 64.5 35.2026 64.843 35.2026 65.0363C35.2026 65.3445 35.3052 65.9357 35.3052 65.9357C35.6627 65.9357 41.7308 65.9357 41.7308 65.9357C41.7308 65.9357 41.9813 65.1077 41.4416 65.0416C40.902 64.9756 40.545 64.9224 40.545 64.9224L37.5585 63.591C37.4999 63.5648 37.4313 63.5922 37.4068 63.6516L37.2148 64.1173C37.2148 64.1173 36.7153 64.3504 36.403 64.3504C36.2129 64.3504 35.9141 64.2352 35.7095 64.1452Z" fill="#E4E4E4"/>
<path fill-rule="evenodd" clip-rule="evenodd" d="M28.8228 38.7075L30.6456 45.8482H36.2131L35.383 38.7075H28.8228Z" fill="#191847"/>
<path fill-rule="evenodd" clip-rule="evenodd" d="M27.7975 38.7075C26.8978 41.4042 27.4557 45.8482 27.4557 45.8482H33.1371L34.6995 38.7075H27.7975Z" fill="#393F82"/>
<path fill-rule="evenodd" clip-rule="evenodd" d="M43.688 33.573L39.1899 34.1865L39.9969 36.2017L43.6467 34.7547C45.2199 34.91 45.9806 34.8726 45.9289 34.6427C45.8852 34.4488 45.718 34.3903 45.564 34.3363C45.444 34.2943 45.332 34.2552 45.2927 34.157C45.2028 33.9327 45.7142 33.4679 46.2182 33.0478C46.7222 32.6276 46.384 32.5503 46.1713 32.5565C45.4155 32.7336 44.5877 33.0725 43.688 33.573ZM21.8049 44.6216C22.1387 43.9443 25.0599 35.2276 25.0599 35.2276L27.5545 35.237C27.5545 35.237 23.4514 44.4707 23.2756 44.9062C23.0473 45.472 23.4351 46.2939 23.6981 46.8513C23.7388 46.9376 23.7765 47.0174 23.8084 47.0891C23.4436 47.2524 23.2683 47.055 23.0835 46.847C22.8748 46.612 22.654 46.3634 22.1341 46.6052C21.9333 46.6987 21.7432 46.8091 21.5575 46.9171C20.9161 47.2898 20.3269 47.6324 19.5254 47.1378C19.3983 47.0594 19.2591 46.7642 19.5955 46.5335C20.4337 45.9588 21.6417 44.9528 21.8049 44.6216Z" fill="#997659"/>
<path fill-rule="evenodd" clip-rule="evenodd" d="M31.8929 27.3154L33.8461 27.4455C34.3272 31.7976 36.9473 34.5465 42.8139 33.6159L43.5932 39.2204C38.1102 39.929 33.3014 37.7338 32.3159 31.7902C32.0608 30.2516 31.8594 28.6504 31.8929 27.3154Z" fill="#8F88BD"/>
<path fill-rule="evenodd" clip-rule="evenodd" d="M22.147 43.4924C23.5032 36.2769 26.3655 30.6947 30.734 26.7456H30.9214H30.9278L30.9294 26.7474L33.8888 27.4252C33.8888 30.9801 34.6796 33.6362 35.44 36.1899C35.7683 37.2927 36.0909 38.3765 36.3418 39.5051H28.3493C28.2367 40.7983 28.1676 42.1274 28.1315 43.4924H22.147Z" fill="#C8C0F8"/>
<path fill-rule="evenodd" clip-rule="evenodd" d="M28.3492 39.505C28.5785 36.8723 28.9878 34.3887 29.6644 32.0542C29.5161 34.5508 29.4749 37.6478 29.9737 39.505H28.3492Z" fill="black" fill-opacity="0.1"/>
</svg>
