<svg width="64" height="68" viewBox="0 0 64 68" fill="none" xmlns="http://www.w3.org/2000/svg">
<path d="M7.70549 53.6319C11.1756 53.6319 13.9887 50.8188 13.9887 47.3487C13.9887 43.8785 11.1756 41.0654 7.70549 41.0654C4.23535 41.0654 1.42224 43.8785 1.42224 47.3487C1.42224 50.8188 4.23535 53.6319 7.70549 53.6319Z" fill="#FFA9C4"/>
<path d="M31.4921 58.4194C45.5379 58.4194 56.9243 47.0665 56.9243 33.062C56.9243 19.0575 45.5379 7.70459 31.4921 7.70459C17.4463 7.70459 6.05988 19.0575 6.05988 33.062C6.05988 47.0665 17.4463 58.4194 31.4921 58.4194Z" fill="#AED5F8"/>
<path fill-rule="evenodd" clip-rule="evenodd" d="M12.0439 10.397L16.9807 15.3338L12.0439 20.2707L7.10706 15.3338L12.0439 10.397Z" fill="#7A8DFF"/>
<path opacity="0.278134" d="M31.4921 58.4191C45.5379 58.4191 56.9243 45.4587 56.9243 29.4713C56.9243 13.4838 45.5379 0.523438 31.4921 0.523438C17.4463 0.523438 6.05988 13.4838 6.05988 29.4713C6.05988 45.4587 17.4463 58.4191 31.4921 58.4191Z" fill="#0007E9"/>
<mask id="mask0_372_772" style="mask-type:alpha" maskUnits="userSpaceOnUse" x="-12" y="-2" width="78" height="70">
<path d="M26.7654 67.5106C47.998 67.5106 65.2104 52.0589 65.2104 32.9982C65.2104 13.9376 47.998 -1.51416 26.7654 -1.51416C5.53283 -1.51416 -11.6796 13.9376 -11.6796 32.9982C-11.6796 52.0589 5.53283 67.5106 26.7654 67.5106Z" fill="white"/>
</mask>
<g mask="url(#mask0_372_772)">
<path fill-rule="evenodd" clip-rule="evenodd" d="M28.9024 17.2985C30.5922 17.3827 32.0616 17.0907 32.5892 16.6355C33.9122 15.4939 31.3674 10.1557 29.1393 8.67529C26.9113 7.19488 20.4354 9.35446 22.2286 13.6232C22.8509 15.1048 24.1299 16.0583 25.5901 16.6241L27.6943 24.8778L32.54 22.4088L28.9024 17.2985Z" fill="#FFD0B5"/>
<path fill-rule="evenodd" clip-rule="evenodd" d="M25.6897 17.7399C23.7688 15.4734 21.1413 14.5999 20.8192 13.3136C20.4971 12.0272 21.5 11.1626 21.5 11.1626C21.5 11.1626 20.9294 8.57767 24.3333 7.27269C27.7373 5.96769 30.3596 6.24055 30.9404 9.48508C30.1578 9.88387 29.0756 10.0958 28.0044 11.2232C27.4945 11.7598 27.8094 13.0396 27.8094 13.0396L27.219 13.3404C27.219 13.3404 25.6682 12.4215 25.016 13.2068C24.3637 13.9922 25.5263 15.1475 25.5263 15.1475L26.3178 17.4198L25.6897 17.7399Z" fill="#2C1B18"/>
<path fill-rule="evenodd" clip-rule="evenodd" d="M32.2928 40.668L43.3557 67.5727L50.7758 90.3184H53.7057L41.9115 40.668H32.2928Z" fill="#FFD0B5"/>
<path fill-rule="evenodd" clip-rule="evenodd" d="M30.0652 40.668C29.9473 50.1225 28.2293 62.8514 27.9548 63.4407C27.6804 64.0301 9.00366 78.4299 9.00366 78.4299L11.0217 80.505C11.0217 80.505 33.0584 68.159 34.0782 66.5123C35.0979 64.8657 38.4179 49.7129 41.0835 40.668H30.0652Z" fill="#FFD0B5"/>
<path fill-rule="evenodd" clip-rule="evenodd" d="M39.731 87.9756L53.6616 86.5228L42.4358 40.668H30.8601L39.731 87.9756Z" fill="#191847"/>
<path fill-rule="evenodd" clip-rule="evenodd" d="M11.8852 75.0822L21.0228 85.4747C21.0228 85.4747 35.4596 70.3243 37.8563 65.7034C40.2529 61.0826 42.1651 40.668 42.1651 40.668H28.118C28.118 40.668 27.0735 58.6277 26.7098 59.4636C26.3461 60.2994 11.8852 75.0822 11.8852 75.0822Z" fill="#393F82"/>
<path fill-rule="evenodd" clip-rule="evenodd" d="M13.3769 54.1592C13.9519 52.8213 16.0877 39.4456 16.0877 39.4456L20.0996 39.1578C20.0996 39.1578 16.5974 53.6253 16.3043 54.4797C15.9235 55.5897 16.7855 57.0946 17.3699 58.115C17.4604 58.273 17.5442 58.4193 17.6157 58.5507C16.9177 58.9158 16.5491 58.5668 16.1605 58.1989C15.7216 57.7833 15.2572 57.3436 14.2639 57.8815C13.88 58.0892 13.5196 58.3279 13.1673 58.5609C11.9506 59.3659 10.8329 60.1053 9.19658 59.285C8.93719 59.1551 8.62762 58.6145 9.26163 58.1255C10.8411 56.907 13.0958 54.8134 13.3769 54.1592ZM56.3037 36.8323L48.1117 33.6411L47.4865 37.6918L55.0692 38.7278C57.5697 40.4492 58.8898 41.0976 59.029 40.6729C59.1466 40.315 58.9222 40.0632 58.7156 39.8314C58.5546 39.6508 58.4043 39.4821 58.4348 39.2847C58.5043 38.8342 59.825 38.5505 61.0894 38.3328C62.3536 38.1153 61.8592 37.6733 61.4944 37.4851C60.0449 37.0701 58.3147 36.8526 56.3037 36.8323Z" fill="#FFD0B5"/>
<path fill-rule="evenodd" clip-rule="evenodd" d="M31.1737 19.2992L29.069 20.804C29.24 21.3855 29.446 22.2221 29.6822 23.1804C30.4229 26.1884 31.4591 30.3967 32.6372 31.6883C36.7183 36.1628 43.1225 37.4268 50.2553 38.8347C51.2113 39.0233 52.1805 39.2147 53.159 39.4167L54.0541 35.5229C53.816 35.4346 53.5794 35.3451 53.3444 35.2544C53.5971 35.0924 53.775 34.8246 53.8038 34.5117C53.8534 33.9731 53.4432 33.5051 52.8875 33.4663C51.7581 33.3876 50.7477 33.4876 49.8672 33.7729C41.9999 30.0916 36.0447 24.9704 31.1737 19.2992Z" fill="#A8A9C4"/>
<path fill-rule="evenodd" clip-rule="evenodd" d="M26.5049 45.4591C26.5049 45.4591 37.0711 43.9821 42.7109 41.4185C43.1768 41.2067 42.6497 39.1838 42.285 38.6864C36.6083 30.9396 32.7144 25.2033 31.2206 19.2119C30.372 19.9423 27.8603 20.2052 27.8603 20.2052C25.0524 27.4635 24.8205 35.046 26.5049 45.4591Z" fill="#191847"/>
<path fill-rule="evenodd" clip-rule="evenodd" d="M13.4748 48.8183C15.3754 30.5976 25.9828 20.137 25.9828 20.137L26.3225 20.0523L27.1619 19.843L28.4654 19.518C29.0777 23.1718 31.6993 28.0572 34.7404 33.7247C39.6042 42.7886 45.5411 53.8527 46.0486 65.0766C43.5387 66.3086 40.3251 66.696 36.8463 67.1154C31.8255 67.7204 26.252 68.3923 21.4432 71.766C20.581 67.434 21.9933 62.0487 23.3992 56.6875C24.2903 53.2892 25.1789 49.9006 25.484 46.7965C25.1983 46.6432 24.9978 46.3567 24.9761 46.0155L24.9349 45.3655C24.9069 44.9252 25.1854 44.53 25.5926 44.3775C25.5872 44.0437 25.5722 43.7145 25.5467 43.3902C25.4169 41.7337 24.8549 40.2048 24.2993 38.693L24.2992 38.693C23.9942 37.863 23.691 37.0382 23.4623 36.2003C21.1644 39.4391 18.7163 44.6977 17.6211 53.0275L13.2065 52.8863C13.2234 52.2826 13.2502 51.6863 13.2863 51.0975C12.7459 50.963 11.8832 49.8998 12.2351 49.5989C12.6069 49.2809 13.0207 49.0211 13.4748 48.8183Z" fill="#E2E3FF"/>
<path fill-rule="evenodd" clip-rule="evenodd" d="M26.9369 20.1226L26.6428 23.7408L29.5346 25.6773L27.9751 28.1545L34.9739 35.1001L26.8739 28.4464L28.3928 25.962L25.8284 24.2529L26.9369 20.1226Z" fill="black" fill-opacity="0.1"/>
<path fill-rule="evenodd" clip-rule="evenodd" d="M34.9696 37.5593C35.0855 38.024 34.7885 38.4983 34.3062 38.6185C33.824 38.7387 33.3391 38.4595 33.2232 37.9948C33.1074 37.5301 33.4044 37.0558 33.8866 36.9356C34.3689 36.8154 34.8538 37.0946 34.9696 37.5593ZM37.2675 42.1255C37.3834 42.5902 37.0863 43.0644 36.6041 43.1847C36.1218 43.3049 35.6369 43.0256 35.5211 42.5609C35.4052 42.0963 35.7023 41.622 36.1845 41.5018C36.6667 41.3815 37.1516 41.6608 37.2675 42.1255ZM38.0287 47.9686C38.5109 47.8483 38.808 47.3741 38.6921 46.9094C38.5763 46.4447 38.0913 46.1654 37.6091 46.2857C37.1269 46.4059 36.8298 46.8801 36.9457 47.3448C37.0616 47.8095 37.5465 48.0888 38.0287 47.9686Z" fill="black" fill-opacity="0.4"/>
</g>
<path d="M44.9562 64.2535C48.4264 64.2535 51.2395 61.4404 51.2395 57.9703C51.2395 54.5001 48.4264 51.687 44.9562 51.687C41.4861 51.687 38.673 54.5001 38.673 57.9703C38.673 61.4404 41.4861 64.2535 44.9562 64.2535Z" fill="#FFEBA9"/>
<path opacity="0.399135" fill-rule="evenodd" clip-rule="evenodd" d="M45.4049 4.11377L46.6017 5.31058L45.4049 6.50739L44.2081 5.31058L45.4049 4.11377Z" fill="#2026A2"/>
</svg>
