<svg width="89" height="55" viewBox="0 0 89 55" fill="none" xmlns="http://www.w3.org/2000/svg">
<path d="M87.2975 26.5826L38.8114 53.9787C38.2955 54.2747 37.7108 54.4296 37.1161 54.4277C36.5214 54.4259 35.9376 54.2675 35.4236 53.9684L1.68586 34.1524C0.240941 33.3118 -0.2751 31.6667 0.137733 30.2532C0.381034 29.4198 0.939749 28.7141 1.69514 28.2861L50.0884 0.844572C50.6049 0.547531 51.1906 0.391806 51.7864 0.393074C52.3822 0.394342 52.9672 0.55256 53.4824 0.851797L87.314 20.7116C88.0634 21.1403 88.6181 21.8419 88.8622 22.67C89.2791 24.0907 88.759 25.7446 87.2975 26.5826Z" fill="url(#paint0_linear_372_702)"/>
<path d="M88.8622 22.67C88.6175 23.5045 88.0571 24.2107 87.3001 24.6387L38.8114 52.0348C38.2955 52.3308 37.7108 52.4856 37.1161 52.4838C36.5214 52.482 35.9376 52.3236 35.4236 52.0245L1.68588 32.2085C0.93658 31.7813 0.38177 31.0805 0.137756 30.2532C0.381057 29.4198 0.939773 28.7141 1.69517 28.2861L50.0884 0.844572C50.6049 0.547531 51.1906 0.391806 51.7864 0.393074C52.3822 0.394342 52.9672 0.55256 53.4824 0.851797L87.3141 20.7116C88.0634 21.1403 88.6181 21.8419 88.8622 22.67Z" fill="url(#paint1_linear_372_702)"/>
<path d="M37.4001 51.1795C36.7703 51.18 36.1515 51.0137 35.6068 50.6975L4.29091 32.2877C3.50344 31.8354 2.92025 31.0974 2.66228 30.2267L2.62616 30.1033L2.66228 29.98C2.92003 29.1025 3.50811 28.3592 4.30278 27.9065L49.7314 2.1721C50.2754 1.85999 50.892 1.6964 51.5192 1.69776C52.1464 1.69912 52.7623 1.86537 53.305 2.17984L84.7081 20.6293C85.4955 21.0832 86.0785 21.8221 86.3367 22.6935L86.3734 22.8173L86.3367 22.9407C86.0776 23.8192 85.4879 24.563 84.6916 25.0157L39.1753 50.7073C38.6348 51.0168 38.0229 51.1796 37.4001 51.1795ZM3.54058 30.1028C3.75252 30.7058 4.17363 31.2128 4.72748 31.5317L36.047 49.9415C36.456 50.1786 36.9201 50.3041 37.3928 50.3055C37.8655 50.307 38.3303 50.1843 38.7407 49.9497L84.2555 24.2571C84.8169 23.9381 85.2438 23.4267 85.4574 22.8173C85.2489 22.2116 84.827 21.7026 84.2705 21.3853L52.8658 2.93584C52.456 2.69847 51.991 2.57296 51.5175 2.57187C51.0439 2.57078 50.5783 2.69416 50.1674 2.92965L4.73935 28.6641C4.17895 28.983 3.75308 29.4941 3.54058 30.1028Z" fill="url(#paint2_linear_372_702)"/>
<path opacity="0.7" d="M6.71521 29.3026L9.73921 34.7308C9.86991 34.9653 10.0459 35.1715 10.2569 35.3375C10.468 35.5034 10.7098 35.6258 10.9685 35.6975C11.2273 35.7693 11.4976 35.7889 11.764 35.7553C12.0303 35.7217 12.2874 35.6355 12.5202 35.5018L27.6954 26.7807L27.0245 24.4941L6.71521 29.3026Z" fill="url(#paint3_linear_372_702)"/>
<path d="M26.6737 17.5166C26.6737 18.0625 25.8836 18.5048 24.9098 18.5048C23.9361 18.5048 23.146 18.0625 23.146 17.5166C23.146 16.9706 23.9355 16.5278 24.9098 16.5278C25.8841 16.5278 26.6737 16.9706 26.6737 17.5166Z" fill="url(#paint4_linear_372_702)"/>
<path d="M22.5969 12.1504L22.6634 12.2686C23.0797 13.0023 23.2208 13.8604 23.0613 14.6888L22.7615 16.2483C22.7106 16.5122 22.7435 16.7854 22.8554 17.0297C22.9674 17.274 23.1528 17.4773 23.3859 17.6111L23.3905 17.6137C23.5862 17.7263 23.808 17.7855 24.0338 17.7855C24.2595 17.7855 24.4813 17.7263 24.677 17.6137C24.9091 17.4797 25.0937 17.2767 25.2052 17.0329C25.3166 16.7891 25.3494 16.5167 25.2989 16.2534L25.0001 14.7022C24.839 13.8663 24.9839 13.0003 25.4083 12.2624L25.4722 12.1509L22.5969 12.1504Z" fill="url(#paint5_linear_372_702)"/>
<path d="M25.4722 12.15C25.4722 12.2852 25.2519 12.4054 24.9092 12.4823C24.3317 12.5979 23.7369 12.5979 23.1593 12.4823C22.8172 12.4054 22.5969 12.2852 22.5969 12.15C22.5969 11.9183 23.2404 11.7305 24.0346 11.7305C24.8287 11.7305 25.4722 11.9183 25.4722 12.15Z" fill="url(#paint6_linear_372_702)"/>
<path d="M24.9098 12.4786C24.9101 12.4799 24.9101 12.4813 24.9098 12.4827C24.3322 12.5983 23.7375 12.5983 23.1599 12.4827V12.4786C23.1599 12.3377 23.5516 12.2236 24.0372 12.2236C24.5228 12.2236 24.9098 12.3377 24.9098 12.4786Z" fill="#FFCC88"/>
<path d="M24.3571 12.4374C24.3571 12.4374 25.159 1.98656 23.7482 1.76363C22.3373 1.5407 23.9185 12.4317 23.9185 12.4317L24.3571 12.4374Z" fill="url(#paint7_linear_372_702)"/>
<path d="M23.5108 12.4373C23.5108 12.4373 20.8196 4.57537 22.1655 4.18473C23.5113 3.79409 24.1125 12.4373 24.1125 12.4373H23.5108Z" fill="url(#paint8_linear_372_702)"/>
<path d="M24.3571 12.4374C24.3571 12.4374 26.0997 7.34669 25.2282 7.09331C24.3566 6.83993 23.9675 12.4374 23.9675 12.4374H24.3571Z" fill="url(#paint9_linear_372_702)"/>
<path d="M19.8712 14.4717V21.6963L25.8572 25.1496V21.2411C25.8574 21.0768 25.8147 20.9153 25.7332 20.7727C25.6517 20.63 25.5344 20.5111 25.3928 20.4278L22.2656 18.599V15.8536L19.8712 14.4717Z" fill="url(#paint10_linear_372_702)"/>
<path d="M21.0447 19.2974L25.8588 22.0432L13.9269 28.9349L9.1391 26.1705L21.0447 19.2974Z" fill="url(#paint11_linear_372_702)"/>
<path d="M6.74566 22.042L6.71521 29.3022L12.7013 32.7555L12.7281 28.7675C12.7291 28.6168 12.6903 28.4685 12.6158 28.3375C12.5412 28.2065 12.4335 28.0975 12.3034 28.0214L9.13802 26.1698V23.9193C9.13804 23.7688 9.09842 23.6209 9.02314 23.4906C8.94786 23.3602 8.83958 23.252 8.70919 23.1768L6.74566 22.042Z" fill="url(#paint12_linear_372_702)"/>
<path d="M10.3363 25.4795L21.0447 19.2968V15.1504L9.17058 22.0421L9.1391 26.1699L10.3363 25.4795Z" fill="url(#paint13_linear_372_702)"/>
<path d="M21.0684 13.7803L19.8712 14.4718L7.81441 21.4249L6.74518 22.0441L8.67362 23.1578C8.81492 23.2393 8.93223 23.3567 9.01376 23.498C9.09529 23.6393 9.13816 23.7996 9.13806 23.9628V26.172L10.3348 25.4815V23.3828C10.3347 23.1854 10.2827 22.9915 10.1839 22.8205C10.0852 22.6496 9.94322 22.5077 9.77227 22.409L9.15302 22.0519L21.0462 15.1519L21.7026 15.5312C21.8736 15.6299 22.0156 15.7718 22.1143 15.9427C22.2131 16.1137 22.2651 16.3076 22.2651 16.505V18.6016L23.4618 17.9107V15.8119C23.4619 15.6145 23.41 15.4205 23.3113 15.2495C23.2127 15.0785 23.0708 14.9364 22.8998 14.8376L21.0684 13.7803Z" fill="url(#paint14_linear_372_702)"/>
<path d="M23.4618 17.9087L22.2651 18.5997L25.3427 20.3996C25.4998 20.4915 25.63 20.6228 25.7206 20.7806C25.8111 20.9384 25.8587 21.1172 25.8588 21.2991V22.0401L13.9269 28.9303V28.3967C13.9269 28.1402 13.8594 27.8882 13.7312 27.6661C13.6029 27.444 13.4184 27.2595 13.1962 27.1314L10.3363 25.48L9.13959 26.1705L12.2632 27.9978C12.4057 28.0815 12.5237 28.2012 12.6052 28.345C12.6868 28.4888 12.729 28.6515 12.7276 28.8168L12.7013 32.7562L13.8954 32.0668L27.0225 24.496L27.0467 20.8321C27.0488 20.5741 26.9824 20.3202 26.8544 20.0962C26.7264 19.8722 26.5414 19.6861 26.3181 19.5569L23.4618 17.9087Z" fill="url(#paint15_linear_372_702)"/>
<path opacity="0.7" d="M31.8195 34.9808L39.1772 43.8871L38.4099 45.0637L40.5334 46.1433L61.7664 33.8904L60.29 33.0379H58.9777L58.5159 29.3018L31.8195 34.9808Z" fill="url(#paint16_linear_372_702)"/>
<path d="M31.8195 30.2251V34.9805L40.2501 39.8477L58.5159 29.3014V24.5967L31.8195 30.2251Z" fill="url(#paint17_linear_372_702)"/>
<path d="M60.738 21.2672L58.9484 21.5948L51.1092 17.0305C50.5565 16.7085 49.6509 16.7064 49.0966 17.0258L32.8929 26.3662L29.6016 26.9689V28.5738C29.5867 28.7952 29.7229 29.0191 30.0145 29.1874L39.2428 34.5108C39.7971 34.8308 40.7043 34.8318 41.2585 34.5108L60.3184 23.563C60.6183 23.3907 60.755 23.1579 60.7313 22.9298H60.7354L60.738 21.2672Z" fill="url(#paint18_linear_372_702)"/>
<path d="M49.0967 15.291C49.6509 14.9715 50.5566 14.9736 51.1093 15.2956L60.3216 20.6624C60.8743 20.9844 60.8727 21.5082 60.3185 21.8271L41.2586 32.778C40.7043 33.0969 39.7971 33.0959 39.2429 32.778L30.0166 27.4494C29.4629 27.1294 29.4629 26.6067 30.0166 26.2873L49.0967 15.291Z" fill="url(#paint19_linear_372_702)"/>
<path d="M57.9514 21.9483L57.9406 21.954L41.4531 31.3934C41.0057 31.6515 40.2739 31.6515 39.827 31.3934L32.396 27.1036L32.3821 27.0953C31.9352 26.8373 31.9352 26.4152 32.3821 26.1577L48.8985 16.6754C49.3459 16.4174 50.0766 16.42 50.5225 16.6796L57.9535 21.0086C58.4014 21.2682 58.4004 21.6914 57.9514 21.9483Z" fill="url(#paint20_linear_372_702)"/>
<path d="M30.7044 27.1415C30.3179 26.9186 30.3179 26.5532 30.7044 26.3303C31.091 26.1074 31.7231 26.1074 32.1091 26.3303C32.4951 26.5532 32.4956 26.9186 32.1091 27.1415C31.7226 27.3644 31.0879 27.3649 30.7044 27.1415Z" fill="url(#paint21_linear_372_702)"/>
<path d="M50.5147 26.3302C50.4768 26.3089 50.4377 26.2899 50.3975 26.2734L57.942 21.9542L50.5204 17.6328C50.0745 17.3748 49.3438 17.3712 48.8964 17.6292L32.3965 27.1022L39.5695 31.2444C39.2815 31.4684 39.3114 31.7889 39.6634 31.9917C40.0499 32.2146 40.682 32.2146 41.0686 31.9917C41.3204 31.8461 41.4071 31.6402 41.3302 31.4529C41.3715 31.4353 41.4118 31.4155 41.4509 31.3936L49.0058 27.0722C49.0381 27.0991 49.0726 27.1231 49.109 27.144C49.4955 27.3674 50.1276 27.3669 50.5142 27.144C50.9007 26.921 50.9007 26.5531 50.5147 26.3302Z" fill="url(#paint22_linear_372_702)"/>
<path d="M57.5865 21.6632C57.2 21.4397 57.2 21.0749 57.5865 20.852C57.973 20.629 58.6052 20.6285 58.9917 20.852C59.3782 21.0754 59.3782 21.4402 58.9917 21.6632C58.6052 21.8861 57.973 21.8861 57.5865 21.6632Z" fill="url(#paint23_linear_372_702)"/>
<path d="M40.4715 21.5132C40.2873 21.2985 40.3497 21.0307 40.6578 20.8522C40.9659 20.6736 41.436 20.6375 41.8081 20.749L41.8354 21.668V21.6861L40.4705 22.4694L40.4715 21.5132Z" fill="url(#paint24_linear_372_702)"/>
<path d="M40.4715 22.4664V21.9978C40.5245 21.9375 40.5875 21.8867 40.6578 21.8477C40.9674 21.6686 41.4644 21.5742 41.8364 21.683L40.4715 22.4664Z" fill="url(#paint25_linear_372_702)"/>
<path d="M50.8842 16.6479V17.3358C50.8842 17.4828 50.7877 17.6299 50.5947 17.7419C50.3769 17.8518 50.1364 17.909 49.8924 17.909C49.6484 17.909 49.4079 17.8518 49.1901 17.7419C48.996 17.6299 48.8995 17.4839 48.8995 17.3363V16.6479C48.8995 16.5013 48.996 16.3542 49.1901 16.2428C49.5761 16.0193 50.2082 16.0193 50.5947 16.2428C50.6801 16.2891 50.7541 16.3538 50.8115 16.4322C50.8578 16.4946 50.8832 16.5701 50.8842 16.6479Z" fill="url(#paint26_linear_372_702)"/>
<path d="M41.8364 21.6833L40.4715 22.4667V21.6085C40.8611 21.4233 41.4417 21.4362 41.8049 21.6462C41.8158 21.6524 41.8261 21.6586 41.8359 21.6653L41.8364 21.6833Z" fill="#3C3C3B"/>
<path d="M50.7083 17.3334C50.7083 17.4547 50.6293 17.5755 50.4704 17.6673C50.2912 17.7579 50.0932 17.8051 49.8924 17.8051C49.6916 17.8051 49.4936 17.7579 49.3144 17.6673C49.155 17.5755 49.0755 17.4547 49.0755 17.334C49.0755 17.2132 49.155 17.0919 49.3144 17.0001C49.6318 16.8164 50.152 16.8164 50.4704 17.0001C50.6293 17.0919 50.7083 17.2127 50.7083 17.3334Z" fill="#3C3C3B"/>
<path d="M30.6735 17.0342L29.7807 19.2624C29.7807 19.2624 29.5134 18.8408 28.9034 18.4275C28.2935 18.0141 29.839 17.1374 29.839 17.1374L30.6735 17.0342Z" fill="url(#paint27_linear_372_702)"/>
<path d="M39.4833 25.6686C39.5142 25.6686 39.544 25.6578 39.5677 25.6379C39.5913 25.618 39.6071 25.5905 39.6124 25.5601C39.6177 25.5297 39.6121 25.4984 39.5966 25.4717C39.5811 25.445 39.5567 25.4247 39.5277 25.4142L18.3458 17.8284C18.3295 17.8226 18.3123 17.8201 18.2951 17.821C18.2779 17.8218 18.261 17.8261 18.2454 17.8334C18.2299 17.8408 18.2159 17.8512 18.2043 17.864C18.1928 17.8767 18.1838 17.8917 18.1781 17.9079C18.1723 17.9241 18.1697 17.9414 18.1706 17.9586C18.1714 17.9758 18.1757 17.9927 18.1831 18.0082C18.1904 18.0238 18.2008 18.0378 18.2136 18.0493C18.2264 18.0609 18.2413 18.0698 18.2575 18.0756L39.4394 25.6614C39.4535 25.6663 39.4684 25.6688 39.4833 25.6686Z" fill="url(#paint28_linear_372_702)"/>
<path opacity="0.7" d="M26.8161 37.109C28.8715 37.109 30.5378 36.6086 30.5378 35.9913C30.5378 35.374 28.8715 34.8735 26.8161 34.8735C24.7607 34.8735 23.0944 35.374 23.0944 35.9913C23.0944 36.6086 24.7607 37.109 26.8161 37.109Z" fill="url(#paint29_linear_372_702)"/>
<path d="M29.4051 35.977L28.165 35.9899L28.1062 35.2246L27.537 27.7962L27.5127 27.468L27.2759 24.3846L27.2248 23.7153L27.3879 23.8L28.2466 24.2427L28.423 24.333L28.4571 27.8664L28.5319 35.3882L29.4051 35.977Z" fill="url(#paint30_linear_372_702)"/>
<path d="M28.2666 24.154L28.2465 24.2428L27.5127 27.4681L27.4394 27.7834L25.8696 34.6772L26.171 35.3852L26.8161 35.9915L25.7009 35.9786L25.2592 34.8392L26.6313 27.7245L27.2758 24.3847L27.3878 23.8L27.4054 23.7139L28.2666 24.154Z" fill="url(#paint31_linear_372_702)"/>
<path d="M35.452 23.5435L36.1662 23.883C36.2624 23.9288 36.3471 23.9957 36.4138 24.0788C36.4806 24.162 36.5277 24.2591 36.5516 24.3629L36.3215 24.5085L35.9272 24.3232L35.452 23.5435Z" fill="url(#paint32_linear_372_702)"/>
<path d="M29.6884 19.5748L29.5516 21.1936C29.4231 21.6286 28.9107 22.5621 28.984 23.0095L29.275 24.8533C29.275 24.8533 28.7435 27.9398 28.3766 27.9057C27.8714 27.8593 27.4616 27.7628 26.8465 27.7318C26.5967 27.7189 26.3531 27.6486 26.1348 27.5263C25.9166 27.404 25.7294 27.233 25.588 27.0267C25.4465 26.8203 25.3545 26.5841 25.3191 26.3364C25.2838 26.0887 25.306 25.8362 25.3841 25.5985C25.7345 24.5406 26.2097 23.394 26.7629 22.8439C28.0964 21.5135 26.5777 19.6996 26.5777 19.6996L27.7945 18.6299L29.6884 19.5748Z" fill="url(#paint33_linear_372_702)"/>
<path d="M30.1404 19.8348L32.0962 21.9506L36.1379 23.8728L32.0426 22.5012L29.4144 20.3452L29.4453 20.0639C29.4539 19.9873 29.4842 19.9148 29.5328 19.8549C29.5814 19.7951 29.6461 19.7504 29.7194 19.7263C29.7926 19.7022 29.8712 19.6996 29.9458 19.7188C30.0205 19.738 30.088 19.7783 30.1404 19.8348Z" fill="url(#paint34_linear_372_702)"/>
<path d="M30.3168 20.0249L30.4463 21.1932L29.3229 20.8021L28.1964 19.626L28.9462 19.383C29.1238 19.3248 29.3143 19.3188 29.4951 19.3658C29.676 19.4127 29.8396 19.5105 29.9664 19.6477L30.3168 20.0249Z" fill="url(#paint35_linear_372_702)"/>
<path d="M30.8077 17.6452C30.8077 17.6452 30.432 17.6803 30.3004 17.5157C30.3004 17.5157 29.3313 18.6536 29.5779 19.0638L29.3664 18.9436C29.3664 18.9436 29.2461 18.3465 29.8102 17.8284C29.8102 17.8284 29.194 17.2479 29.2461 18.3445C29.2461 18.3445 29.1811 22.1002 27.1505 21.2405C27.1505 21.2405 27.4085 21.0083 26.1421 20.5387C24.8758 20.0691 24.4232 19.036 27.1252 17.7464C29.3865 16.6668 29.499 15.6399 30.8407 17.043C30.8397 17.0441 31.3583 17.3764 30.8077 17.6452Z" fill="#1D1D1B"/>
<path d="M25.3495 34.3691L25.8696 34.6772L26.171 35.3852L26.8161 35.9916L25.7009 35.9787L25.2592 34.8393L25.3495 34.3691Z" fill="#3C3C3B"/>
<path d="M29.405 35.977L28.165 35.9899L28.1061 35.2246L28.5319 35.3882L29.405 35.977Z" fill="#3C3C3B"/>
<path opacity="0.7" d="M69.6681 15.5352C69.6681 15.5352 73.8398 23.4595 77.9681 23.1751C82.0964 22.8908 85.1927 20.018 77.4293 17.7763L69.6681 15.5352Z" fill="url(#paint36_linear_372_702)"/>
<path d="M69.6681 10.7359V9.45557L66.3422 11.3763L67.46 12.0218L69.6681 10.7359Z" fill="url(#paint37_linear_372_702)"/>
<path d="M66.3422 13.7725V11.376L77.4294 17.7749V21.6178L67.5926 15.9383C67.2123 15.7189 66.8965 15.4032 66.677 15.023C66.4575 14.6428 66.342 14.2115 66.3422 13.7725Z" fill="url(#paint38_linear_372_702)"/>
<path d="M79.544 20.3965L77.4282 21.618V17.7771L80.7541 15.8569V18.2999C80.7541 18.7248 80.6423 19.1423 80.4299 19.5103C80.2175 19.8783 79.9119 20.184 79.544 20.3965Z" fill="url(#paint39_linear_372_702)"/>
<path d="M80.7552 15.8571L69.6681 9.45557V10.7359L79.6468 16.4969L80.7552 15.8571Z" fill="url(#paint40_linear_372_702)"/>
<path d="M67.4599 12.0218L69.668 10.7358L79.6467 16.4969L77.4293 17.7772L67.4599 12.0218Z" fill="#FFCC88"/>
<path d="M69.6681 12.5602C69.6681 12.5602 70.5608 10.0605 72.4248 10.8356C74.2887 11.6107 71.9387 13.5345 74.4781 12.232C77.0175 10.9295 76.421 16.4001 76.421 16.4001L69.6681 12.5602Z" fill="url(#paint41_linear_372_702)"/>
<path d="M68.8497 12.0949C68.8497 12.0949 68.9462 8.80769 70.4494 8.97334C71.9526 9.13899 69.8926 14.2597 71.9867 12.0722C74.0808 9.88467 73.4904 14.5744 75.5825 13.9996C77.6745 13.4247 79.0482 10.1293 79.1777 13.6817C79.3072 17.2341 77.4433 16.9797 77.4433 16.9797L68.8497 12.0949Z" fill="url(#paint42_linear_372_702)"/>
<path d="M41.2832 25.7696C41.2833 25.8831 41.2498 25.9942 41.1867 26.0886C41.1237 26.1831 41.0341 26.2567 40.9292 26.3002C40.8244 26.3437 40.7089 26.3551 40.5976 26.333C40.4862 26.3108 40.3839 26.2562 40.3036 26.1759C40.2233 26.0956 40.1687 25.9933 40.1466 25.882C40.1244 25.7706 40.1358 25.6552 40.1793 25.5503C40.2228 25.4454 40.2965 25.3558 40.3909 25.2928C40.4854 25.2298 40.5964 25.1962 40.7099 25.1963C40.862 25.1963 41.0078 25.2567 41.1153 25.3642C41.2228 25.4717 41.2832 25.6176 41.2832 25.7696Z" fill="url(#paint43_linear_372_702)"/>
<path d="M42.4098 21.7432C42.4098 21.8566 42.3761 21.9675 42.3131 22.0618C42.2501 22.156 42.1606 22.2295 42.0558 22.2729C41.9511 22.3163 41.8358 22.3277 41.7246 22.3055C41.6134 22.2834 41.5112 22.2288 41.431 22.1486C41.3509 22.0685 41.2963 21.9663 41.2741 21.8551C41.252 21.7439 41.2634 21.6286 41.3068 21.5238C41.3502 21.4191 41.4236 21.3295 41.5179 21.2665C41.6122 21.2035 41.723 21.1699 41.8364 21.1699C41.9885 21.1699 42.1343 21.2303 42.2418 21.3378C42.3494 21.4454 42.4098 21.5912 42.4098 21.7432Z" fill="#FFCC88"/>
<path d="M57.3162 21.6368C57.3162 21.7502 57.2826 21.861 57.2196 21.9553C57.1566 22.0496 57.067 22.1231 56.9623 22.1665C56.8575 22.2099 56.7422 22.2212 56.631 22.1991C56.5198 22.177 56.4177 22.1224 56.3375 22.0422C56.2573 21.962 56.2027 21.8599 56.1806 21.7486C56.1585 21.6374 56.1698 21.5222 56.2132 21.4174C56.2566 21.3126 56.3301 21.2231 56.4244 21.1601C56.5186 21.0971 56.6295 21.0635 56.7429 21.0635C56.8182 21.0634 56.8928 21.0782 56.9624 21.107C57.0319 21.1358 57.0952 21.178 57.1484 21.2312C57.2017 21.2845 57.2439 21.3477 57.2727 21.4173C57.3015 21.4869 57.3163 21.5615 57.3162 21.6368Z" fill="#3C3C3B"/>
<path style="mix-blend-mode:multiply" opacity="0.7" d="M68.1324 28.1641C70.5703 28.1641 72.5466 27.6863 72.5466 27.097C72.5466 26.5076 70.5703 26.0298 68.1324 26.0298C65.6945 26.0298 63.7181 26.5076 63.7181 27.097C63.7181 27.6863 65.6945 28.1641 68.1324 28.1641Z" fill="url(#paint44_linear_372_702)"/>
<path d="M62.7202 10.5141L62.2516 9.48204L63.0494 9.72819L63.2692 10.1632L63.8147 10.4641C63.8147 10.4641 64.4788 10.9997 65.4031 10.4501C65.7818 10.2246 66.2045 9.81643 66.6415 9.11307L67.4538 8.79776L67.5725 8.02783H68.0478L68.4203 8.75545L69.6387 9.38244C69.6387 9.38244 71.9563 14.0093 70.5387 16.5358L70.629 17.1174L70.8659 16.9182V17.2629L70.1016 17.5539L69.7022 16.8083L69.6655 15.5362H66.6121L66.0873 15.1002L66.4816 12.1928L66.5234 11.8832C66.281 12.047 66.0179 12.1778 65.7411 12.2723C64.967 12.5349 63.825 12.5494 63.3714 10.6911L62.7202 10.5141Z" fill="url(#paint45_linear_372_702)"/>
<path d="M67.4476 18.5296L66.9052 26.5153L65.1373 27.1387L66.3051 25.7521L66.3221 25.5152L66.7468 17.5532L67.4476 18.5296Z" fill="url(#paint46_linear_372_702)"/>
<path d="M67.0229 25.8691L66.9052 26.5157L65.1373 27.1391L66.3051 25.7525L66.3221 25.5156L67.0229 25.8691Z" fill="#3C3C3B"/>
<path d="M68.796 18.4881L69.3383 26.4738L71.1058 27.0972L69.9385 25.7106L69.9209 25.4737L69.4962 17.5117L68.796 18.4881Z" fill="url(#paint47_linear_372_702)"/>
<path d="M69.2207 25.8271L69.3384 26.4737L71.1058 27.0971L69.9385 25.7105L69.921 25.4736L69.2207 25.8271Z" fill="#3C3C3B"/>
<path d="M66.8505 7.92731L66.9594 7.76889V6.68882C69.4075 5.69028 68.4043 8.1167 68.4043 8.1167L66.9594 8.77826V7.92731H66.8505Z" fill="url(#paint48_linear_372_702)"/>
<path d="M66.3675 6.25684C66.3675 6.25684 66.2158 6.93543 66.9186 6.93543C67.6215 6.93543 67.718 7.37406 67.718 7.37406L67.9368 7.48966V7.83231C67.9368 7.83231 68.3548 7.02625 68.2872 7.68059C68.2304 8.0604 67.9486 8.14503 67.9486 8.14503L68.1551 8.22863L68.4053 8.11407C68.4053 8.11407 69.4235 6.44313 68.2768 6.36366C67.0765 6.28264 66.3675 6.25684 66.3675 6.25684Z" fill="#1D1D1B"/>
<path d="M65.7235 12.791C65.987 12.6057 66.2401 12.4059 66.4815 12.1924C67.1911 11.567 68.089 10.5679 67.7061 9.77273L66.6441 9.11426C66.2049 9.81762 65.7823 10.2258 65.4056 10.4513C65.4056 10.4513 65.6755 11.5644 65.7436 12.2724C65.7647 12.5108 65.7647 12.7033 65.7235 12.791Z" fill="url(#paint49_linear_372_702)"/>
<path d="M69.6407 9.38182L69.9044 14.4994L70.1774 15.0629L69.6681 15.5356H66.6142L66.0873 15.1001L66.5233 11.8826L66.6446 9.11348L67.4563 8.79818C67.4563 8.79818 67.9956 10.2101 68.4229 8.75586L69.6407 9.38182Z" fill="url(#paint50_linear_372_702)"/>
<path d="M69.6407 9.38184L70.8679 11.6633C70.8679 11.6633 70.1712 12.2453 69.7842 12.1452L69.6407 9.38184Z" fill="url(#paint51_linear_372_702)"/>
<path d="M66.5254 18.1737L66.6147 15.5352H69.6681L69.7553 18.0983L68.4827 18.5891L68.2722 17.2051C68.2714 17.164 68.2544 17.1249 68.2248 17.0964C68.1953 17.0679 68.1556 17.0523 68.1145 17.0531C68.0735 17.0538 68.0344 17.0709 68.0059 17.1004C67.9774 17.13 67.9618 17.1697 67.9626 17.2107L67.7964 18.6644L66.5254 18.1737Z" fill="#3C3C3B"/>
<path d="M62.9519 27.5847C62.9174 27.5847 62.8843 27.5711 62.8597 27.5468C62.8352 27.5226 62.8212 27.4896 62.8208 27.4552L62.5715 6.72735C62.5713 6.71014 62.5745 6.69305 62.5809 6.67707C62.5873 6.66109 62.5968 6.64652 62.6088 6.63421C62.6209 6.62189 62.6352 6.61207 62.651 6.60529C62.6668 6.59852 62.6839 6.59493 62.7011 6.59473C62.7356 6.59498 62.7688 6.60861 62.7935 6.63276C62.8182 6.65691 62.8326 6.6897 62.8337 6.72425L63.0829 27.4521C63.0831 27.4693 63.08 27.4864 63.0736 27.5023C63.0672 27.5183 63.0577 27.5329 63.0456 27.5452C63.0336 27.5575 63.0193 27.5673 63.0035 27.5741C62.9876 27.5809 62.9706 27.5845 62.9534 27.5847H62.9519Z" fill="url(#paint52_linear_372_702)"/>
<defs>
<linearGradient id="paint0_linear_372_702" x1="8.27776" y1="15.1337" x2="39.0431" y2="25.5743" gradientUnits="userSpaceOnUse">
<stop stop-color="#F6F6F6"/>
<stop offset="1" stop-color="#DCCCCA"/>
</linearGradient>
<linearGradient id="paint1_linear_372_702" x1="44.4997" y1="3.16005" x2="44.4997" y2="-6.49301" gradientUnits="userSpaceOnUse">
<stop stop-color="#F6F6F6"/>
<stop offset="1" stop-color="#DCCCCA"/>
</linearGradient>
<linearGradient id="paint2_linear_372_702" x1="47.452" y1="60.9027" x2="46.5103" y2="49.9162" gradientUnits="userSpaceOnUse">
<stop stop-color="#F6F6F6"/>
<stop offset="1" stop-color="#DCCCCA"/>
</linearGradient>
<linearGradient id="paint3_linear_372_702" x1="17.2053" y1="60.2867" x2="17.2053" y2="54.9478" gradientUnits="userSpaceOnUse">
<stop stop-color="#F6F6F6"/>
<stop offset="1" stop-color="#DCCCCA"/>
</linearGradient>
<linearGradient id="paint4_linear_372_702" x1="25.0321" y1="18.9439" x2="24.9929" y2="18.4888" gradientUnits="userSpaceOnUse">
<stop stop-color="#F6F6F6"/>
<stop offset="1" stop-color="#DCCCCA"/>
</linearGradient>
<linearGradient id="paint5_linear_372_702" x1="24.4402" y1="13.1789" x2="22.0168" y2="19.5411" gradientUnits="userSpaceOnUse">
<stop stop-color="#F6F6F6"/>
<stop offset="1" stop-color="#DCCCCA"/>
</linearGradient>
<linearGradient id="paint6_linear_372_702" x1="22.5969" y1="12.1495" x2="25.4722" y2="12.1495" gradientUnits="userSpaceOnUse">
<stop stop-color="#F6F6F6"/>
<stop offset="1" stop-color="#DCCCCA"/>
</linearGradient>
<linearGradient id="paint7_linear_372_702" x1="23.8441" y1="2.18059" x2="23.9221" y2="10.6122" gradientUnits="userSpaceOnUse">
<stop stop-color="#A1D9D6"/>
<stop offset="1" stop-color="#00A19A"/>
</linearGradient>
<linearGradient id="paint8_linear_372_702" x1="21.7284" y1="5.49754" x2="25.7881" y2="14.2413" gradientUnits="userSpaceOnUse">
<stop stop-color="#A1D9D6"/>
<stop offset="1" stop-color="#00A19A"/>
</linearGradient>
<linearGradient id="paint9_linear_372_702" x1="24.531" y1="10.0724" x2="23.1779" y2="14.323" gradientUnits="userSpaceOnUse">
<stop stop-color="#A1D9D6"/>
<stop offset="1" stop-color="#00A19A"/>
</linearGradient>
<linearGradient id="paint10_linear_372_702" x1="24.4804" y1="16.2943" x2="22.8781" y2="19.7823" gradientUnits="userSpaceOnUse">
<stop stop-color="#A1D9D6"/>
<stop offset="1" stop-color="#00A19A"/>
</linearGradient>
<linearGradient id="paint11_linear_372_702" x1="21.7718" y1="16.5541" x2="15.5499" y2="27.552" gradientUnits="userSpaceOnUse">
<stop stop-color="#A1D9D6"/>
<stop offset="1" stop-color="#00A19A"/>
</linearGradient>
<linearGradient id="paint12_linear_372_702" x1="4.76561" y1="33.2777" x2="10.7873" y2="26.1383" gradientUnits="userSpaceOnUse">
<stop stop-color="#A1D9D6"/>
<stop offset="1" stop-color="#00A19A"/>
</linearGradient>
<linearGradient id="paint13_linear_372_702" x1="22.791" y1="11.4225" x2="15.6892" y2="19.9697" gradientUnits="userSpaceOnUse">
<stop stop-color="#A1D9D6"/>
<stop offset="1" stop-color="#00A19A"/>
</linearGradient>
<linearGradient id="paint14_linear_372_702" x1="9.81201" y1="14.9672" x2="18.7674" y2="22.9328" gradientUnits="userSpaceOnUse">
<stop stop-color="#A1D9D6"/>
<stop offset="1" stop-color="#00A19A"/>
</linearGradient>
<linearGradient id="paint15_linear_372_702" x1="18.7999" y1="34.8586" x2="17.3751" y2="11.9118" gradientUnits="userSpaceOnUse">
<stop stop-color="#A1D9D6"/>
<stop offset="1" stop-color="#00A19A"/>
</linearGradient>
<linearGradient id="paint16_linear_372_702" x1="46.793" y1="82.7574" x2="46.793" y2="74.7835" gradientUnits="userSpaceOnUse">
<stop stop-color="#F6F6F6"/>
<stop offset="1" stop-color="#DCCCCA"/>
</linearGradient>
<linearGradient id="paint17_linear_372_702" x1="45.0374" y1="40.9897" x2="45.0854" y2="36.8382" gradientUnits="userSpaceOnUse">
<stop stop-color="#FAD6C7"/>
<stop offset="1" stop-color="#E4857F"/>
</linearGradient>
<linearGradient id="paint18_linear_372_702" x1="46.7394" y1="26.1515" x2="30.1951" y2="22.1124" gradientUnits="userSpaceOnUse">
<stop stop-color="#FAD6C7"/>
<stop offset="1" stop-color="#E4857F"/>
</linearGradient>
<linearGradient id="paint19_linear_372_702" x1="47.6905" y1="5.56152" x2="47.2317" y2="8.92611" gradientUnits="userSpaceOnUse">
<stop stop-color="#FAD6C7"/>
<stop offset="1" stop-color="#E4857F"/>
</linearGradient>
<linearGradient id="paint20_linear_372_702" x1="29.0093" y1="28.083" x2="60.5254" y2="20.1907" gradientUnits="userSpaceOnUse">
<stop stop-color="#A1D9D6"/>
<stop offset="1" stop-color="#00A19A"/>
</linearGradient>
<linearGradient id="paint21_linear_372_702" x1="31.9228" y1="26.8221" x2="31.0249" y2="26.6729" gradientUnits="userSpaceOnUse">
<stop stop-color="#A1D9D6"/>
<stop offset="1" stop-color="#00A19A"/>
</linearGradient>
<linearGradient id="paint22_linear_372_702" x1="37.9346" y1="85.2971" x2="42.934" y2="43.3059" gradientUnits="userSpaceOnUse">
<stop stop-color="#A1D9D6"/>
<stop offset="1" stop-color="#00A19A"/>
</linearGradient>
<linearGradient id="paint23_linear_372_702" x1="58.8075" y1="21.3432" x2="57.9096" y2="21.1946" gradientUnits="userSpaceOnUse">
<stop stop-color="#A1D9D6"/>
<stop offset="1" stop-color="#00A19A"/>
</linearGradient>
<linearGradient id="paint24_linear_372_702" x1="41.4814" y1="21.6582" x2="40.7863" y2="21.5426" gradientUnits="userSpaceOnUse">
<stop stop-color="#A1D9D6"/>
<stop offset="1" stop-color="#00A19A"/>
</linearGradient>
<linearGradient id="paint25_linear_372_702" x1="39.6851" y1="23.5315" x2="40.3208" y2="22.7998" gradientUnits="userSpaceOnUse">
<stop stop-color="#A1D9D6"/>
<stop offset="1" stop-color="#00A19A"/>
</linearGradient>
<linearGradient id="paint26_linear_372_702" x1="48.431" y1="16.8667" x2="50.1829" y2="17.0143" gradientUnits="userSpaceOnUse">
<stop stop-color="#A1D9D6"/>
<stop offset="1" stop-color="#00A19A"/>
</linearGradient>
<linearGradient id="paint27_linear_372_702" x1="29.376" y1="20.6188" x2="29.7047" y2="15.0162" gradientUnits="userSpaceOnUse">
<stop stop-color="#FAD6C7"/>
<stop offset="1" stop-color="#E4857F"/>
</linearGradient>
<linearGradient id="paint28_linear_372_702" x1="31.028" y1="29.3145" x2="30.113" y2="26.0717" gradientUnits="userSpaceOnUse">
<stop stop-color="#F6F6F6"/>
<stop offset="1" stop-color="#DCCCCA"/>
</linearGradient>
<linearGradient id="paint29_linear_372_702" x1="25.8289" y1="46.2553" x2="26.2799" y2="41.5645" gradientUnits="userSpaceOnUse">
<stop stop-color="#F6F6F6"/>
<stop offset="1" stop-color="#DCCCCA"/>
</linearGradient>
<linearGradient id="paint30_linear_372_702" x1="26.5214" y1="31.0416" x2="31.3211" y2="27.8416" gradientUnits="userSpaceOnUse">
<stop stop-color="#FAD6C7"/>
<stop offset="1" stop-color="#E4857F"/>
</linearGradient>
<linearGradient id="paint31_linear_372_702" x1="24.7988" y1="31.3936" x2="31.045" y2="27.2297" gradientUnits="userSpaceOnUse">
<stop stop-color="#FAD6C7"/>
<stop offset="1" stop-color="#E4857F"/>
</linearGradient>
<linearGradient id="paint32_linear_372_702" x1="36.8955" y1="23.8771" x2="35.7486" y2="22.2336" gradientUnits="userSpaceOnUse">
<stop stop-color="#FAD6C7"/>
<stop offset="1" stop-color="#E4857F"/>
</linearGradient>
<linearGradient id="paint33_linear_372_702" x1="27.0875" y1="30.4441" x2="27.2666" y2="27.0935" gradientUnits="userSpaceOnUse">
<stop stop-color="#FAD6C7"/>
<stop offset="1" stop-color="#E4857F"/>
</linearGradient>
<linearGradient id="paint34_linear_372_702" x1="36.1364" y1="24.5475" x2="26.1055" y2="18.0031" gradientUnits="userSpaceOnUse">
<stop stop-color="#FAD6C7"/>
<stop offset="1" stop-color="#E4857F"/>
</linearGradient>
<linearGradient id="paint35_linear_372_702" x1="28.7831" y1="30.5346" x2="28.9622" y2="27.1834" gradientUnits="userSpaceOnUse">
<stop stop-color="#FAD6C7"/>
<stop offset="1" stop-color="#E4857F"/>
</linearGradient>
<linearGradient id="paint36_linear_372_702" x1="76.533" y1="25.1284" x2="76.3699" y2="23.2283" gradientUnits="userSpaceOnUse">
<stop stop-color="#F6F6F6"/>
<stop offset="1" stop-color="#DCCCCA"/>
</linearGradient>
<linearGradient id="paint37_linear_372_702" x1="68.0049" y1="9.12169" x2="68.0049" y2="12.2071" gradientUnits="userSpaceOnUse">
<stop stop-color="#F6F6F6"/>
<stop offset="1" stop-color="#DCCCCA"/>
</linearGradient>
<linearGradient id="paint38_linear_372_702" x1="73.2128" y1="13.5851" x2="71.4082" y2="17.5437" gradientUnits="userSpaceOnUse">
<stop stop-color="#F6F6F6"/>
<stop offset="1" stop-color="#DCCCCA"/>
</linearGradient>
<linearGradient id="paint39_linear_372_702" x1="79.078" y1="17.8979" x2="79.1363" y2="21.3326" gradientUnits="userSpaceOnUse">
<stop stop-color="#F6F6F6"/>
<stop offset="1" stop-color="#DCCCCA"/>
</linearGradient>
<linearGradient id="paint40_linear_372_702" x1="75.3838" y1="13.4224" x2="81.4379" y2="17.8464" gradientUnits="userSpaceOnUse">
<stop stop-color="#F6F6F6"/>
<stop offset="1" stop-color="#DCCCCA"/>
</linearGradient>
<linearGradient id="paint41_linear_372_702" x1="77.7065" y1="8.9634" x2="76.7518" y2="10.0548" gradientUnits="userSpaceOnUse">
<stop stop-color="#A1D9D6"/>
<stop offset="1" stop-color="#00A19A"/>
</linearGradient>
<linearGradient id="paint42_linear_372_702" x1="76.0257" y1="10.2407" x2="72.4336" y2="15.1514" gradientUnits="userSpaceOnUse">
<stop stop-color="#A1D9D6"/>
<stop offset="1" stop-color="#00A19A"/>
</linearGradient>
<linearGradient id="paint43_linear_372_702" x1="40.376" y1="26.5958" x2="41.0969" y2="24.8031" gradientUnits="userSpaceOnUse">
<stop stop-color="#F6F6F6"/>
<stop offset="1" stop-color="#DCCCCA"/>
</linearGradient>
<linearGradient id="paint44_linear_372_702" x1="68.1324" y1="47.1596" x2="68.1324" y2="45.9536" gradientUnits="userSpaceOnUse">
<stop stop-color="#F6F6F6"/>
<stop offset="1" stop-color="#DCCCCA"/>
</linearGradient>
<linearGradient id="paint45_linear_372_702" x1="66.7257" y1="17.6494" x2="66.4878" y2="4.10025" gradientUnits="userSpaceOnUse">
<stop stop-color="#FAD6C7"/>
<stop offset="1" stop-color="#E4857F"/>
</linearGradient>
<linearGradient id="paint46_linear_372_702" x1="66.3918" y1="28.5" x2="66.2024" y2="17.7096" gradientUnits="userSpaceOnUse">
<stop stop-color="#FAD6C7"/>
<stop offset="1" stop-color="#E4857F"/>
</linearGradient>
<linearGradient id="paint47_linear_372_702" x1="69.8513" y1="28.4585" x2="70.0406" y2="17.6681" gradientUnits="userSpaceOnUse">
<stop stop-color="#FAD6C7"/>
<stop offset="1" stop-color="#E4857F"/>
</linearGradient>
<linearGradient id="paint48_linear_372_702" x1="67.7102" y1="8.29164" x2="67.7463" y2="6.90504" gradientUnits="userSpaceOnUse">
<stop stop-color="#FAD6C7"/>
<stop offset="1" stop-color="#E4857F"/>
</linearGradient>
<linearGradient id="paint49_linear_372_702" x1="66.6812" y1="7.73436" x2="66.5723" y2="11.2243" gradientUnits="userSpaceOnUse">
<stop stop-color="#FAD6C7"/>
<stop offset="1" stop-color="#E4857F"/>
</linearGradient>
<linearGradient id="paint50_linear_372_702" x1="68.4714" y1="8.73161" x2="67.9523" y2="18.443" gradientUnits="userSpaceOnUse">
<stop stop-color="#FAD6C7"/>
<stop offset="1" stop-color="#E4857F"/>
</linearGradient>
<linearGradient id="paint51_linear_372_702" x1="70.3379" y1="7.84816" x2="70.229" y2="11.3387" gradientUnits="userSpaceOnUse">
<stop stop-color="#FAD6C7"/>
<stop offset="1" stop-color="#E4857F"/>
</linearGradient>
<linearGradient id="paint52_linear_372_702" x1="62.5715" y1="17.09" x2="63.0829" y2="17.09" gradientUnits="userSpaceOnUse">
<stop stop-color="#F6F6F6"/>
<stop offset="1" stop-color="#DCCCCA"/>
</linearGradient>
</defs>
</svg>
