<svg width="188" height="247" viewBox="0 0 188 247" fill="none" xmlns="http://www.w3.org/2000/svg">
<g clip-path="url(#clip0_374_1454)">
<path d="M111.379 61.1562H108.776C102.66 61.1562 97.7019 66.1509 97.7019 72.3122V84.1143C97.7019 90.2755 102.66 95.2702 108.776 95.2702H111.379C117.495 95.2702 122.453 90.2755 122.453 84.1143V72.3122C122.453 66.1509 117.495 61.1562 111.379 61.1562Z" fill="#BAEBFF"/>
<path d="M111.379 179.371H108.776C102.66 179.371 97.7019 184.365 97.7019 190.527V212.989C97.7019 219.151 102.66 224.145 108.776 224.145H111.379C117.495 224.145 122.453 219.151 122.453 212.989V190.527C122.453 184.365 117.495 179.371 111.379 179.371Z" fill="#B8DBE9"/>
<path d="M168.895 137.439H166.292C160.176 137.439 155.218 142.434 155.218 148.595V160.397C155.218 166.559 160.176 171.553 166.292 171.553H168.895C175.011 171.553 179.969 166.559 179.969 160.397V148.595C179.969 142.434 175.011 137.439 168.895 137.439Z" fill="#B8DBE9"/>
<path d="M140.137 61.1562H137.534C131.418 61.1562 126.46 66.1509 126.46 72.3122V99.9868C126.46 106.148 131.418 111.143 137.534 111.143H140.137C146.253 111.143 151.211 106.148 151.211 99.9868V72.3122C151.211 66.1509 146.253 61.1562 140.137 61.1562Z" fill="#8AB8F1"/>
<path d="M168.895 92.6641H166.292C160.176 92.6641 155.218 97.6588 155.218 103.82V120.834C155.218 126.995 160.176 131.99 166.292 131.99H168.895C175.011 131.99 179.969 126.995 179.969 120.834V103.82C179.969 97.6588 175.011 92.6641 168.895 92.6641Z" fill="#B8DBE9"/>
<path d="M140.137 116.354H137.534C131.418 116.354 126.46 121.349 126.46 127.51V131.495C126.46 137.656 131.418 142.651 137.534 142.651H140.137C146.253 142.651 151.211 137.656 151.211 131.495V127.51C151.211 121.349 146.253 116.354 140.137 116.354Z" fill="#B8DBE9"/>
<path d="M168.895 61.1562H166.292C160.176 61.1562 155.218 66.1509 155.218 72.3122V76.2965C155.218 82.4578 160.176 87.4525 166.292 87.4525H168.895C175.011 87.4525 179.969 82.4578 179.969 76.2965V72.3122C179.969 66.1509 175.011 61.1562 168.895 61.1562Z" fill="#B8DBE9"/>
<path d="M111.379 132.227H108.776C102.66 132.227 97.7019 137.222 97.7019 143.383V163.003C97.7019 169.164 102.66 174.159 108.776 174.159H111.379C117.495 174.159 122.453 169.164 122.453 163.003V143.383C122.453 137.222 117.495 132.227 111.379 132.227Z" fill="#8AB8F1"/>
<path d="M111.379 100.482H108.776C102.66 100.482 97.7019 105.477 97.7019 111.638V115.623C97.7019 121.784 102.66 126.779 108.776 126.779H111.379C117.495 126.779 122.453 121.784 122.453 115.623V111.638C122.453 105.477 117.495 100.482 111.379 100.482Z" fill="#B8DBE9"/>
<path d="M168.895 208.272H166.292C160.176 208.272 155.218 213.267 155.218 219.428V223.413C155.218 229.574 160.176 234.569 166.292 234.569H168.895C175.011 234.569 179.969 229.574 179.969 223.413V219.428C179.969 213.267 175.011 208.272 168.895 208.272Z" fill="#8AB8F1"/>
<path fill-rule="evenodd" clip-rule="evenodd" d="M97.4661 51.9169C97.4661 51.1321 98.0979 50.4956 98.877 50.4956H106.663C107.442 50.4956 108.074 51.1321 108.074 51.9169C108.074 52.7023 107.442 53.3387 106.663 53.3387H98.877C98.0979 53.3387 97.4661 52.7023 97.4661 51.9169Z" fill="#B8DBE9"/>
<path opacity="0.3" fill-rule="evenodd" clip-rule="evenodd" d="M113.26 51.9169C113.26 51.1321 113.891 50.4956 114.67 50.4956H122.456C123.235 50.4956 123.867 51.1321 123.867 51.9169C123.867 52.7023 123.235 53.3387 122.456 53.3387H114.67C113.891 53.3387 113.26 52.7023 113.26 51.9169Z" fill="#B8DBE9"/>
<path opacity="0.3" fill-rule="evenodd" clip-rule="evenodd" d="M128.817 51.9169C128.817 51.1321 129.449 50.4956 130.228 50.4956H138.014C138.793 50.4956 139.425 51.1321 139.425 51.9169C139.425 52.7023 138.793 53.3387 138.014 53.3387H130.228C129.449 53.3387 128.817 52.7023 128.817 51.9169Z" fill="#B8DBE9"/>
<path opacity="0.3" fill-rule="evenodd" clip-rule="evenodd" d="M144.611 51.9169C144.611 51.1321 145.243 50.4956 146.022 50.4956H153.807C154.586 50.4956 155.218 51.1321 155.218 51.9169C155.218 52.7023 154.586 53.3387 153.807 53.3387H146.022C145.243 53.3387 144.611 52.7023 144.611 51.9169Z" fill="#B8DBE9"/>
<path opacity="0.3" fill-rule="evenodd" clip-rule="evenodd" d="M160.168 51.9169C160.168 51.1321 160.8 50.4956 161.579 50.4956H169.365C170.144 50.4956 170.776 51.1321 170.776 51.9169C170.776 52.7023 170.144 53.3387 169.365 53.3387H161.579C160.8 53.3387 160.168 52.7023 160.168 51.9169Z" fill="#B8DBE9"/>
<path fill-rule="evenodd" clip-rule="evenodd" d="M28.7439 14.0199C28.7439 6.76935 34.5788 0.851562 41.776 0.851562C48.9731 0.851562 54.8081 6.76935 54.8081 14.0199C54.8081 21.2704 48.9731 27.188 41.776 27.188C34.5788 27.188 28.7439 21.2704 28.7439 14.0199Z" fill="#B8DBE9"/>
<path fill-rule="evenodd" clip-rule="evenodd" d="M40.147 11.5617C40.147 11.1736 40.462 10.8594 40.8507 10.8594H42.962C43.3507 10.8594 43.6658 11.1736 43.6658 11.5617V11.9128H44.7212C45.1099 11.9128 45.4249 12.2271 45.4249 12.6152V16.4779C45.4249 16.8659 45.1099 17.1802 44.7212 17.1802H39.0916C38.7023 17.1802 38.3878 16.8659 38.3878 16.4779V12.6152C38.3878 12.2271 38.7023 11.9128 39.0916 11.9128H40.147V11.5617ZM43.8613 14.4148C43.8613 13.4709 43.0429 12.703 42.0368 12.703C41.0307 12.703 40.2123 13.4709 40.2123 14.4148C40.2123 15.3587 41.0307 16.1267 42.0368 16.1267C43.0429 16.1267 43.8613 15.3587 43.8613 14.4148ZM44.2522 12.703C44.4681 12.703 44.6431 12.8799 44.6431 13.098C44.6431 13.316 44.4681 13.493 44.2522 13.493C44.0362 13.493 43.8613 13.316 43.8613 13.098C43.8613 12.8799 44.0362 12.703 44.2522 12.703ZM40.9941 14.2831C40.9941 13.7013 41.4609 13.2297 42.0368 13.2297C42.6126 13.2297 43.0794 13.7013 43.0794 14.2831C43.0794 14.8649 42.6126 15.3366 42.0368 15.3366C41.4609 15.3366 40.9941 14.8649 40.9941 14.2831Z" fill="#70A2DE"/>
<path fill-rule="evenodd" clip-rule="evenodd" d="M20.9952 36.3228C20.9952 35.6022 21.5752 35.0176 22.2906 35.0176H30.0903C30.8057 35.0176 31.3857 35.6022 31.3857 36.3228C31.3857 37.0435 30.8057 37.6275 30.0903 37.6275H22.2906C21.5752 37.6275 20.9952 37.0435 20.9952 36.3228Z" fill="#8AB8F1"/>
<path opacity="0.3" fill-rule="evenodd" clip-rule="evenodd" d="M36.5811 36.3228C36.5811 35.6022 37.1608 35.0176 37.8762 35.0176H45.6758C46.3912 35.0176 46.9715 35.6022 46.9715 36.3228C46.9715 37.0435 46.3912 37.6275 45.6758 37.6275H37.8762C37.1608 37.6275 36.5811 37.0435 36.5811 36.3228Z" fill="#B8DBE9"/>
<path opacity="0.3" fill-rule="evenodd" clip-rule="evenodd" d="M52.1664 36.3228C52.1664 35.6022 52.7467 35.0176 53.4621 35.0176H61.2617C61.977 35.0176 62.5568 35.6022 62.5568 36.3228C62.5568 37.0435 61.977 37.6275 61.2617 37.6275H53.4621C52.7467 37.6275 52.1664 37.0435 52.1664 36.3228Z" fill="#B8DBE9"/>
<path fill-rule="evenodd" clip-rule="evenodd" d="M74.7113 65.2812C74.7113 64.5539 75.296 63.9648 76.0181 63.9648H81.2091C81.9306 63.9648 82.5159 64.5539 82.5159 65.2812C82.5159 66.0081 81.9306 66.5977 81.2091 66.5977H76.0181C75.296 66.5977 74.7113 66.0081 74.7113 65.2812Z" fill="#B8DBE9"/>
<path fill-rule="evenodd" clip-rule="evenodd" d="M72.1094 73.1797C72.1094 72.4529 72.6947 71.8633 73.4162 71.8633H81.2091C81.9306 71.8633 82.5159 72.4529 82.5159 73.1797C82.5159 73.9071 81.9306 74.4961 81.2091 74.4961H73.4162C72.6947 74.4961 72.1094 73.9071 72.1094 73.1797Z" fill="#B8DBE9"/>
<path fill-rule="evenodd" clip-rule="evenodd" d="M77.3126 81.0786C77.3126 80.3512 77.8979 79.7622 78.6194 79.7622H81.2091C81.9306 79.7622 82.5159 80.3512 82.5159 81.0786C82.5159 81.8054 81.9306 82.395 81.2091 82.395H78.6194C77.8979 82.395 77.3126 81.8054 77.3126 81.0786Z" fill="#B8DBE9"/>
<path fill-rule="evenodd" clip-rule="evenodd" d="M79.9145 88.977C79.9145 88.2536 80.4965 87.6606 81.2152 87.6606C81.9334 87.6606 82.5159 88.2536 82.5159 88.977C82.5159 89.7011 81.9334 90.2935 81.2152 90.2935C80.4965 90.2935 79.9145 89.7011 79.9145 88.977Z" fill="#B8DBE9"/>
<path fill-rule="evenodd" clip-rule="evenodd" d="M74.7113 96.876C74.7113 96.1486 75.296 95.5596 76.0181 95.5596H81.2091C81.9306 95.5596 82.5159 96.1486 82.5159 96.876C82.5159 97.6028 81.9306 98.1924 81.2091 98.1924H76.0181C75.296 98.1924 74.7113 97.6028 74.7113 96.876Z" fill="#B8DBE9"/>
<path fill-rule="evenodd" clip-rule="evenodd" d="M77.3126 104.774C77.3126 104.048 77.8979 103.458 78.6194 103.458H81.2091C81.9306 103.458 82.5159 104.048 82.5159 104.774C82.5159 105.501 81.9306 106.091 81.2091 106.091H78.6194C77.8979 106.091 77.3126 105.501 77.3126 104.774Z" fill="#B8DBE9"/>
<path fill-rule="evenodd" clip-rule="evenodd" d="M79.9145 112.673C79.9145 111.949 80.4965 111.357 81.2152 111.357C81.9334 111.357 82.5159 111.949 82.5159 112.673C82.5159 113.397 81.9334 113.99 81.2152 113.99C80.4965 113.99 79.9145 113.397 79.9145 112.673Z" fill="#8AB8F1"/>
<path fill-rule="evenodd" clip-rule="evenodd" d="M0.566589 144.268C0.566589 143.541 1.15164 142.951 1.8734 142.951H46.0878C46.8098 142.951 47.3945 143.541 47.3945 144.268C47.3945 144.995 46.8098 145.585 46.0878 145.585H1.8734C1.15164 145.585 0.566589 144.995 0.566589 144.268Z" fill="#B8DBE9"/>
<path fill-rule="evenodd" clip-rule="evenodd" d="M77.3126 120.572C77.3126 119.845 77.8979 119.255 78.6194 119.255H81.2091C81.9306 119.255 82.5159 119.845 82.5159 120.572C82.5159 121.299 81.9306 121.888 81.2091 121.888H78.6194C77.8979 121.888 77.3126 121.299 77.3126 120.572Z" fill="#8AB8F1"/>
<path fill-rule="evenodd" clip-rule="evenodd" d="M74.7113 128.471C74.7113 127.744 75.296 127.154 76.0181 127.154H81.2091C81.9306 127.154 82.5159 127.744 82.5159 128.471C82.5159 129.198 81.9306 129.788 81.2091 129.788H76.0181C75.296 129.788 74.7113 129.198 74.7113 128.471Z" fill="#B8DBE9"/>
<path fill-rule="evenodd" clip-rule="evenodd" d="M0.566589 136.369C0.566589 135.642 1.15164 135.053 1.8734 135.053H20.0723C20.7941 135.053 21.3791 135.642 21.3791 136.369C21.3791 137.096 20.7941 137.686 20.0723 137.686H1.8734C1.15164 137.686 0.566589 137.096 0.566589 136.369Z" fill="#BAEBFF"/>
<path fill-rule="evenodd" clip-rule="evenodd" d="M0.566589 128.471C0.566589 127.744 1.15164 127.154 1.8734 127.154H12.2676C12.9893 127.154 13.5744 127.744 13.5744 128.471C13.5744 129.198 12.9893 129.788 12.2676 129.788H1.8734C1.15164 129.788 0.566589 129.198 0.566589 128.471Z" fill="#8AB8F1"/>
<path fill-rule="evenodd" clip-rule="evenodd" d="M0.566589 120.572C0.566589 119.845 1.15164 119.255 1.8734 119.255H9.66606C10.3878 119.255 10.9729 119.845 10.9729 120.572C10.9729 121.299 10.3878 121.888 9.66606 121.888H1.8734C1.15164 121.888 0.566589 121.299 0.566589 120.572Z" fill="#B8DBE9"/>
<path fill-rule="evenodd" clip-rule="evenodd" d="M0.566589 81.0786C0.566589 80.3512 1.15164 79.7622 1.8734 79.7622H20.0723C20.7941 79.7622 21.3791 80.3512 21.3791 81.0786C21.3791 81.8054 20.7941 82.395 20.0723 82.395H1.8734C1.15164 82.395 0.566589 81.8054 0.566589 81.0786Z" fill="#B8DBE9"/>
<path fill-rule="evenodd" clip-rule="evenodd" d="M0.566589 73.1797C0.566589 72.4529 1.15164 71.8633 1.8734 71.8633H30.4786C31.2003 71.8633 31.7854 72.4529 31.7854 73.1797C31.7854 73.9071 31.2003 74.4961 30.4786 74.4961H1.8734C1.15164 74.4961 0.566589 73.9071 0.566589 73.1797Z" fill="#BAEBFF"/>
<path fill-rule="evenodd" clip-rule="evenodd" d="M0.566589 65.2812C0.566589 64.5539 1.15164 63.9648 1.8734 63.9648H12.2676C12.9893 63.9648 13.5744 64.5539 13.5744 65.2812C13.5744 66.0081 12.9893 66.5977 12.2676 66.5977H1.8734C1.15164 66.5977 0.566589 66.0081 0.566589 65.2812Z" fill="#B8DBE9"/>
<path d="M77.3343 48.3057H5.74822C2.88648 48.3057 0.566589 50.6427 0.566589 53.5255V53.5255C0.566589 56.4084 2.88648 58.7454 5.74822 58.7454H77.3343C80.196 58.7454 82.5159 56.4084 82.5159 53.5255C82.5159 50.6427 80.196 48.3057 77.3343 48.3057Z" fill="#8AB8F1"/>
<path d="M31.7765 167.176H7.1614C3.51919 167.176 0.566589 170.15 0.566589 173.819C0.566589 177.488 3.51919 180.463 7.1614 180.463H31.7765C35.4187 180.463 38.3713 177.488 38.3713 173.819C38.3713 170.15 35.4187 167.176 31.7765 167.176Z" fill="#B8DBE9"/>
<path fill-rule="evenodd" clip-rule="evenodd" d="M96.7568 21.7624C90.7861 23.0435 86.922 28.718 88.1261 34.4367L90.2556 44.5506C91.3777 49.88 96.5055 53.3671 102.031 52.7803C102.038 52.8046 102.044 52.829 102.051 52.8535L116.633 49.7247C118.484 47.0731 113.33 33.807 110.309 28.0614C108.48 23.2431 103.185 20.3832 97.7625 21.5466L96.7568 21.7624Z" fill="#7B5437"/>
<path fill-rule="evenodd" clip-rule="evenodd" d="M102.372 44.8445C106.026 46.0238 109.418 46.2439 110.843 45.5503C114.417 43.8109 111.989 30.5433 107.98 25.9688C103.97 21.3942 88.5018 22.3484 89.913 32.8159C90.4027 36.4488 92.6433 39.3034 95.5097 41.4097L95.2509 60.8469L107.328 58.2519L102.372 44.8445Z" fill="#D4A181"/>
<path fill-rule="evenodd" clip-rule="evenodd" d="M88.3353 33.2074C88.6158 32.8004 88.8872 32.4066 89.163 32.0471L89.068 31.6762C89.068 31.6762 91.2918 23.4371 97.1143 22.1877C102.932 20.9395 105.317 23.1351 107.344 25.0015L107.35 25.0065C107.098 27.8703 104.861 29.4869 102.332 31.3152C101.244 32.1023 100.101 32.9285 99.0383 33.9104C98.4848 33.6423 97.8316 33.5506 97.171 33.6924C95.6437 34.0201 94.6553 35.4716 94.9633 36.9345C95.2713 38.3974 96.7591 39.3176 98.2864 38.9899C98.3286 38.9808 98.3703 38.9709 98.4116 38.9602C100.172 44.5613 101.325 51.1416 99.9942 53.0478L85.4127 56.1764C83.5275 49.3005 84.9904 46.9098 86.4853 44.4667C87.8919 42.168 89.3268 39.8232 88.0275 33.6521C88.1317 33.5028 88.2341 33.3543 88.3353 33.2074L88.3353 33.2074Z" fill="#7B5437"/>
<path fill-rule="evenodd" clip-rule="evenodd" d="M92.303 97.2617L113.531 166.819L127.941 224.663L133.91 226.284L116.515 103.838L92.303 97.2617Z" fill="#BA8B72"/>
<path fill-rule="evenodd" clip-rule="evenodd" d="M126.212 221.196C125.74 220.827 125.047 220.883 124.71 221.355C124.095 222.216 123.23 223.522 123.015 224.333C122.674 225.625 122.465 228.224 122.465 228.224C124.022 228.647 150.456 235.82 150.456 235.82C150.456 235.82 152.466 232.645 150.188 231.73C147.91 230.815 146.414 230.17 146.414 230.17L134.882 221.058C134.655 220.879 134.326 220.913 134.153 221.133L132.8 222.859C132.8 222.859 130.366 223.245 129.006 222.876C128.177 222.651 127.004 221.816 126.212 221.196Z" fill="#E4E4E4"/>
<path fill-rule="evenodd" clip-rule="evenodd" d="M122.393 214.508L134.787 214.281C134.787 214.281 132.981 190.449 128.918 161.315C124.855 132.181 118.686 104.436 118.686 104.436L86.1855 95.6079C86.1855 95.6079 92.0599 130.181 101.105 159.588C110.151 188.996 122.393 214.508 122.393 214.508Z" fill="#2A0752"/>
<path fill-rule="evenodd" clip-rule="evenodd" d="M90.061 96.7361C81.0546 116.683 67.2789 141.551 66.4272 142.203C65.8593 142.637 49.3393 143.416 16.8676 144.539L16.8169 149.953C53.9302 154.702 73.8131 155.965 76.4657 153.744C80.4445 150.412 103.475 121.803 114.347 103.333L90.061 96.7361Z" fill="#D4A181"/>
<path fill-rule="evenodd" clip-rule="evenodd" d="M28.5568 143.017L28.6693 151.791C54.8512 161.329 71.6922 164.151 79.1919 160.259C86.6912 156.366 99.0375 137.555 116.231 103.827L85.2625 95.414C72.6147 123.422 65.8391 137.963 64.9357 139.038C64.0321 140.112 51.9057 141.439 28.5568 143.017Z" fill="#342A83"/>
<path fill-rule="evenodd" clip-rule="evenodd" d="M19.3569 144.437C19.6397 143.93 19.444 143.274 18.8953 143.022C17.8943 142.561 16.3892 141.927 15.5198 141.842C14.1336 141.707 11.4399 141.895 11.4399 141.895C11.3195 143.449 9.2759 169.844 9.2759 169.844C9.2759 169.844 12.916 171.296 13.3947 168.977C13.8734 166.659 14.233 165.13 14.233 165.13L21.2273 152.722C21.3645 152.479 21.2643 152.168 21.0056 152.036L18.9758 150.997C18.9758 150.997 18.0956 148.722 18.2008 147.363C18.2648 146.537 18.8831 145.288 19.3569 144.437Z" fill="#E4E4E4"/>
<path fill-rule="evenodd" clip-rule="evenodd" d="M133.982 62.1112L115.967 71.1371L122.459 78.0441L135.62 66.9126C142.488 65.2393 145.636 63.9793 145.065 63.1323C144.584 62.4183 143.789 62.4275 143.058 62.436C142.488 62.4426 141.956 62.4488 141.639 62.1123C140.917 61.3437 142.359 58.7327 143.839 56.3115C145.318 53.8903 143.774 54.0739 142.888 54.4092C139.975 56.2229 137.006 58.7902 133.982 62.1112ZM151.739 75.6025L143.826 79.5796L144.154 87.1289C144.154 87.1289 149.292 83.7139 153.683 82.6305C159.283 81.2491 161.557 80.1557 164.333 76.884C165.819 75.1336 167.113 71.5821 165.743 70.3911C165.218 69.9342 163.218 70.9513 161.178 71.9891C159.623 72.78 158.044 73.5829 157.076 73.7545C155.774 73.9856 155.951 72.377 156.093 71.0916C156.194 70.1693 156.278 69.4133 155.783 69.6228C153.485 69.6164 151.739 75.6025 151.739 75.6025Z" fill="#BA8B72"/>
<path fill-rule="evenodd" clip-rule="evenodd" d="M107.321 68.9211C113.58 68.9782 121.944 67.8734 130.934 62.6342L134.313 70.1664C128.079 75.8832 119.368 80.5112 111.82 80.1629C105.872 79.8886 102.939 72.9396 107.321 68.9211Z" fill="#7479B6"/>
<mask id="mask0_374_1454" style="mask-type:alpha" maskUnits="userSpaceOnUse" x="105" y="62" width="30" height="19">
<path fill-rule="evenodd" clip-rule="evenodd" d="M107.321 68.9209C113.58 68.9782 121.945 67.8738 130.934 62.6352L134.313 70.1671C128.08 75.8834 119.369 80.5107 111.821 80.1622C105.872 79.8876 102.939 72.9389 107.321 68.9209Z" fill="white"/>
</mask>
<g mask="url(#mask0_374_1454)">
</g>
<path fill-rule="evenodd" clip-rule="evenodd" d="M89.6105 119.815C83.6701 118.957 78.2118 118.169 74.9613 118.718C71.5024 107.338 74.6336 100.276 77.5242 93.7566C79.2663 89.8273 80.9211 86.0951 80.9929 81.7339C81.2021 69.0336 92.1578 49.6895 93.7248 49.7197L94.1744 49.7284L106.592 49.9674L108.013 49.9948C108.529 57.8665 111.122 66.4284 113.731 75.0453C114.341 77.0577 114.951 79.073 115.536 81.0832C125.885 83.5404 149.066 76.1271 149.066 76.1271C149.066 76.1271 154.706 87.7713 154.19 92.6738C140.663 99.1289 129.113 101.901 119.633 101.916C119.85 107.306 119.085 112.417 116.712 117.055C113.533 123.269 100.728 121.42 89.6105 119.815Z" fill="#ADB0F1"/>
<mask id="mask1_374_1454" style="mask-type:alpha" maskUnits="userSpaceOnUse" x="73" y="49" width="82" height="73">
<path fill-rule="evenodd" clip-rule="evenodd" d="M89.6111 119.813C83.6705 118.955 78.212 118.166 74.9614 118.715C71.502 107.336 74.6331 100.274 77.5236 93.7548C79.2656 89.8257 80.9202 86.0937 80.9919 81.7327C81.2007 69.033 92.156 49.6902 93.7231 49.7205L94.1727 49.7291L106.59 49.9687L108.012 49.9962C108.528 57.8675 111.121 66.4291 113.731 75.0458C114.341 77.0581 114.951 79.0733 115.536 81.0835C125.885 83.541 149.067 76.1289 149.067 76.1289C149.067 76.1289 154.708 87.7729 154.191 92.6751C140.664 99.1294 129.115 101.901 119.634 101.916C119.851 107.306 119.086 112.416 116.714 117.054C113.534 123.267 100.729 121.418 89.6111 119.813Z" fill="white"/>
</mask>
<g mask="url(#mask1_374_1454)">
</g>
<path opacity="0.905855" d="M140.102 147.553H137.887C131.771 147.553 126.813 152.548 126.813 158.709V170.423C126.813 176.584 131.771 181.579 137.887 181.579H140.102C146.218 181.579 151.176 176.584 151.176 170.423V158.709C151.176 152.548 146.218 147.553 140.102 147.553Z" fill="#B8DBE9"/>
<path opacity="0.865792" d="M140.102 187.157H137.887C131.771 187.157 126.813 192.151 126.813 198.313V210.026C126.813 216.188 131.771 221.182 137.887 221.182H140.102C146.218 221.182 151.176 216.188 151.176 210.026V198.313C151.176 192.151 146.218 187.157 140.102 187.157Z" fill="#6DD2FC"/>
<path d="M168.895 176.558H166.68C160.564 176.558 155.606 181.553 155.606 187.714V191.619C155.606 197.78 160.564 202.775 166.68 202.775H168.895C175.011 202.775 179.969 197.78 179.969 191.619V187.714C179.969 181.553 175.011 176.558 168.895 176.558Z" fill="#BAEBFF"/>
<path fill-rule="evenodd" clip-rule="evenodd" d="M79.7473 143.927C79.7473 143.157 80.3669 142.533 81.1316 142.533C81.8963 142.533 82.5159 143.157 82.5159 143.927C82.5159 144.698 81.8963 145.322 81.1316 145.322C80.3669 145.322 79.7473 144.698 79.7473 143.927Z" fill="#B8DBE9"/>
<path fill-rule="evenodd" clip-rule="evenodd" d="M74.7639 136.118C74.7639 135.347 75.3835 134.723 76.1482 134.723H81.1316C81.8963 134.723 82.5159 135.347 82.5159 136.118C82.5159 136.888 81.8963 137.512 81.1316 137.512H76.1482C75.3835 137.512 74.7639 136.888 74.7639 136.118Z" fill="#B8DBE9"/>
<path opacity="0.890044" fill-rule="evenodd" clip-rule="evenodd" d="M0.566589 112.69C0.566589 111.92 1.18636 111.296 1.95087 111.296H45.6941C46.4587 111.296 47.0783 111.92 47.0783 112.69C47.0783 113.461 46.4587 114.085 45.6941 114.085H1.95087C1.18636 114.085 0.566589 113.461 0.566589 112.69Z" fill="#B8DBE9"/>
<path fill-rule="evenodd" clip-rule="evenodd" d="M0.566589 104.881C0.566589 104.111 1.18636 103.486 1.95087 103.486H17.4548C18.2193 103.486 18.8391 104.111 18.8391 104.881C18.8391 105.651 18.2193 106.275 17.4548 106.275H1.95087C1.18636 106.275 0.566589 105.651 0.566589 104.881Z" fill="#B8DBE9"/>
<path fill-rule="evenodd" clip-rule="evenodd" d="M0.566589 96.5141C0.566589 95.7438 1.18636 95.1196 1.95087 95.1196H9.70283C10.4673 95.1196 11.0871 95.7438 11.0871 96.5141C11.0871 97.2844 10.4673 97.9086 9.70283 97.9086H1.95087C1.18636 97.9086 0.566589 97.2844 0.566589 96.5141Z" fill="#B8DBE9"/>
<path opacity="0.890044" fill-rule="evenodd" clip-rule="evenodd" d="M0.566589 88.705C0.566589 87.9347 1.18636 87.3105 1.95087 87.3105H37.9421C38.7068 87.3105 39.3264 87.9347 39.3264 88.705C39.3264 89.4754 38.7068 90.0995 37.9421 90.0995H1.95087C1.18636 90.0995 0.566589 89.4754 0.566589 88.705Z" fill="#8AB8F1"/>
<path opacity="0.908343" d="M75.8713 167.076H51.508C47.8383 167.076 44.8635 170.073 44.8635 173.769C44.8635 177.466 47.8383 180.463 51.508 180.463H75.8713C79.541 180.463 82.5158 177.466 82.5158 173.769C82.5158 170.073 79.541 167.076 75.8713 167.076Z" fill="#77D6FE"/>
</g>
<defs>
<clipPath id="clip0_374_1454">
<rect width="188" height="247" fill="white"/>
</clipPath>
</defs>
</svg>
